<?xml version="1.0" encoding="utf-8"?>
<!-- Generator: Adobe Illustrator 25.2.1, SVG Export Plug-In . SVG Version: 6.00 Build 0)  -->
<svg version="1.1" xmlns="http://www.w3.org/2000/svg" xmlns:xlink="http://www.w3.org/1999/xlink" x="0px" y="0px"
	 viewBox="0 0 20 20" style="enable-background:new 0 0 20 20;" xml:space="preserve">
<style type="text/css">
	.st0{fill:#333333;}
	.st1{fill:#FFFFFF;}
	.st2{clip-path:url(#SVGID_2_);}
	.st3{fill:none;stroke:#000000;stroke-width:3;stroke-linecap:round;stroke-linejoin:round;stroke-miterlimit:10;}
	.st4{clip-path:url(#SVGID_4_);}
	.st5{clip-path:url(#SVGID_6_);}
	.st6{fill:url(#);}
</style>
<g id="Bequem">
	<path class="st0" d="M18.1,11.27c0-0.25,0.01-1.09,0.19-2.94c0.12-1.25,0.05-3.56-0.48-4.88c0.01-0.21,0.07-0.86,0.32-1.49
		c0.04-0.09,0.04-0.18,0-0.27C18.12,1.63,18,1.36,17.63,1.22c-0.51-0.2-1.24-0.07-2.18,0.39C14.74,1.65,8.91,2,5.98,1.53
		C5.72,1.42,4.51,1,3.7,1.36C3.38,1.5,3.16,1.75,3.04,2.07c-0.03,0.1-0.02,0.21,0.02,0.3C3.07,2.38,3.59,3.42,3.14,6
		c-0.29-0.04-0.6-0.04-0.87,0.08c-0.29,0.13-0.5,0.36-0.6,0.68C1.64,6.85,1.65,6.95,1.69,7.03c0,0.01,0.43,1.01,0.01,3.5
		c-0.02,0.1-0.42,2.34,0.23,4.36c-0.16,0.45-0.44,1.45-0.02,1.93c0.14,0.16,0.41,0.33,0.89,0.22C3,17,3.16,16.95,3.33,16.91
		c0.8-0.22,1.43-0.39,5.18-0.4c0.02,0,2.27,0.11,4.08,0.69c0.03,0.01,0.06,0.01,0.09,0.02c0.01,0,0.03,0,0.04,0
		c0.19,0,0.46-0.08,0.62-0.32c0.22-0.32,0.18-0.79-0.12-1.43c0-0.26,0.01-1.16,0.13-2.6c0.64-0.02,2.62-0.05,4.1,0.35
		c0.03,0.01,0.05,0.01,0.08,0.01c0.01,0,0.01,0,0.03,0c0.12,0,0.54-0.03,0.77-0.4C18.54,12.45,18.47,11.94,18.1,11.27z M12.73,16.47
		c-1.88-0.59-4.09-0.69-4.2-0.7c-3.87,0.01-4.54,0.19-5.39,0.43c-0.15,0.04-0.31,0.09-0.5,0.13c-0.12,0.03-0.16,0.01-0.17,0.01
		c0,0,0,0,0,0c-0.1-0.1-0.03-0.73,0.2-1.31c0.03-0.08,0.03-0.17,0-0.25c-0.64-1.87-0.25-4.1-0.24-4.12c0.38-2.21,0.13-3.37,0-3.78
		c0.04-0.07,0.1-0.11,0.14-0.13c0.3-0.13,0.89,0.05,1.19,0.19c0.03,0.01,0.06,0.02,0.09,0.03c2.42,0.5,7.21,0.18,7.41,0.17
		c0.06,0,0.11-0.02,0.16-0.05c0.65-0.37,0.98-0.38,1.1-0.35c-0.21,0.71-0.22,1.37-0.22,1.4c0,0.04,0.01,0.09,0.02,0.13
		c0.38,1.04,0.42,3.04,0.34,4.06c-0.17,2.05-0.16,3.16-0.16,3.21c0,0.05,0.01,0.11,0.04,0.16C12.77,16.23,12.74,16.43,12.73,16.47z
		 M17.69,12.43c-0.02,0.03-0.07,0.04-0.11,0.05c-1.5-0.39-3.44-0.38-4.18-0.36c0.06-1.14-0.01-2.94-0.37-4.02
		c0.01-0.19,0.05-0.76,0.25-1.31c0.03-0.08,0.03-0.16,0-0.24c-0.02-0.05-0.13-0.33-0.48-0.47c-0.41-0.16-0.98-0.05-1.68,0.34
		C10.47,6.46,6.2,6.7,4.03,6.27c-0.04-0.02-0.1-0.04-0.18-0.07c0.41-2.32,0.1-3.55-0.06-3.99C3.84,2.13,3.91,2.08,4,2.03
		c0.5-0.22,1.43,0.06,1.75,0.19C5.77,2.23,5.8,2.24,5.82,2.25C9,2.78,15.31,2.36,15.57,2.34c0.05,0,0.1-0.02,0.14-0.04
		c0.98-0.49,1.48-0.47,1.66-0.4c-0.28,0.81-0.3,1.57-0.3,1.6c0,0.05,0.01,0.1,0.03,0.15c0.5,1.18,0.57,3.44,0.45,4.6
		c-0.23,2.33-0.19,3.1-0.19,3.13c0,0.06,0.02,0.11,0.05,0.16C17.8,12.23,17.69,12.42,17.69,12.43z"/>
</g>
<g id="Nichtabzeichnen">
</g>
<g id="Spitze">
</g>
<g id="Halt">
</g>
<g id="Brust_umschließen">
</g>
<g id="Tiefer_Auschnitt">
</g>
<g id="Trägerlos">
</g>
<g id="Offen">
</g>
<g id="Nicht_auftragen">
</g>
<g id="Kurven">
</g>
<g id="Brustwarzen">
</g>
<g id="Leicht">
</g>
<g id="Mode">
</g>
<g id="Wattierung">
</g>
</svg>
