<?xml version="1.0" encoding="utf-8"?>
<!-- Generator: Adobe Illustrator 25.2.1, SVG Export Plug-In . SVG Version: 6.00 Build 0)  -->
<svg version="1.1" xmlns="http://www.w3.org/2000/svg" xmlns:xlink="http://www.w3.org/1999/xlink" x="0px" y="0px"
	 viewBox="0 0 20 20" style="enable-background:new 0 0 20 20;" xml:space="preserve">
<style type="text/css">
	.st0{fill:#333333;}
	.st1{fill:#FFFFFF;}
	.st2{clip-path:url(#SVGID_2_);}
	.st3{fill:none;stroke:#000000;stroke-width:3;stroke-linecap:round;stroke-linejoin:round;stroke-miterlimit:10;}
	.st4{clip-path:url(#SVGID_4_);}
	.st5{clip-path:url(#SVGID_6_);}
	.st6{fill:url(#);}
</style>
<g id="Bequem">
</g>
<g id="Nichtabzeichnen">
	<path class="st0" d="M18.89,10.43c-0.19-0.1-0.42-0.02-0.52,0.16c-0.08,0.15-1.97,3.62-8.35,3.62c-0.03,0-0.06,0-0.09,0.01
		c-1.35-0.01-2.5-0.17-3.48-0.42l1.75-1.75c0.5,0.38,1.12,0.6,1.79,0.6c1.65,0,2.99-1.34,2.99-2.99c0-0.67-0.23-1.29-0.6-1.79
		l2.14-2.14c2.82,1.03,3.79,2.79,3.84,2.9c0.1,0.19,0.33,0.26,0.52,0.17c0.19-0.1,0.26-0.33,0.17-0.52C19,8.17,18,6.29,15.13,5.14
		l1.93-1.93c0.15-0.15,0.15-0.39,0-0.54c-0.15-0.15-0.39-0.15-0.54,0l-2.18,2.18c-1.14-0.36-2.53-0.6-4.21-0.61
		c-0.03-0.01-0.06-0.01-0.09-0.01c-6.92,0-9,3.89-9.08,4.06c-0.1,0.19-0.02,0.42,0.17,0.52c0.06,0.03,0.12,0.04,0.18,0.04
		c0.14,0,0.27-0.08,0.34-0.21C1.7,8.5,3.59,5.03,9.93,5c0.03,0.01,0.06,0.01,0.09,0.01c1.45,0,2.66,0.18,3.68,0.46l-1.85,1.85
		C11.35,6.91,10.7,6.67,10,6.67c-1.65,0-2.99,1.34-2.99,2.99c0,0.7,0.24,1.35,0.65,1.86l-2.03,2.03c-2.94-1.02-3.95-2.86-4-2.97
		c-0.1-0.19-0.33-0.26-0.52-0.17c-0.19,0.1-0.26,0.33-0.17,0.52c0.06,0.12,1.1,2.06,4.09,3.21l-2.08,2.08
		c-0.15,0.15-0.15,0.39,0,0.54c0.08,0.08,0.17,0.11,0.27,0.11s0.2-0.04,0.27-0.11l2.35-2.35C6.98,14.77,8.36,15,10.03,15
		c0.03,0,0.06,0,0.09-0.01c6.81-0.03,8.86-3.87,8.94-4.04C19.16,10.76,19.08,10.53,18.89,10.43z M12.23,9.66
		c0,1.23-1,2.23-2.23,2.23c-0.46,0-0.89-0.14-1.24-0.38l3.09-3.09C12.08,8.78,12.23,9.2,12.23,9.66z M7.77,9.66
		c0-1.23,1-2.23,2.23-2.23c0.49,0,0.94,0.16,1.31,0.43l-3.1,3.1C7.94,10.61,7.77,10.15,7.77,9.66z"/>
</g>
<g id="Spitze">
</g>
<g id="Halt">
</g>
<g id="Brust_umschließen">
</g>
<g id="Tiefer_Auschnitt">
</g>
<g id="Trägerlos">
</g>
<g id="Offen">
</g>
<g id="Nicht_auftragen">
</g>
<g id="Kurven">
</g>
<g id="Brustwarzen">
</g>
<g id="Leicht">
</g>
<g id="Mode">
</g>
<g id="Wattierung">
</g>
</svg>
