<?xml version="1.0" encoding="utf-8"?>
<!-- Generator: Adobe Illustrator 25.2.1, SVG Export Plug-In . SVG Version: 6.00 Build 0)  -->
<svg version="1.1" xmlns="http://www.w3.org/2000/svg" xmlns:xlink="http://www.w3.org/1999/xlink" x="0px" y="0px"
	 viewBox="0 0 20 20" style="enable-background:new 0 0 20 20;" xml:space="preserve">
<style type="text/css">
	.st0{fill:#333333;}
	.st1{fill:#FFFFFF;}
	.st2{clip-path:url(#SVGID_2_);}
	.st3{fill:none;stroke:#000000;stroke-width:3;stroke-linecap:round;stroke-linejoin:round;stroke-miterlimit:10;}
	.st4{clip-path:url(#SVGID_4_);}
	.st5{clip-path:url(#SVGID_6_);}
	.st6{fill:url(#);}
</style>
<g id="Bequem">
</g>
<g id="Nichtabzeichnen">
</g>
<g id="Spitze">
	<g>
		<defs>
			<rect id="SVGID_5_" x="0" y="-0.03" width="19.99" height="20"/>
		</defs>
		<clipPath id="SVGID_2_">
			<use xlink:href="#SVGID_5_"  style="overflow:visible;"/>
		</clipPath>
		<g class="st2">
			<g>
				<g>
					<path class="st0" d="M10.04,16.46c-0.09,0-0.19,0-0.28-0.01C6.69,16.29,4.56,13.5,4,12.69c-2.03,1.76-4.19,2.57-6.42,2.41
						c-4.06-0.29-6.9-3.65-7.02-3.79c-0.06-0.07-0.07-0.18-0.01-0.26l0.67-1.02c0.04-0.05,0.09-0.09,0.16-0.1
						c0.06-0.01,0.13,0.01,0.17,0.06c1.89,1.8,6.87,5.47,12.37,0.51c0.05-0.04,0.11-0.06,0.17-0.05c0.06,0.01,0.12,0.05,0.15,0.1
						c0.02,0.04,2.27,3.59,5.55,3.77c2.05,0.11,4.09-1.11,6.05-3.62c0.04-0.05,0.09-0.08,0.15-0.08c0.06-0.01,0.12,0.01,0.16,0.05
						c0.04,0.03,3.88,3.17,7.9,2.59c2.07-0.3,3.85-1.53,5.29-3.67c0.05-0.07,0.13-0.11,0.21-0.09c0.04,0.01,4.08,0.61,7.8-3.19
						c0.08-0.08,0.22-0.09,0.3-0.01c0.09,0.08,0.09,0.21,0.02,0.3L35.9,8.67c-0.2,1.05-0.7,1.83-1.49,2.34
						c-1.57,1.01-3.8,0.6-4.4,0.46c-1.47,2.14-3.33,3.4-5.52,3.76c-3.91,0.64-7.62-1.8-8.46-2.4
						C14.11,15.24,12.09,16.46,10.04,16.46z M4.05,12.15c0.01,0,0.02,0,0.03,0c0.06,0.01,0.12,0.05,0.15,0.1
						c0.02,0.04,2.27,3.59,5.55,3.77c2.05,0.11,4.09-1.11,6.05-3.62c0.07-0.09,0.21-0.11,0.3-0.04c0.04,0.03,4.13,3.13,8.3,2.44
						c2.1-0.34,3.89-1.59,5.31-3.69c0.05-0.08,0.15-0.11,0.24-0.09c0.03,0.01,2.57,0.67,4.2-0.38c0.7-0.45,1.14-1.16,1.31-2.11
						c0.01-0.04,0.02-0.07,0.05-0.1l0.13-0.15c-2.83,1.87-5.4,1.73-6.03,1.66c-1.49,2.17-3.35,3.43-5.51,3.74
						c-3.76,0.54-7.25-1.92-8.07-2.55c-2.02,2.52-4.14,3.73-6.29,3.62c-3.06-0.17-5.19-2.95-5.75-3.76
						c-2.45,2.13-5.08,2.87-7.81,2.19c-2.15-0.54-3.85-1.85-4.77-2.7L-9,11.15c0.55,0.6,3.16,3.27,6.62,3.52
						C-0.2,14.83,1.91,14,3.9,12.21C3.94,12.17,3.99,12.15,4.05,12.15z"/>
				</g>
				<g>
					<path class="st0" d="M23.05,14.38c-3.83,0-7.15-2.51-7.3-2.63c-0.09-0.07-0.11-0.21-0.04-0.3c0.07-0.09,0.21-0.11,0.3-0.04
						c0.04,0.03,4.13,3.12,8.3,2.44c2.1-0.34,3.89-1.59,5.31-3.7c0.05-0.08,0.15-0.11,0.24-0.09c0.01,0,1.1,0.32,2.29,0.23
						c1.54-0.11,2.51-0.81,2.89-2.08c0.03-0.11,0.15-0.18,0.27-0.14c0.11,0.03,0.18,0.15,0.14,0.27c-0.43,1.44-1.57,2.26-3.29,2.38
						c-1.01,0.07-1.92-0.12-2.28-0.21c-1.47,2.14-3.33,3.4-5.51,3.75C23.93,14.35,23.48,14.38,23.05,14.38z"/>
				</g>
				<g>
					<path class="st0" d="M22.81,9.56c-3.84,0-6.67-2.38-6.72-2.42c-0.09-0.08-0.1-0.21-0.02-0.3c0.08-0.09,0.21-0.1,0.3-0.02
						c0.02,0.02,1.77,1.51,4.34,2.09c3.43,0.78,6.62-0.33,9.48-3.31c0.05-0.05,0.12-0.08,0.19-0.06c0.05,0.01,5.48,0.91,6.13-2.85
						c0.02-0.12,0.13-0.2,0.25-0.18c0.12,0.02,0.2,0.13,0.18,0.25c-0.3,1.74-1.56,2.85-3.63,3.2c-1.3,0.22-2.51,0.08-2.89,0.02
						C27.79,8.71,25.12,9.56,22.81,9.56z"/>
				</g>
				<g>
					<path class="st0" d="M22.46,10.11c-0.04,0-0.09-0.01-0.12-0.04l-0.14-0.1l-0.14,0.1c-0.08,0.05-0.18,0.05-0.26-0.01l-0.13-0.11
						l-0.15,0.09c-0.08,0.05-0.19,0.04-0.26-0.02L21.13,9.9l-0.15,0.08c-0.08,0.04-0.19,0.03-0.25-0.04L20.6,9.82l-0.16,0.07
						c-0.09,0.04-0.19,0.02-0.25-0.05l-0.11-0.13l-0.16,0.06c-0.09,0.03-0.19,0.01-0.25-0.07l-0.11-0.14L19.4,9.62
						c-0.09,0.03-0.19,0-0.24-0.08l-0.1-0.14l-0.17,0.04c-0.09,0.02-0.19-0.01-0.24-0.09L18.56,9.2L18.4,9.24
						c-0.09,0.02-0.19-0.02-0.23-0.11l-0.08-0.15l-0.17,0.03c-0.09,0.02-0.19-0.03-0.23-0.12l-0.07-0.15l-0.17,0.02
						c-0.1,0.01-0.18-0.04-0.22-0.13l-0.07-0.16l-0.17,0.01c-0.1,0.01-0.18-0.05-0.22-0.14l-0.06-0.16l-0.17,0
						c-0.08,0-0.18-0.06-0.21-0.15l-0.05-0.16l-0.17-0.01c-0.12-0.01-0.21-0.11-0.2-0.23c0.01-0.12,0.11-0.21,0.23-0.2l0.32,0.02
						c0.09,0.01,0.17,0.07,0.19,0.15l0.05,0.15l0.16,0c0,0,0,0,0,0c0.09,0,0.17,0.06,0.2,0.14l0.06,0.15l0.16-0.01
						c0.1,0,0.18,0.05,0.21,0.13l0.06,0.15l0.16-0.02c0.09-0.01,0.18,0.04,0.22,0.12L18,8.56l0.16-0.03
						c0.09-0.02,0.18,0.03,0.22,0.11l0.08,0.14l0.16-0.03c0.09-0.02,0.18,0.02,0.23,0.1l0.09,0.14l0.16-0.04
						c0.09-0.02,0.18,0.01,0.23,0.08l0.09,0.13l0.16-0.05c0.09-0.03,0.18,0,0.24,0.07l0.1,0.13l0.15-0.06
						c0.08-0.03,0.18-0.01,0.24,0.06l0.11,0.12l0.15-0.07c0.08-0.04,0.18-0.02,0.24,0.05l0.11,0.12l0.14-0.08
						c0.08-0.04,0.18-0.03,0.25,0.03l0.12,0.11l0.14-0.08c0.08-0.05,0.18-0.04,0.25,0.02l0.13,0.1l0.13-0.09
						c0.07-0.05,0.17-0.05,0.25,0l0.13,0.09l0.13-0.1c0.07-0.06,0.17-0.06,0.25-0.01l0.14,0.09l0.12-0.11
						c0.07-0.06,0.17-0.07,0.24-0.03l0.14,0.08l0.11-0.11c0.06-0.06,0.16-0.08,0.24-0.04l0.15,0.07l0.11-0.12
						c0.06-0.07,0.16-0.09,0.24-0.06l0.15,0.06l0.1-0.13c0.06-0.07,0.15-0.1,0.24-0.07l0.15,0.05l0.09-0.13
						c0.05-0.07,0.14-0.11,0.23-0.09L25.45,9l0.09-0.14c0.05-0.08,0.14-0.12,0.23-0.1l0.16,0.03L26,8.65
						c0.04-0.08,0.13-0.12,0.22-0.11l0.16,0.02l0.07-0.15c0.04-0.08,0.12-0.13,0.22-0.12l0.16,0.02l0.06-0.15
						c0.04-0.08,0.11-0.14,0.21-0.13l0.16,0.01l0.06-0.15c0.03-0.09,0.12-0.14,0.2-0.14l0.16,0l0.05-0.16
						c0.03-0.09,0.11-0.15,0.2-0.15l0.16,0l0.05-0.16c0.02-0.09,0.1-0.15,0.19-0.16l0.16-0.01l0.04-0.16
						c0.02-0.09,0.1-0.15,0.19-0.16l0.17-0.02l0.03-0.16c0.02-0.09,0.09-0.16,0.18-0.17l0.18-0.02l0.05-0.2
						c0.02-0.08,0.08-0.14,0.16-0.16c0.08-0.02,0.16,0.01,0.21,0.07l0.03,0.04l0.02-0.02c0.05-0.04,0.11-0.06,0.17-0.05
						c0.06,0.01,0.11,0.04,0.14,0.09c0.05-0.04,0.1-0.05,0.16-0.05c0.06,0.01,0.11,0.04,0.15,0.08c0.04-0.04,0.1-0.06,0.16-0.05
						c0.06,0.01,0.11,0.03,0.15,0.08c0.04-0.04,0.1-0.06,0.16-0.06c0.06,0,0.11,0.03,0.15,0.07c0.04-0.04,0.1-0.06,0.16-0.06
						c0.06,0,0.11,0.03,0.15,0.07c0.04-0.04,0.1-0.07,0.16-0.07l0,0c0.06,0,0.11,0.02,0.16,0.07c0.04-0.04,0.09-0.07,0.15-0.07
						c0.06,0,0.12,0.02,0.16,0.06c0.04-0.04,0.09-0.07,0.15-0.08c0.06,0,0.12,0.02,0.16,0.06c0.04-0.05,0.09-0.08,0.15-0.08
						c0.06-0.01,0.12,0.01,0.16,0.05c0.03-0.05,0.09-0.08,0.14-0.09c0.06-0.01,0.12,0.01,0.16,0.04c0.03-0.05,0.08-0.08,0.14-0.09
						c0.06-0.01,0.12,0,0.16,0.04c0.03-0.05,0.08-0.08,0.14-0.1c0.06-0.01,0.12,0,0.16,0.03c0.03-0.05,0.07-0.09,0.13-0.1
						c0.06-0.02,0.11-0.01,0.16,0.02c0.03-0.05,0.07-0.09,0.12-0.11c0.05-0.02,0.11-0.01,0.16,0.01c0.02-0.05,0.06-0.09,0.12-0.11
						s0.11-0.02,0.16,0c0.02-0.05,0.06-0.1,0.11-0.12c0.05-0.02,0.11-0.03,0.16-0.01c0.02-0.05,0.05-0.1,0.1-0.13
						c0.05-0.03,0.11-0.03,0.16-0.02c0.01-0.05,0.05-0.1,0.09-0.13s0.11-0.04,0.16-0.03c0.01-0.06,0.04-0.11,0.09-0.14
						c0.05-0.03,0.1-0.05,0.16-0.04c0.01-0.06,0.03-0.11,0.07-0.14c0.04-0.04,0.09-0.06,0.15-0.05c0-0.06,0.02-0.11,0.06-0.15
						c0.04-0.04,0.09-0.06,0.15-0.06c0-0.06,0.02-0.11,0.05-0.15c0.04-0.04,0.09-0.07,0.14-0.07c-0.01-0.06,0.01-0.11,0.04-0.16
						c0.03-0.05,0.08-0.07,0.14-0.08c-0.01-0.05,0-0.11,0.03-0.16c0.03-0.05,0.08-0.08,0.13-0.09c-0.01-0.05-0.01-0.11,0.02-0.16
						c0.03-0.05,0.07-0.09,0.13-0.1c-0.02-0.05-0.02-0.11,0.01-0.16c0.02-0.05,0.07-0.09,0.12-0.11c-0.02-0.05-0.02-0.11,0-0.16
						c0.02-0.05,0.06-0.1,0.11-0.12c-0.03-0.05-0.03-0.11-0.01-0.16c0.02-0.06,0.06-0.11,0.12-0.13l0.23-0.1
						c0.11-0.05,0.24,0,0.28,0.11c0.05,0.11,0,0.24-0.11,0.28c0.03,0.06,0.04,0.12,0.02,0.18c-0.02,0.06-0.07,0.11-0.13,0.13
						c0.03,0.06,0.03,0.12,0.01,0.18c-0.03,0.06-0.08,0.1-0.14,0.12c0.03,0.06,0.02,0.13-0.01,0.18c-0.03,0.06-0.08,0.1-0.15,0.11
						c0.02,0.06,0.02,0.13-0.02,0.18c-0.03,0.06-0.09,0.09-0.15,0.1h0c0.02,0.06,0.01,0.13-0.03,0.18c-0.04,0.05-0.1,0.09-0.16,0.09
						c0.01,0.06,0,0.13-0.04,0.18c-0.04,0.05-0.1,0.08-0.17,0.08v0c0.01,0.06-0.01,0.13-0.06,0.18c-0.04,0.05-0.11,0.07-0.17,0.07
						l0,0v0c0,0.06-0.02,0.13-0.07,0.17c-0.05,0.04-0.12,0.06-0.18,0.05l0,0c0,0.07-0.03,0.13-0.08,0.17
						c-0.05,0.04-0.12,0.06-0.18,0.04l0,0v0c-0.01,0.06-0.04,0.12-0.09,0.16c-0.05,0.04-0.12,0.05-0.18,0.03
						c-0.01,0.06-0.05,0.12-0.1,0.15C35.11,6,35.04,6.01,34.98,5.98c-0.01,0.06-0.06,0.12-0.11,0.15c-0.06,0.03-0.13,0.03-0.18,0.01
						c-0.02,0.06-0.06,0.11-0.12,0.14C34.5,6.3,34.44,6.3,34.38,6.27c-0.02,0.06-0.07,0.11-0.13,0.13
						c-0.06,0.02-0.13,0.02-0.18-0.02c-0.02,0.06-0.07,0.1-0.14,0.12c-0.06,0.02-0.13,0.01-0.18-0.02c-0.03,0.06-0.08,0.1-0.14,0.11
						c-0.06,0.02-0.13,0-0.18-0.03c-0.03,0.06-0.08,0.1-0.15,0.11c-0.06,0.01-0.13,0-0.18-0.04c-0.03,0.05-0.09,0.09-0.15,0.1
						c-0.06,0.01-0.13-0.01-0.17-0.05c-0.03,0.05-0.09,0.09-0.15,0.1c-0.06,0.01-0.13-0.01-0.17-0.05
						c-0.04,0.05-0.09,0.08-0.16,0.09c-0.06,0.01-0.12-0.02-0.17-0.06c-0.04,0.05-0.1,0.08-0.16,0.08c-0.06,0-0.12-0.02-0.17-0.07
						c-0.04,0.05-0.1,0.08-0.16,0.08c-0.06,0-0.12-0.03-0.16-0.07c-0.04,0.05-0.11,0.07-0.16,0.07c-0.06,0-0.12-0.03-0.16-0.08
						c-0.04,0.04-0.1,0.07-0.17,0.07c-0.06,0-0.12-0.03-0.16-0.08c-0.04,0.04-0.11,0.06-0.17,0.06c-0.06,0-0.12-0.04-0.16-0.09
						c-0.05,0.04-0.11,0.06-0.17,0.06c-0.06-0.01-0.12-0.04-0.15-0.09c-0.05,0.04-0.11,0.06-0.17,0.05
						c-0.06-0.01-0.12-0.04-0.15-0.1c-0.04,0.03-0.1,0.05-0.15,0.05c-0.01,0-0.03,0-0.04-0.01c-0.03,0.07-0.09,0.12-0.17,0.14
						l-0.17,0.02L29.3,7.01c-0.02,0.09-0.1,0.16-0.19,0.17L28.94,7.2L28.9,7.37c-0.02,0.09-0.1,0.16-0.2,0.16l-0.17,0.01l-0.05,0.16
						c-0.03,0.09-0.11,0.15-0.2,0.16l-0.17,0.01l-0.05,0.16c-0.03,0.09-0.12,0.14-0.21,0.15l-0.17,0l-0.06,0.16
						c-0.03,0.09-0.11,0.15-0.21,0.14l-0.17-0.01l-0.07,0.16c-0.04,0.09-0.12,0.14-0.22,0.13l-0.17-0.02L26.7,8.9
						c-0.04,0.09-0.13,0.13-0.23,0.12L26.3,8.99l-0.08,0.15c-0.05,0.08-0.14,0.13-0.23,0.11l-0.17-0.03l-0.09,0.15
						c-0.05,0.08-0.15,0.12-0.24,0.1l-0.17-0.04l-0.1,0.14c-0.05,0.08-0.15,0.11-0.24,0.08l-0.16-0.05l-0.11,0.13
						c-0.06,0.08-0.16,0.1-0.25,0.07l-0.16-0.06l-0.11,0.13c-0.06,0.07-0.17,0.09-0.25,0.05l-0.16-0.07l-0.12,0.12
						c-0.07,0.07-0.17,0.08-0.25,0.04l-0.15-0.08l-0.13,0.11c-0.07,0.06-0.18,0.07-0.26,0.02l-0.15-0.09l-0.14,0.11
						C22.55,10.1,22.5,10.11,22.46,10.11z"/>
				</g>
				<g>
					<path class="st0" d="M9.98,15.61c-0.1,0-0.2,0-0.3-0.01c-2.96-0.17-4.99-2.86-5.53-3.65c-2.03,1.76-4.18,2.57-6.42,2.41
						c-4.06-0.29-6.9-3.65-7.02-3.79c-0.08-0.09-0.06-0.23,0.03-0.3c0.09-0.08,0.23-0.06,0.3,0.03c0.03,0.03,2.85,3.36,6.72,3.64
						c2.18,0.15,4.29-0.67,6.28-2.47c0.05-0.04,0.11-0.06,0.18-0.05c0.06,0.01,0.12,0.05,0.15,0.1c0.02,0.03,2.15,3.47,5.33,3.66
						c2.04,0.12,4.09-1.11,6.08-3.66c0.07-0.09,0.21-0.11,0.3-0.04c0.09,0.07,0.11,0.21,0.04,0.3
						C14.14,14.32,12.07,15.61,9.98,15.61z"/>
				</g>
				<g>
					<path class="st0" d="M10.36,10.78c-0.1,0-0.2,0-0.3-0.01C7.1,10.6,5.06,7.92,4.52,7.12C-0.4,11.41-4.95,9.09-7.23,7.31
						C-7.33,7.23-7.35,7.1-7.27,7c0.07-0.09,0.21-0.11,0.3-0.04c2.21,1.72,6.63,3.97,11.39-0.33C4.47,6.59,4.54,6.57,4.6,6.58
						c0.06,0.01,0.12,0.05,0.15,0.1c0.02,0.03,2.15,3.47,5.33,3.66c2.04,0.12,4.09-1.11,6.08-3.66c0.07-0.09,0.21-0.11,0.3-0.04
						c0.09,0.07,0.11,0.21,0.04,0.3C14.51,9.5,12.45,10.78,10.36,10.78z"/>
				</g>
				<g>
					<path class="st0" d="M10.39,11.62c-0.04,0-0.09-0.01-0.13-0.04l-0.13-0.1l-0.14,0.09c-0.08,0.06-0.19,0.05-0.27-0.02L9.6,11.45
						l-0.15,0.08c-0.09,0.05-0.2,0.03-0.26-0.05l-0.11-0.12l-0.15,0.06c-0.09,0.04-0.2,0.01-0.26-0.07l-0.1-0.13l-0.16,0.05
						c-0.1,0.03-0.2-0.01-0.25-0.09l-0.08-0.14l-0.16,0.03c-0.1,0.02-0.19-0.03-0.24-0.11l-0.07-0.15l-0.16,0.02
						c-0.1,0.01-0.19-0.04-0.23-0.13l-0.06-0.15l-0.16,0.01c-0.1,0-0.19-0.05-0.22-0.15l-0.05-0.15l-0.16,0
						c-0.1,0-0.18-0.07-0.21-0.16L6.33,9.94L6.17,9.93c-0.1-0.01-0.18-0.08-0.2-0.17L5.94,9.6L5.78,9.58C5.68,9.57,5.6,9.5,5.59,9.4
						L5.57,9.24L5.41,9.21C5.31,9.2,5.24,9.12,5.23,9.02L5.21,8.86L5.06,8.83c-0.09-0.02-0.16-0.1-0.17-0.2L4.88,8.47L4.73,8.43
						C4.63,8.4,4.57,8.32,4.57,8.22l0-0.16L4.41,8.01C4.39,8,4.37,7.99,4.35,7.98c-0.01,0-0.02,0-0.03,0l-0.12,0L4.18,8.1
						C4.16,8.2,4.06,8.28,3.96,8.28l-0.12,0L3.82,8.39C3.79,8.49,3.7,8.56,3.59,8.56L3.48,8.55L3.45,8.66
						c-0.03,0.1-0.12,0.17-0.23,0.16L3.1,8.81L3.06,8.92c-0.03,0.1-0.13,0.17-0.24,0.15L2.71,9.05L2.67,9.16
						C2.63,9.26,2.53,9.32,2.42,9.3L2.31,9.28L2.26,9.39c-0.04,0.1-0.15,0.15-0.25,0.13L1.9,9.49L1.85,9.59
						C1.8,9.69,1.69,9.74,1.59,9.71L1.47,9.67L1.42,9.78c-0.05,0.09-0.16,0.14-0.26,0.1L1.04,9.84l-0.06,0.1
						c-0.06,0.09-0.17,0.13-0.27,0.08L0.6,9.98l-0.07,0.1c-0.06,0.09-0.18,0.12-0.27,0.07l-0.11-0.05l-0.07,0.09
						c-0.07,0.08-0.18,0.11-0.28,0.05l-0.1-0.06l-0.08,0.09c-0.07,0.08-0.19,0.09-0.28,0.04l-0.1-0.07l-0.08,0.08
						c-0.08,0.08-0.2,0.08-0.28,0.02l-0.09-0.07l-0.09,0.08c-0.08,0.07-0.2,0.07-0.28,0l-0.09-0.08l-0.09,0.07
						c-0.08,0.07-0.2,0.06-0.28-0.02l-0.09-0.08l-0.1,0.07c-0.09,0.06-0.21,0.05-0.28-0.03l-0.08-0.09l-0.1,0.06
						c-0.09,0.05-0.21,0.03-0.28-0.05l-0.08-0.09l-0.11,0.06c-0.09,0.05-0.21,0.02-0.27-0.06L-3.51,10l-0.11,0.05
						c-0.1,0.04-0.21,0.01-0.27-0.08l-0.06-0.1l-0.11,0.04c-0.1,0.04-0.21,0-0.27-0.09l-0.06-0.1L-4.5,9.76
						c-0.1,0.03-0.21-0.01-0.26-0.1l-0.05-0.1l-0.11,0.03c-0.1,0.03-0.21-0.02-0.26-0.12l-0.05-0.11l-0.11,0.03
						c-0.1,0.02-0.21-0.03-0.25-0.13l-0.04-0.11l-0.11,0.02C-5.86,9.2-5.97,9.14-6,9.04l-0.04-0.11l-0.12,0.02
						C-6.26,8.96-6.37,8.9-6.4,8.8l-0.04-0.11L-6.55,8.7c-0.11,0.01-0.2-0.05-0.23-0.16l-0.03-0.11l-0.12,0.01
						c-0.11,0.01-0.2-0.06-0.23-0.17l-0.03-0.11L-7.3,8.18c-0.12,0.01-0.22-0.09-0.23-0.21c-0.01-0.12,0.09-0.22,0.21-0.23
						l0.29-0.01c0.1,0,0.2,0.06,0.22,0.17L-6.78,8l0.11-0.01c0.1-0.01,0.2,0.06,0.22,0.16l0.03,0.1l0.11-0.01
						c0.1-0.01,0.2,0.05,0.23,0.15l0.03,0.11l0.11-0.02c0.1-0.02,0.2,0.04,0.24,0.14l0.04,0.1l0.11-0.02
						c0.1-0.02,0.2,0.03,0.24,0.13l0.04,0.1l0.11-0.03c0.1-0.02,0.2,0.03,0.25,0.12l0.05,0.1l0.11-0.03c0.1-0.03,0.2,0.02,0.25,0.11
						l0.05,0.1l0.1-0.04c0.1-0.03,0.2,0.01,0.26,0.1l0.05,0.09l0.1-0.04c0.09-0.04,0.2,0,0.26,0.08l0.06,0.09l0.1-0.04
						c0.09-0.04,0.2-0.01,0.26,0.07l0.06,0.09l0.1-0.05c0.09-0.05,0.2-0.02,0.27,0.05l0.07,0.08l0.09-0.06
						c0.09-0.05,0.2-0.04,0.27,0.04l0.07,0.08l0.09-0.06c0.08-0.06,0.2-0.05,0.27,0.02l0.08,0.07l0.09-0.07
						c0.08-0.06,0.19-0.06,0.27,0.01l0.08,0.07l0.08-0.07C-1.3,9.76-1.19,9.75-1.1,9.82l0.09,0.06l0.08-0.08
						c0.07-0.07,0.19-0.08,0.27-0.03l0.09,0.06l0.07-0.08c0.07-0.08,0.18-0.09,0.27-0.04l0.09,0.05l0.07-0.08
						c0.06-0.08,0.17-0.1,0.27-0.06l0.1,0.05l0.06-0.09C0.41,9.5,0.51,9.47,0.61,9.51l0.1,0.04l0.06-0.09
						c0.05-0.09,0.16-0.12,0.26-0.09l0.1,0.04l0.05-0.1c0.05-0.09,0.15-0.13,0.25-0.1l0.11,0.03l0.05-0.1
						C1.63,9.05,1.73,9,1.83,9.03l0.11,0.03l0.04-0.1C2.02,8.86,2.12,8.8,2.22,8.82l0.11,0.02l0.04-0.1C2.4,8.64,2.49,8.58,2.6,8.6
						l0.11,0.02l0.03-0.1c0.03-0.1,0.12-0.16,0.23-0.15l0.11,0.01L3.1,8.27c0.03-0.1,0.12-0.16,0.22-0.16l0.11,0.01L3.46,8
						c0.02-0.1,0.11-0.17,0.22-0.17l0.11,0l0.02-0.11c0.02-0.1,0.11-0.17,0.21-0.18l0.15,0l0.08-0.18c0.04-0.09,0.13-0.15,0.23-0.13
						c0.1,0.01,0.17,0.09,0.18,0.19l0.02,0.21L4.85,7.7C4.94,7.73,5,7.81,5,7.9l0,0.15l0.15,0.04C5.23,8.12,5.3,8.2,5.3,8.29
						l0.01,0.15l0.15,0.03c0.09,0.02,0.16,0.1,0.17,0.19l0.02,0.15l0.15,0.03c0.09,0.02,0.16,0.09,0.18,0.18l0.02,0.15l0.15,0.02
						C6.24,9.2,6.31,9.27,6.33,9.36l0.03,0.15l0.15,0.01C6.6,9.53,6.68,9.59,6.7,9.68l0.04,0.15l0.15,0c0.09,0,0.17,0.06,0.2,0.15
						l0.05,0.14l0.15-0.01c0.09,0,0.18,0.05,0.21,0.13l0.06,0.14l0.15-0.02c0.09-0.01,0.18,0.03,0.22,0.12L8,10.61l0.15-0.03
						c0.09-0.02,0.18,0.02,0.23,0.1l0.08,0.13l0.14-0.04c0.09-0.03,0.18,0,0.24,0.08l0.09,0.12l0.14-0.06
						c0.08-0.03,0.18-0.01,0.24,0.05l0.1,0.11L9.53,11c0.08-0.04,0.18-0.03,0.25,0.03l0.11,0.1l0.12-0.08
						c0.07-0.05,0.17-0.05,0.25,0l0.12,0.09l0.11-0.09c0.07-0.06,0.17-0.07,0.25-0.02l0.13,0.07l0.1-0.11
						c0.06-0.07,0.16-0.08,0.24-0.05L11.35,11l0.09-0.12c0.06-0.07,0.15-0.1,0.24-0.07l0.14,0.05l0.08-0.12
						c0.05-0.08,0.14-0.11,0.23-0.09l0.15,0.04l0.07-0.13c0.04-0.08,0.13-0.12,0.22-0.11l0.15,0.02l0.06-0.14
						c0.04-0.08,0.12-0.13,0.22-0.13l0.15,0.01l0.05-0.14c0.03-0.09,0.11-0.14,0.21-0.14l0.15,0l0.04-0.15
						c0.03-0.09,0.11-0.15,0.2-0.15l0.15,0L14,9.48c0.02-0.09,0.1-0.16,0.19-0.16l0.15-0.01l0.03-0.15
						c0.02-0.09,0.09-0.16,0.18-0.17l0.15-0.02l0.02-0.15c0.01-0.09,0.09-0.16,0.18-0.18l0.15-0.03l0.02-0.15
						c0.01-0.09,0.08-0.17,0.17-0.19l0.15-0.03l0.01-0.15c0.01-0.09,0.07-0.17,0.17-0.19l0.15-0.04l0.01-0.15
						c0-0.09,0.07-0.17,0.16-0.2l0.31-0.08c0.11-0.03,0.23,0.04,0.26,0.15c0.03,0.12-0.04,0.23-0.15,0.26l-0.15,0.04l-0.01,0.16
						c0,0.1-0.07,0.18-0.17,0.2l-0.16,0.04l-0.01,0.16c-0.01,0.1-0.08,0.18-0.17,0.19l-0.16,0.03l-0.02,0.16
						C15.47,8.91,15.39,8.99,15.3,9l-0.16,0.03l-0.02,0.16c-0.01,0.1-0.09,0.17-0.19,0.18l-0.16,0.02l-0.03,0.16
						c-0.02,0.09-0.1,0.17-0.19,0.17l-0.16,0.01l-0.04,0.16c-0.02,0.09-0.11,0.16-0.2,0.16l-0.16,0l-0.05,0.16
						c-0.03,0.09-0.12,0.16-0.21,0.15l-0.16,0l-0.06,0.15c-0.03,0.09-0.12,0.15-0.22,0.14l-0.16-0.01l-0.07,0.15
						c-0.04,0.09-0.14,0.14-0.23,0.12l-0.16-0.03l-0.08,0.14c-0.05,0.09-0.15,0.13-0.24,0.11l-0.16-0.04l-0.09,0.14
						c-0.05,0.08-0.16,0.12-0.25,0.09l-0.16-0.05l-0.1,0.13c-0.06,0.08-0.17,0.1-0.26,0.06l-0.15-0.07l-0.11,0.12
						c-0.07,0.07-0.18,0.09-0.26,0.04l-0.14-0.08l-0.13,0.11C10.49,11.61,10.44,11.62,10.39,11.62z"/>
				</g>
				<g>
					<path class="st0" d="M0.39,12.96c-0.42,0-0.82-0.46-0.93-1.11c-0.05-0.31-0.03-0.62,0.06-0.87c0.11-0.28,0.3-0.47,0.54-0.51
						c0.24-0.04,0.48,0.07,0.68,0.3c0.17,0.2,0.29,0.49,0.35,0.8c0.12,0.69-0.14,1.3-0.6,1.38C0.45,12.96,0.42,12.96,0.39,12.96z
						 M0.16,10.9c-0.01,0-0.02,0-0.02,0c-0.08,0.01-0.16,0.1-0.21,0.24c-0.07,0.18-0.08,0.41-0.04,0.64
						c0.08,0.47,0.35,0.78,0.53,0.75c0.18-0.03,0.33-0.41,0.25-0.88c0,0,0,0,0,0c-0.04-0.23-0.13-0.45-0.25-0.59
						C0.32,10.95,0.23,10.9,0.16,10.9z"/>
				</g>
				<g>
					<path class="st0" d="M1.96,12.24c-0.36,0-0.77-0.28-1.04-0.74c-0.36-0.6-0.34-1.26,0.06-1.5c0.4-0.24,0.99,0.05,1.35,0.66l0,0
						c0.36,0.61,0.34,1.27-0.06,1.5C2.18,12.22,2.08,12.24,1.96,12.24z M1.3,10.35c-0.04,0-0.07,0.01-0.09,0.02
						c-0.16,0.1-0.15,0.5,0.09,0.91c0.24,0.4,0.6,0.6,0.76,0.51c0.16-0.09,0.15-0.5-0.09-0.91l0,0C1.76,10.54,1.48,10.35,1.3,10.35z
						"/>
				</g>
				<g>
					<path class="st0" d="M3.18,11.35c-0.34,0-0.74-0.23-1.04-0.63c-0.19-0.25-0.31-0.54-0.34-0.8c-0.04-0.3,0.05-0.56,0.24-0.7
						c0.37-0.28,0.99-0.05,1.42,0.51c0,0,0,0,0,0c0.42,0.56,0.47,1.22,0.1,1.5C3.45,11.31,3.32,11.35,3.18,11.35z M2.42,9.53
						c-0.05,0-0.09,0.01-0.12,0.04c-0.06,0.05-0.09,0.16-0.07,0.3c0.02,0.19,0.12,0.4,0.26,0.59c0.28,0.38,0.66,0.53,0.81,0.42
						c0.15-0.11,0.1-0.52-0.18-0.9C2.89,9.69,2.61,9.53,2.42,9.53z"/>
				</g>
				<g>
					<path class="st0" d="M10.61,14.6c-0.01,0-0.02,0-0.03,0c-0.24-0.01-0.45-0.18-0.59-0.45c-0.12-0.24-0.18-0.54-0.16-0.86
						c0.02-0.32,0.11-0.61,0.26-0.83c0.17-0.25,0.4-0.39,0.64-0.37c0.24,0.01,0.45,0.18,0.59,0.45c0.12,0.24,0.18,0.54,0.16,0.86
						c-0.02,0.32-0.11,0.61-0.26,0.83C11.05,14.47,10.83,14.6,10.61,14.6z M10.69,12.52c-0.08,0-0.17,0.07-0.25,0.18
						c-0.1,0.16-0.17,0.38-0.19,0.62c-0.01,0.24,0.03,0.47,0.11,0.64c0.07,0.13,0.15,0.21,0.23,0.21c0.08,0,0.17-0.06,0.25-0.18
						c0.1-0.16,0.17-0.38,0.19-0.62c0.01-0.24-0.03-0.47-0.11-0.64C10.86,12.6,10.78,12.53,10.69,12.52
						C10.69,12.52,10.69,12.52,10.69,12.52z"/>
				</g>
				<g>
					<path class="st0" d="M12.38,14.02c-0.18,0-0.36-0.08-0.53-0.22c-0.2-0.17-0.37-0.43-0.47-0.73l0,0
						c-0.23-0.67-0.06-1.31,0.37-1.46c0.44-0.15,0.96,0.26,1.19,0.92c0.23,0.67,0.06,1.31-0.37,1.46
						C12.5,14.01,12.44,14.02,12.38,14.02z M11.79,12.92c0.08,0.22,0.2,0.42,0.34,0.55c0.11,0.1,0.22,0.13,0.29,0.11
						c0.17-0.06,0.26-0.46,0.1-0.91c-0.15-0.45-0.46-0.71-0.64-0.65C11.71,12.07,11.63,12.48,11.79,12.92L11.79,12.92z"/>
				</g>
				<g>
					<path class="st0" d="M13.82,13.05c-0.14,0-0.28-0.04-0.43-0.12c-0.23-0.13-0.45-0.35-0.61-0.62c-0.36-0.6-0.34-1.26,0.06-1.5
						c0.2-0.12,0.47-0.11,0.74,0.04c0.23,0.13,0.45,0.35,0.61,0.62c0.36,0.6,0.34,1.26-0.06,1.5
						C14.04,13.02,13.94,13.05,13.82,13.05z M13.16,11.16c-0.04,0-0.07,0.01-0.09,0.02c-0.16,0.1-0.15,0.5,0.09,0.91l0,0
						c0.12,0.2,0.29,0.37,0.45,0.46c0.13,0.07,0.24,0.09,0.31,0.04c0.16-0.1,0.15-0.5-0.09-0.91c-0.12-0.2-0.29-0.37-0.45-0.46
						C13.29,11.18,13.22,11.16,13.16,11.16z"/>
				</g>
				<g>
					<path class="st0" d="M14.95,11.75c-0.37,0-0.78-0.32-1.03-0.83l0,0c-0.31-0.63-0.22-1.29,0.19-1.49
						c0.21-0.1,0.48-0.07,0.73,0.1c0.22,0.15,0.42,0.39,0.56,0.67c0.14,0.28,0.2,0.59,0.18,0.85c-0.02,0.3-0.16,0.54-0.37,0.64
						C15.13,11.74,15.04,11.75,14.95,11.75z M14.31,10.74c0.21,0.43,0.55,0.65,0.71,0.57c0.07-0.04,0.12-0.14,0.13-0.28
						c0.01-0.19-0.04-0.42-0.14-0.63c-0.1-0.21-0.25-0.4-0.41-0.5c-0.12-0.08-0.23-0.11-0.3-0.07C14.13,9.9,14.1,10.31,14.31,10.74
						L14.31,10.74z"/>
				</g>
				<g>
					<path class="st0" d="M16.06,10.84c-0.4,0-0.81-0.41-0.97-1.02l0,0C15,9.51,15,9.2,15.07,8.95c0.08-0.29,0.26-0.5,0.49-0.56
						c0.23-0.06,0.49,0.02,0.7,0.24c0.19,0.19,0.34,0.46,0.42,0.76c0.08,0.3,0.09,0.61,0.02,0.87c-0.08,0.29-0.26,0.5-0.49,0.56
						C16.16,10.83,16.11,10.84,16.06,10.84z M15.5,9.7c0.12,0.46,0.42,0.74,0.59,0.69c0.08-0.02,0.15-0.11,0.18-0.25
						c0.05-0.18,0.04-0.42-0.02-0.64c-0.06-0.23-0.17-0.44-0.31-0.57c-0.1-0.1-0.21-0.15-0.29-0.13c-0.08,0.02-0.14,0.11-0.18,0.25
						C15.43,9.24,15.44,9.48,15.5,9.7L15.5,9.7z"/>
				</g>
				<g>
					<path class="st0" d="M17.36,11.55c-0.09,0-0.17-0.02-0.24-0.05c-0.22-0.1-0.36-0.33-0.39-0.63c-0.03-0.26,0.03-0.57,0.16-0.86
						c0.13-0.29,0.32-0.53,0.54-0.68c0.25-0.18,0.51-0.22,0.73-0.12c0.42,0.19,0.52,0.84,0.23,1.49c-0.13,0.29-0.32,0.53-0.54,0.68
						C17.69,11.49,17.52,11.55,17.36,11.55z M17.91,9.58c-0.07,0-0.15,0.03-0.24,0.09c-0.15,0.11-0.3,0.29-0.39,0.51
						c-0.1,0.22-0.14,0.45-0.12,0.63c0.01,0.14,0.07,0.25,0.14,0.28c0.07,0.03,0.18,0,0.3-0.08c0.15-0.11,0.3-0.29,0.39-0.51
						c0.19-0.43,0.15-0.84-0.02-0.91C17.96,9.59,17.94,9.58,17.91,9.58z"/>
				</g>
				<g>
					<path class="st0" d="M18.8,12.44c-0.08,0-0.15-0.01-0.22-0.04c-0.22-0.09-0.37-0.31-0.42-0.61c-0.04-0.26,0.01-0.57,0.12-0.86
						c0.12-0.29,0.3-0.54,0.51-0.71c0.24-0.19,0.5-0.24,0.73-0.15c0.43,0.17,0.56,0.82,0.29,1.47c-0.12,0.29-0.3,0.54-0.51,0.71
						C19.14,12.38,18.97,12.44,18.8,12.44z M19.3,10.46c-0.07,0-0.15,0.04-0.24,0.1c-0.15,0.11-0.28,0.31-0.37,0.53v0
						c-0.09,0.22-0.12,0.45-0.1,0.64c0.02,0.14,0.08,0.24,0.15,0.27c0.07,0.03,0.18,0,0.3-0.09c0.15-0.11,0.28-0.31,0.37-0.53
						c0.18-0.44,0.12-0.84-0.05-0.91C19.35,10.46,19.33,10.46,19.3,10.46z M18.49,11.01L18.49,11.01L18.49,11.01z"/>
				</g>
				<g>
					<path class="st0" d="M20.19,13c-0.08,0-0.15-0.01-0.22-0.04c-0.43-0.17-0.56-0.82-0.29-1.47l0,0c0.26-0.65,0.81-1.03,1.24-0.86
						c0.43,0.17,0.56,0.82,0.29,1.47c-0.12,0.29-0.3,0.54-0.51,0.71C20.53,12.94,20.35,13,20.19,13z M20.07,11.65
						c-0.18,0.44-0.12,0.84,0.05,0.91c0.08,0.03,0.18,0,0.3-0.09c0.15-0.11,0.28-0.31,0.37-0.53c0.18-0.44,0.12-0.84-0.05-0.91
						C20.58,10.96,20.25,11.21,20.07,11.65L20.07,11.65z"/>
				</g>
				<g>
					<path class="st0" d="M8.98,14.31c-0.04,0-0.07,0-0.11-0.01c-0.45-0.09-0.7-0.7-0.57-1.39l0,0c0.06-0.31,0.19-0.59,0.36-0.79
						c0.2-0.23,0.45-0.33,0.68-0.29c0.23,0.04,0.43,0.24,0.53,0.52c0.09,0.25,0.1,0.56,0.04,0.87C9.8,13.85,9.4,14.31,8.98,14.31z
						 M8.73,12.99c-0.09,0.46,0.05,0.85,0.23,0.88c0.18,0.04,0.45-0.27,0.54-0.74c0.04-0.23,0.04-0.47-0.03-0.64
						c-0.05-0.14-0.12-0.22-0.2-0.24c-0.08-0.01-0.18,0.04-0.28,0.15C8.87,12.54,8.77,12.75,8.73,12.99L8.73,12.99z"/>
				</g>
				<g>
					<path class="st0" d="M7.43,13.56c-0.12,0-0.23-0.03-0.32-0.09c-0.39-0.25-0.4-0.91-0.03-1.5v0c0.37-0.6,0.98-0.87,1.37-0.63
						c0.2,0.13,0.31,0.37,0.3,0.68c-0.01,0.27-0.11,0.56-0.27,0.83c-0.17,0.27-0.39,0.48-0.62,0.61C7.7,13.52,7.56,13.56,7.43,13.56
						z M7.44,12.19C7.19,12.59,7.17,13,7.33,13.1c0.07,0.04,0.18,0.03,0.31-0.04c0.17-0.09,0.33-0.25,0.46-0.45
						c0.13-0.2,0.2-0.42,0.21-0.61c0-0.15-0.03-0.25-0.1-0.3C8.05,11.6,7.69,11.79,7.44,12.19L7.44,12.19z"/>
				</g>
				<g>
					<path class="st0" d="M6.22,12.63c-0.14,0-0.28-0.04-0.39-0.13c-0.19-0.15-0.27-0.4-0.23-0.7c0.04-0.26,0.16-0.54,0.36-0.79l0,0
						c0.2-0.25,0.44-0.44,0.69-0.54c0.28-0.11,0.55-0.09,0.74,0.06c0.19,0.15,0.27,0.4,0.23,0.7c-0.04,0.26-0.16,0.54-0.36,0.79
						C6.96,12.41,6.56,12.63,6.22,12.63z M7,10.83c-0.05,0-0.12,0.01-0.19,0.04c-0.17,0.07-0.36,0.22-0.5,0.4c0,0,0,0,0,0
						c-0.15,0.19-0.25,0.4-0.27,0.59c-0.02,0.14,0.01,0.26,0.07,0.31c0.15,0.11,0.53-0.04,0.82-0.41c0.15-0.19,0.25-0.4,0.27-0.59
						c0.02-0.14-0.01-0.26-0.07-0.31C7.09,10.85,7.05,10.83,7,10.83z M6.14,11.14L6.14,11.14L6.14,11.14z"/>
				</g>
				<g>
					<path class="st0" d="M4.2,10.8c-0.03,0-0.05,0-0.08-0.01c-0.24-0.03-0.44-0.21-0.56-0.49c-0.1-0.25-0.14-0.55-0.09-0.87
						c0.04-0.31,0.15-0.6,0.32-0.81C3.98,8.39,4.23,8.27,4.46,8.3C4.7,8.33,4.9,8.51,5.02,8.79c0.1,0.25,0.14,0.55,0.09,0.87
						C5.02,10.32,4.63,10.8,4.2,10.8z M4.39,8.73c-0.08,0-0.17,0.06-0.25,0.17c-0.12,0.15-0.2,0.37-0.23,0.6
						C3.87,9.73,3.9,9.97,3.97,10.14c0.06,0.13,0.13,0.22,0.21,0.23c0.18,0.02,0.43-0.3,0.5-0.77c0.03-0.24,0.01-0.47-0.06-0.64
						C4.56,8.83,4.48,8.74,4.4,8.73C4.4,8.73,4.39,8.73,4.39,8.73z"/>
				</g>
				<g>
					<path class="st0" d="M5.13,11.53c-0.24,0-0.44-0.08-0.57-0.25c-0.28-0.37-0.05-0.99,0.51-1.42c0.56-0.42,1.22-0.47,1.5-0.1
						c0.28,0.37,0.05,0.99-0.51,1.42l0,0C5.75,11.42,5.41,11.53,5.13,11.53z M6,9.95c-0.18,0-0.43,0.08-0.67,0.27
						c-0.38,0.28-0.54,0.66-0.42,0.81c0.11,0.15,0.52,0.1,0.89-0.18l0,0c0.38-0.28,0.54-0.66,0.42-0.81C6.18,9.98,6.1,9.95,6,9.95z
						 M5.93,11.01L5.93,11.01L5.93,11.01z"/>
				</g>
				<g>
					<path class="st0" d="M0.63,0.31c-0.1,0-0.21-0.02-0.32-0.07C0.08,0.15-0.13-0.03-0.3-0.25c-0.38-0.5-0.41-1.1-0.08-1.35
						c0.34-0.25,0.9-0.06,1.28,0.45c0.17,0.22,0.28,0.48,0.3,0.71c0.03,0.27-0.05,0.5-0.23,0.64l0,0C0.88,0.27,0.76,0.31,0.63,0.31z
						 M-0.02-1.28c-0.04,0-0.07,0.01-0.09,0.02c-0.1,0.08-0.09,0.41,0.16,0.74c0.12,0.16,0.28,0.29,0.42,0.35
						c0.11,0.04,0.2,0.05,0.25,0.01l0,0c0.05-0.04,0.07-0.13,0.06-0.24c-0.02-0.16-0.1-0.34-0.22-0.5C0.36-1.16,0.12-1.28-0.02-1.28
						z"/>
				</g>
				<g>
					<path class="st0" d="M1.83,1.93c-0.09,0-0.18-0.02-0.27-0.05C1.33,1.81,1.11,1.65,0.92,1.44S0.61,0.98,0.56,0.75
						C0.51,0.48,0.58,0.24,0.74,0.1C0.91-0.05,1.15-0.08,1.41,0c0.23,0.07,0.45,0.23,0.64,0.44C2.23,0.66,2.36,0.9,2.4,1.13
						C2.46,1.4,2.39,1.64,2.23,1.78l0,0C2.12,1.88,1.98,1.93,1.83,1.93z M1.14,0.39c-0.05,0-0.09,0.01-0.11,0.03
						C0.98,0.46,0.97,0.56,0.99,0.67C1.02,0.83,1.11,1,1.24,1.15c0.13,0.15,0.3,0.27,0.45,0.32C1.8,1.5,1.9,1.5,1.94,1.46
						c0,0,0,0,0,0C1.99,1.42,2,1.33,1.98,1.21C1.95,1.06,1.86,0.88,1.72,0.73c-0.13-0.15-0.3-0.27-0.45-0.32
						C1.22,0.4,1.18,0.39,1.14,0.39z"/>
				</g>
				<g>
					<path class="st0" d="M3.29,3.36C3.02,3.36,2.71,3.23,2.43,3C2.22,2.81,2.06,2.59,1.98,2.37C1.89,2.11,1.92,1.86,2.06,1.7
						c0.27-0.32,0.86-0.25,1.34,0.16c0.21,0.18,0.37,0.41,0.45,0.63c0.09,0.26,0.06,0.5-0.08,0.67C3.66,3.29,3.49,3.36,3.29,3.36z
						 M2.55,1.92c-0.07,0-0.13,0.02-0.16,0.05c-0.04,0.05-0.04,0.14,0,0.25c0.05,0.15,0.17,0.31,0.32,0.44
						c0.32,0.27,0.65,0.3,0.73,0.21l0,0c0.04-0.05,0.04-0.14,0-0.25C3.4,2.47,3.28,2.31,3.13,2.18C2.91,2,2.7,1.92,2.55,1.92z"/>
				</g>
				<g>
					<path class="st0" d="M5,4.52c-0.24,0-0.5-0.08-0.76-0.24C3.7,3.95,3.46,3.41,3.68,3.05C3.91,2.69,4.5,2.67,5.03,3.01
						c0.53,0.33,0.78,0.88,0.56,1.23l0,0C5.47,4.43,5.25,4.52,5,4.52z M5.41,4.13L5.41,4.13L5.41,4.13z M4.27,3.2
						c-0.11,0-0.19,0.03-0.22,0.08C3.98,3.39,4.11,3.69,4.47,3.91c0.36,0.22,0.69,0.21,0.76,0.1C5.29,3.9,5.16,3.6,4.8,3.37
						C4.6,3.25,4.41,3.2,4.27,3.2z"/>
				</g>
				<g>
					<path class="st0" d="M6.83,5.28c-0.17,0-0.36-0.03-0.54-0.1C6.03,5.09,5.8,4.93,5.65,4.75C5.47,4.54,5.41,4.3,5.49,4.09
						c0.07-0.21,0.27-0.35,0.54-0.4C6.27,3.64,6.54,3.67,6.8,3.77C7.4,3.99,7.75,4.46,7.6,4.86c0,0,0,0,0,0
						C7.5,5.13,7.2,5.28,6.83,5.28z M6.25,4.1c-0.05,0-0.1,0-0.14,0.01C6,4.13,5.92,4.18,5.9,4.24C5.87,4.3,5.91,4.39,5.98,4.47
						c0.1,0.12,0.27,0.23,0.46,0.3c0.4,0.14,0.71,0.06,0.76-0.06c0.04-0.12-0.14-0.39-0.54-0.54C6.52,4.13,6.38,4.1,6.25,4.1z
						 M7.4,4.79L7.4,4.79L7.4,4.79z"/>
				</g>
				<g>
					<path class="st0" d="M8.59,5.37c-0.25,0-0.48-0.05-0.67-0.15C7.68,5.1,7.54,4.9,7.53,4.68C7.51,4.46,7.64,4.25,7.87,4.1
						c0.2-0.13,0.46-0.21,0.74-0.23s0.55,0.04,0.76,0.15c0.24,0.13,0.39,0.33,0.4,0.54c0.01,0.22-0.11,0.43-0.34,0.58
						c-0.2,0.13-0.46,0.21-0.74,0.23C8.66,5.37,8.63,5.37,8.59,5.37z M8.7,4.3c-0.02,0-0.05,0-0.07,0c-0.2,0.01-0.39,0.07-0.52,0.15
						c-0.1,0.06-0.15,0.14-0.15,0.2c0,0.06,0.07,0.13,0.17,0.18c0.14,0.07,0.34,0.11,0.54,0.1c0.2-0.01,0.39-0.07,0.52-0.15
						c0.1-0.06,0.15-0.14,0.15-0.2v0c0-0.06-0.07-0.13-0.17-0.18C9.04,4.34,8.88,4.3,8.7,4.3z"/>
				</g>
				<g>
					<path class="st0" d="M17.6,2.72c-0.27,0-0.58-0.12-0.86-0.36c-0.21-0.18-0.37-0.41-0.45-0.63c-0.09-0.26-0.06-0.5,0.08-0.67
						c0.1-0.12,0.24-0.19,0.42-0.2c0.29-0.02,0.63,0.11,0.92,0.36c0.21,0.18,0.37,0.41,0.45,0.63c0.09,0.26,0.06,0.5-0.08,0.67l0,0
						C17.97,2.65,17.8,2.72,17.6,2.72z M17.92,2.38L17.92,2.38L17.92,2.38z M16.86,1.29c-0.01,0-0.02,0-0.03,0
						c-0.04,0-0.09,0.01-0.12,0.05c-0.04,0.05-0.04,0.14,0,0.25c0.05,0.15,0.17,0.31,0.32,0.44c0.32,0.27,0.65,0.31,0.73,0.21l0,0
						c0.04-0.05,0.04-0.14,0-0.25c-0.05-0.15-0.17-0.31-0.32-0.44C17.25,1.38,17.03,1.29,16.86,1.29z"/>
				</g>
				<g>
					<path class="st0" d="M19.56,4.29c-0.27,0-0.58-0.12-0.86-0.36c-0.48-0.41-0.64-0.98-0.37-1.3c0.27-0.32,0.86-0.25,1.34,0.16
						c0.21,0.18,0.37,0.41,0.45,0.63c0.09,0.26,0.06,0.5-0.08,0.67C19.93,4.22,19.75,4.29,19.56,4.29z M18.82,2.86
						c-0.07,0-0.13,0.02-0.16,0.05c-0.08,0.1,0,0.42,0.32,0.69c0.32,0.27,0.65,0.31,0.73,0.21l0,0c0.04-0.05,0.04-0.14,0-0.25
						c-0.05-0.15-0.17-0.31-0.32-0.44C19.18,2.93,18.96,2.86,18.82,2.86z"/>
				</g>
				<g>
					<path class="st0" d="M21.28,5.44c-0.01,0-0.02,0-0.03,0c-0.24-0.01-0.5-0.09-0.74-0.24c-0.24-0.15-0.43-0.35-0.54-0.56
						c-0.13-0.24-0.13-0.49-0.02-0.68c0.12-0.19,0.34-0.29,0.61-0.28c0.24,0.01,0.5,0.09,0.74,0.24c0.53,0.33,0.78,0.88,0.56,1.23
						l0,0C21.75,5.33,21.54,5.44,21.28,5.44z M21.68,5.04L21.68,5.04L21.68,5.04z M20.55,4.11c-0.11,0-0.19,0.03-0.22,0.08
						c-0.03,0.05-0.02,0.14,0.03,0.25c0.07,0.14,0.21,0.28,0.38,0.39C20.91,4.94,21.1,5,21.26,5c0.11,0,0.2-0.03,0.24-0.08
						c0.07-0.11-0.06-0.41-0.42-0.64c-0.17-0.11-0.36-0.17-0.52-0.17C20.56,4.11,20.55,4.11,20.55,4.11z"/>
				</g>
				<g>
					<path class="st0" d="M10.25,4.93c-0.06,0-0.11,0-0.17-0.01C9.81,4.88,9.61,4.74,9.53,4.54C9.37,4.15,9.7,3.65,10.28,3.41
						c0.26-0.11,0.53-0.15,0.77-0.11c0.27,0.04,0.48,0.18,0.56,0.38c0.16,0.39-0.17,0.88-0.75,1.12
						C10.65,4.89,10.44,4.93,10.25,4.93z M10.88,3.72c-0.14,0-0.29,0.03-0.44,0.09c-0.39,0.16-0.57,0.44-0.52,0.56
						c0.02,0.06,0.11,0.1,0.22,0.12c0.16,0.02,0.35-0.01,0.54-0.09c0.39-0.16,0.57-0.44,0.52-0.56c-0.02-0.06-0.11-0.1-0.22-0.12
						C10.95,3.72,10.92,3.72,10.88,3.72z"/>
				</g>
				<g>
					<path class="st0" d="M11.65,3.73c-0.13,0-0.23-0.04-0.31-0.13c-0.2-0.22-0.08-0.61,0.28-0.92c0.36-0.31,0.76-0.38,0.95-0.16v0
						c0.2,0.22,0.08,0.61-0.28,0.92C12.07,3.63,11.84,3.73,11.65,3.73z M12.22,2.82C12.15,2.83,12.03,2.88,11.9,3
						c-0.13,0.12-0.2,0.23-0.22,0.29c0.07-0.01,0.18-0.06,0.32-0.18C12.14,3,12.2,2.88,12.22,2.82z M12.27,2.82L12.27,2.82
						L12.27,2.82z"/>
				</g>
				<g>
					<path class="st0" d="M12.88,2.92c-0.01,0-0.02,0-0.03,0c-0.11-0.01-0.21-0.05-0.28-0.13c-0.11-0.12-0.12-0.3-0.04-0.5
						c0.06-0.15,0.17-0.3,0.32-0.43c0.36-0.31,0.76-0.38,0.95-0.16c0.07,0.08,0.1,0.18,0.09,0.29c-0.01,0.2-0.15,0.44-0.37,0.63
						C13.31,2.82,13.07,2.92,12.88,2.92z M13.45,2.01c-0.07,0.01-0.18,0.06-0.32,0.18c-0.13,0.12-0.2,0.23-0.22,0.29
						c0.07-0.01,0.18-0.06,0.32-0.18C13.36,2.19,13.42,2.08,13.45,2.01z M13.49,2.01L13.49,2.01L13.49,2.01z"/>
				</g>
				<g>
					<path class="st0" d="M13.8,2c-0.13,0-0.23-0.04-0.31-0.13c-0.2-0.22-0.08-0.61,0.28-0.92c0.35-0.31,0.76-0.38,0.95-0.16
						c0,0,0,0,0,0c0.2,0.22,0.08,0.61-0.28,0.92C14.22,1.9,13.99,2,13.8,2z M14.37,1.09c-0.07,0.01-0.18,0.06-0.32,0.18
						c-0.13,0.12-0.2,0.23-0.22,0.29c0.07-0.01,0.18-0.06,0.32-0.18C14.28,1.26,14.35,1.15,14.37,1.09z M14.41,1.09L14.41,1.09
						L14.41,1.09z"/>
				</g>
				<g>
					<path class="st0" d="M14.74,1.09c-0.01,0-0.02,0-0.03,0c-0.11-0.01-0.21-0.05-0.28-0.13c-0.2-0.22-0.08-0.61,0.28-0.92
						c0.36-0.31,0.76-0.38,0.95-0.16c0,0,0,0,0,0c0.11,0.12,0.12,0.3,0.04,0.5c-0.06,0.15-0.17,0.3-0.32,0.43
						C15.17,0.98,14.94,1.09,14.74,1.09z M15.31,0.18c-0.07,0.01-0.18,0.06-0.32,0.18c-0.13,0.12-0.2,0.23-0.22,0.29
						c0.07-0.01,0.18-0.06,0.32-0.18C15.23,0.36,15.29,0.24,15.31,0.18z M15.36,0.18L15.36,0.18L15.36,0.18z"/>
				</g>
				<g>
					<path class="st0" d="M25.34,8c-2.2,0-4.57-1.01-6.9-2.95c-1.48-1.23-2.51-2.46-2.91-2.96c-2.99,3.8-6.03,5.54-9.02,5.17
						C4.23,6.98,1.94,5.41-0.09,2.73c-1.52-2.01-2.38-3.97-2.39-3.99c-0.05-0.11,0-0.24,0.11-0.28c0.11-0.05,0.24,0,0.28,0.11
						c0.03,0.08,3.38,7.61,8.66,8.26c2.89,0.36,5.84-1.4,8.79-5.22c0.04-0.05,0.11-0.08,0.17-0.08c0.07,0,0.13,0.03,0.17,0.09
						c0.05,0.06,4.69,6.28,10.05,5.94c2.97-0.19,5.62-2.35,7.89-6.41c0.03-0.06,0.09-0.1,0.15-0.11c0.06-0.01,0.13,0,0.18,0.05
						C34,1.1,36.31,2.98,38.1,2.51c0.74-0.19,1.31-0.78,1.68-1.73c0.04-0.11,0.17-0.17,0.28-0.12c0.11,0.04,0.17,0.17,0.12,0.28
						c-0.42,1.09-1.09,1.76-1.97,1.99c-1.7,0.44-3.67-0.89-4.31-1.36c-2.32,4.06-5.05,6.22-8.12,6.41C25.64,7.99,25.49,8,25.34,8z"
						/>
				</g>
				<g>
					<g>
						<path class="st0" d="M-1.71-1.75c0.46,0.13,0.31,0.79,0.29,1.14c-0.02,0.32,0.04,0.77,0.4,0.89c0.22,0.08,0.47-0.07,0.67,0.04
							c0.18,0.1,0.27,0.32,0.32,0.51c0.12,0.4,0.05,0.82,0.17,1.23c0.1,0.32,0.31,0.62,0.67,0.64C1.08,2.71,1.35,2.49,1.6,2.56
							C1.81,2.63,1.93,2.85,2,3.03c0.22,0.55,0.16,1.87,1.08,1.8c0.23-0.02,0.38-0.17,0.57-0.27c0.29-0.16,0.55-0.03,0.78,0.17
							c0.36,0.34,0.54,0.81,0.9,1.15C5.6,6.14,5.99,6.36,6.36,6.21C6.57,6.13,6.68,5.95,6.83,5.8c0.14-0.14,0.31-0.2,0.5-0.19
							c0.64,0,1.34,0.52,1.98,0.24c0.16-0.07,0.25-0.19,0.36-0.32c0.18-0.21,0.41-0.43,0.65-0.58c0.24-0.15,0.49-0.06,0.75-0.03
							c0.2,0.02,0.4,0.01,0.58-0.08c0.36-0.16,0.44-0.56,0.51-0.91c0.04-0.2,0.08-0.41,0.18-0.6c0.13-0.25,0.34-0.34,0.61-0.38
							c0.41-0.05,0.89-0.05,1.01-0.54c0.07-0.29,0.11-0.52,0.34-0.73c0.23-0.21,0.55-0.31,0.85-0.23c0.04,0.01,0.14,0.02,0.16-0.04
							c0.05-0.15,0.1-0.3,0.16-0.45c0.04-0.11,0.08-0.38,0.19-0.44c0.13-0.07,0.34,0.13,0.41,0.22c0.12,0.14,0.17,0.31,0.2,0.49
							c0.07,0.54-0.12,1.14,0.32,1.57C16.7,2.92,16.85,3,17.02,3.01c0.24,0.02,0.41-0.11,0.61-0.23c0.38-0.22,0.58,0.2,0.6,0.52
							c0.02,0.29-0.03,0.58,0.07,0.87C18.44,4.58,18.81,4.9,19.23,5c0.41,0.1,1.01-0.1,1.34,0.21c0.17,0.16,0.24,0.45,0.36,0.66
							c0.1,0.17,0.2,0.29,0.38,0.36c0.17,0.06,0.37,0.08,0.55,0.04c0.09-0.02,0.16-0.05,0.24-0.09c0.25-0.1,0.47-0.04,0.7,0.08
							c0.48,0.24,0.94,0.49,1.49,0.44c0.21-0.02,0.43-0.07,0.62-0.15c0.25-0.11,0.4-0.37,0.65-0.46c0.23-0.08,0.47,0.07,0.67,0.18
							c0.19,0.11,0.38,0.22,0.59,0.28c0.32,0.08,0.65-0.01,0.86-0.27c0.24-0.3,0.33-0.69,0.53-1.01c0.25-0.41,0.63-0.5,1.09-0.51
							c0.36-0.01,0.78,0.03,1.11-0.15c0.42-0.23,0.34-0.67,0.45-1.07c0.15-0.56,0.89-0.45,1.3-0.71c0.3-0.2,0.49-0.53,0.63-0.85
							c0.28-0.66,0.42-1.75,1.24-1.96C33.98,0.01,33.93,0,33.88,0c0.37,0.39,0.39,0.98,0.73,1.39c0.4,0.48,0.95,0.21,1.43,0.06
							c0.73-0.24,0.78,0.59,1.22,0.94c0.41,0.32,0.85,0.04,1.07-0.33c0.18-0.29,0.28-0.63,0.5-0.89c0.28-0.34,0.7-0.54,1.14-0.56
							c0.13,0,0.13-0.13,0-0.13c-0.58,0.02-1.14,0.31-1.46,0.81c-0.2,0.31-0.56,1.48-1.1,1.01c-0.34-0.29-0.4-0.86-0.88-1
							c-0.55-0.16-1.19,0.54-1.65,0.11c-0.2-0.19-0.3-0.48-0.39-0.73c-0.1-0.26-0.21-0.53-0.41-0.73c-0.04-0.04-0.1-0.03-0.15-0.02
							c-0.7,0.18-0.93,0.92-1.15,1.53c-0.12,0.35-0.25,0.71-0.47,1.01c-0.1,0.13-0.22,0.25-0.37,0.33
							c-0.21,0.12-0.46,0.14-0.69,0.21c-0.17,0.05-0.33,0.12-0.45,0.25c-0.16,0.18-0.17,0.42-0.2,0.65
							c-0.03,0.24-0.09,0.48-0.3,0.61c-0.19,0.11-0.42,0.12-0.63,0.13c-0.39,0.01-0.8-0.02-1.16,0.15
							c-0.36,0.16-0.53,0.51-0.68,0.85c-0.14,0.32-0.31,0.82-0.73,0.83c-0.44,0.01-0.78-0.41-1.2-0.5
							c-0.17-0.03-0.34-0.02-0.49,0.06c-0.25,0.12-0.4,0.37-0.67,0.46c-0.29,0.1-0.59,0.14-0.89,0.07c-0.34-0.08-0.62-0.26-0.93-0.4
							c-0.19-0.09-0.4-0.15-0.61-0.14c-0.26,0.01-0.46,0.2-0.73,0.15c-0.54-0.09-0.48-0.82-0.88-1.08
							c-0.36-0.24-0.84-0.13-1.24-0.17c-0.61-0.07-0.99-0.63-0.99-1.21c0-0.28,0.03-0.58-0.12-0.83c-0.11-0.18-0.29-0.3-0.5-0.29
							c-0.29,0.01-0.47,0.31-0.75,0.31c-0.37,0-0.55-0.5-0.57-0.79c-0.04-0.57,0.12-1.28-0.48-1.61c-0.14-0.08-0.43-0.15-0.57-0.03
							c-0.09,0.07-0.12,0.29-0.16,0.4c-0.06,0.17-0.12,0.35-0.18,0.52c0.05-0.01,0.11-0.02,0.16-0.04c-0.37-0.1-0.76-0.02-1.06,0.21
							c-0.16,0.12-0.29,0.29-0.37,0.48c-0.09,0.24-0.05,0.54-0.3,0.69c-0.35,0.21-0.82,0.04-1.17,0.29
							c-0.28,0.2-0.35,0.56-0.41,0.88c-0.08,0.41-0.18,0.89-0.68,0.92c-0.22,0.01-0.44-0.06-0.66-0.06c-0.19,0-0.36,0.06-0.52,0.17
							C9.88,5.07,9.67,5.26,9.49,5.47C9.36,5.62,9.26,5.75,9.05,5.79C8.71,5.85,8.33,5.68,7.99,5.59C7.69,5.51,7.35,5.44,7.04,5.52
							c-0.15,0.04-0.29,0.11-0.4,0.22c-0.2,0.2-0.34,0.47-0.68,0.37c-0.9-0.26-0.99-1.72-2.01-1.76C3.74,4.34,3.57,4.42,3.4,4.54
							C3.15,4.7,2.93,4.78,2.71,4.53C2.4,4.19,2.41,3.73,2.31,3.3c-0.08-0.33-0.24-0.73-0.6-0.85C1.52,2.39,1.33,2.43,1.15,2.5
							C1.01,2.54,0.88,2.6,0.74,2.55C0.62,2.51,0.53,2.4,0.47,2.3C0.22,1.87,0.32,1.37,0.21,0.91c-0.08-0.36-0.28-0.74-0.7-0.76
							c-0.15-0.01-0.32,0.07-0.46,0c-0.11-0.05-0.17-0.16-0.21-0.27C-1.23-0.36-1.2-0.61-1.18-0.86c0.04-0.38,0-0.87-0.42-1
							C-1.68-1.88-1.84-1.79-1.71-1.75L-1.71-1.75z"/>
					</g>
				</g>
				<g>
					<g>
						<path class="st0" d="M-5.9,4.97c0.49,1.02,1.55,1.58,2.58,1.92c0.59,0.19,1.25,0.41,1.87,0.25c0.32-0.08,0.62-0.23,0.9-0.38
							c0.28-0.15,0.55-0.32,0.8-0.5c0.58-0.42,1.1-0.92,1.53-1.48c0.07-0.09-0.14-0.13-0.19-0.06C0.88,5.66-0.1,6.46-1.2,6.91
							C-1.52,7.04-1.84,7.1-2.18,7.05C-2.47,7-2.76,6.92-3.05,6.83c-0.51-0.15-1-0.35-1.46-0.63C-5,5.89-5.43,5.47-5.69,4.93
							C-5.73,4.86-5.94,4.88-5.9,4.97L-5.9,4.97z"/>
					</g>
				</g>
				<g>
					<g>
						<path class="st0" d="M-5.1,3.44c0.07,0.44,0.42,0.75,0.81,0.95c0.38,0.19,0.81,0.3,1.23,0.34c0.85,0.08,1.73-0.11,2.47-0.55
							c0.41-0.24,0.78-0.56,1.07-0.94c0.07-0.09-0.14-0.13-0.19-0.06c-0.95,1.26-2.74,1.79-4.22,1.21
							c-0.42-0.17-0.87-0.47-0.95-0.95C-4.9,3.36-5.11,3.36-5.1,3.44L-5.1,3.44z"/>
					</g>
				</g>
				<g>
					<g>
						<path class="st0" d="M0.14,3.47c-0.16-0.18-0.33-0.36-0.47-0.56c-0.13-0.19-0.2-0.41-0.26-0.64C-0.61,2.2-0.82,2.21-0.79,2.31
							c0.06,0.23,0.13,0.46,0.27,0.65c0.14,0.2,0.31,0.39,0.48,0.57C0.01,3.59,0.22,3.55,0.14,3.47L0.14,3.47z"/>
					</g>
				</g>
				<g>
					<path class="st0" d="M10.17,8.69c-2.25,0-3.75-1.43-3.82-1.5c-0.09-0.08-0.09-0.22,0-0.31c0.08-0.09,0.22-0.09,0.31,0
						c0.02,0.02,1.71,1.63,4.1,1.34c2.12-0.25,4.14-1.87,6.01-4.82c0.06-0.1,0.2-0.13,0.3-0.07c0.1,0.06,0.13,0.2,0.07,0.3
						c-1.94,3.06-4.07,4.75-6.33,5.02C10.58,8.68,10.37,8.69,10.17,8.69z"/>
				</g>
				<g>
					<path class="st0" d="M8.2,2.54c-0.26,0-0.52-0.02-0.78-0.07C3.5,1.8,1.19-3.68,1.1-3.91C1.05-4.02,1.11-4.15,1.22-4.19
						C1.33-4.24,1.45-4.19,1.5-4.08c0.02,0.05,2.31,5.5,6,6.12c1.84,0.31,3.74-0.62,5.66-2.76c0.08-0.09,0.22-0.1,0.31-0.02
						c0.09,0.08,0.1,0.22,0.02,0.3C11.72,1.55,9.95,2.54,8.2,2.54z"/>
				</g>
				<g>
					<g>
						<path class="st0" d="M7.99,4.17c-0.3,0-0.59-0.02-0.89-0.07C5.03,3.8,2.97,2.36,1.15-0.04c-1.36-1.8-2.1-3.48-2.14-3.55
							c-0.05-0.11,0-0.24,0.11-0.28c0.11-0.05,0.24,0,0.28,0.11c0.03,0.07,3,6.74,7.76,7.44c2.54,0.38,5.16-1,7.79-4.08
							c0.08-0.09,0.21-0.1,0.3-0.02c0.09,0.08,0.1,0.21,0.02,0.3C12.85,2.73,10.4,4.17,7.99,4.17z"/>
					</g>
				</g>
				<g>
					<path class="st0" d="M8.08,3.5c-0.04,0-0.07-0.01-0.1-0.03L7.73,3.34L7.47,3.46C7.4,3.5,7.32,3.49,7.25,3.44L7.02,3.28
						L6.76,3.37C6.68,3.39,6.6,3.38,6.54,3.32L6.33,3.13L6.06,3.19C5.98,3.21,5.9,3.18,5.85,3.12L5.67,2.91L5.39,2.94
						c-0.08,0.01-0.15-0.03-0.2-0.09L5.03,2.62l-0.28,0c-0.08,0-0.15-0.04-0.19-0.11L4.42,2.27L4.14,2.24
						C4.06,2.24,3.99,2.19,3.96,2.12L3.84,1.87L3.57,1.82C3.49,1.81,3.43,1.76,3.4,1.69L3.3,1.43L3.03,1.36
						C2.95,1.34,2.9,1.29,2.87,1.22L2.79,0.95L2.52,0.87C2.45,0.85,2.39,0.79,2.37,0.72L2.31,0.45L2.05,0.35
						C1.97,0.33,1.92,0.27,1.91,0.19L1.85-0.08L1.6-0.19C1.53-0.22,1.48-0.28,1.47-0.35L1.42-0.63L1.17-0.74
						C1.1-0.78,1.06-0.84,1.05-0.92L1.02-1.19L0.77-1.32c-0.07-0.03-0.11-0.1-0.12-0.18L0.64-1.77L0.4-1.9
						C0.33-1.94,0.29-2.01,0.29-2.08L0.28-2.36L0.04-2.5c-0.06-0.04-0.1-0.11-0.1-0.18l0-0.28l-0.23-0.15
						c-0.06-0.04-0.1-0.11-0.1-0.19l0.01-0.28L-0.6-3.74c-0.06-0.04-0.1-0.12-0.09-0.19l0.03-0.39c0.01-0.12,0.11-0.21,0.23-0.2
						c0.12,0.01,0.21,0.11,0.2,0.23l-0.02,0.27l0.22,0.16c0.06,0.04,0.09,0.11,0.09,0.18L0.05-3.41l0.23,0.15
						c0.06,0.04,0.1,0.11,0.1,0.18l0,0.27L0.6-2.67c0.06,0.04,0.1,0.1,0.1,0.18l0.01,0.27l0.24,0.13c0.06,0.04,0.1,0.1,0.11,0.17
						l0.02,0.27l0.24,0.12c0.06,0.03,0.11,0.1,0.12,0.17l0.03,0.27l0.25,0.11c0.07,0.03,0.11,0.09,0.12,0.16l0.04,0.27l0.25,0.1
						c0.07,0.03,0.11,0.09,0.13,0.16l0.05,0.27l0.25,0.09C2.63,0.1,2.68,0.16,2.7,0.23l0.07,0.26l0.26,0.08
						c0.07,0.02,0.12,0.07,0.14,0.14l0.08,0.26l0.26,0.06C3.58,1.05,3.64,1.1,3.66,1.16l0.1,0.25l0.27,0.04
						c0.07,0.01,0.13,0.06,0.16,0.12L4.3,1.82l0.27,0.02C4.64,1.85,4.7,1.89,4.74,1.95l0.13,0.23l0.27,0c0.07,0,0.14,0.03,0.18,0.09
						L5.47,2.5l0.27-0.03c0.07-0.01,0.14,0.02,0.18,0.07l0.18,0.2l0.26-0.05c0.07-0.01,0.14,0.01,0.19,0.05l0.2,0.18l0.25-0.08
						c0.07-0.02,0.14-0.01,0.19,0.03L7.4,3.02L7.64,2.9c0.06-0.03,0.14-0.03,0.2,0.01l0.23,0.13L8.3,2.89
						c0.06-0.04,0.13-0.04,0.2-0.02l0.25,0.1l0.21-0.17C9,2.76,9.07,2.75,9.14,2.77l0.26,0.07l0.19-0.19
						C9.63,2.6,9.7,2.58,9.77,2.59l0.26,0.04l0.17-0.21c0.04-0.05,0.12-0.08,0.18-0.08l0.27,0.02l0.15-0.22
						c0.04-0.06,0.11-0.09,0.18-0.09l0.27,0l0.14-0.23c0.04-0.06,0.1-0.1,0.17-0.11l0.27-0.02l0.12-0.24
						c0.03-0.06,0.09-0.11,0.16-0.12l0.27-0.04l0.11-0.25c0.03-0.07,0.09-0.11,0.16-0.13l0.27-0.05l0.09-0.25
						c0.03-0.07,0.08-0.12,0.15-0.13l0.26-0.06l0.08-0.26c0.02-0.07,0.08-0.12,0.15-0.14l0.26-0.07l0.07-0.26
						c0.02-0.07,0.07-0.12,0.14-0.15l0.37-0.12c0.12-0.04,0.24,0.02,0.27,0.14c0.04,0.11-0.02,0.24-0.14,0.27l-0.26,0.09L14.3,0.18
						c-0.02,0.07-0.08,0.13-0.15,0.15L13.88,0.4L13.8,0.67c-0.02,0.07-0.08,0.13-0.16,0.14l-0.27,0.06l-0.1,0.26
						c-0.03,0.07-0.09,0.12-0.16,0.14l-0.27,0.05l-0.11,0.26c-0.03,0.07-0.09,0.12-0.17,0.13l-0.28,0.04L12.16,2
						c-0.03,0.07-0.1,0.11-0.18,0.12L11.7,2.14l-0.14,0.24c-0.04,0.07-0.11,0.11-0.19,0.11l-0.28,0l-0.16,0.23
						c-0.04,0.06-0.12,0.1-0.19,0.09l-0.28-0.02L10.29,3c-0.05,0.06-0.13,0.09-0.2,0.08L9.81,3.03l-0.2,0.2
						C9.56,3.29,9.48,3.31,9.4,3.29L9.13,3.21L8.91,3.39C8.85,3.44,8.77,3.45,8.7,3.42l-0.26-0.1L8.19,3.47
						C8.16,3.49,8.12,3.5,8.08,3.5z"/>
				</g>
				<g>
					<path class="st0" d="M8.29,1.31c-0.25,0-0.5-0.02-0.75-0.06C4.85,0.81,2.9-1.96,1.97-3.58c-0.06-0.1-0.02-0.24,0.08-0.29
						c0.1-0.06,0.24-0.02,0.29,0.08C3.23-2.25,5.1,0.41,7.61,0.83c1.49,0.24,3.02-0.33,4.56-1.69c0.09-0.08,0.23-0.07,0.3,0.02
						c0.08,0.09,0.07,0.23-0.02,0.31C11.07,0.69,9.67,1.31,8.29,1.31z"/>
				</g>
				<g>
					<path class="st0" d="M24.48,3.92c-3.68,0-6.9-3.89-7.05-4.07c-0.08-0.09-0.06-0.23,0.03-0.3c0.09-0.08,0.23-0.06,0.3,0.03
						c0.04,0.04,3.69,4.45,7.44,3.85c2.23-0.36,4.07-2.4,5.48-6.07c0.04-0.11,0.17-0.17,0.28-0.12c0.11,0.04,0.17,0.17,0.12,0.28
						c-1.47,3.83-3.43,5.96-5.82,6.34C25.01,3.9,24.74,3.92,24.48,3.92z"/>
				</g>
				<g>
					<path class="st0" d="M24.57,5.2c-1.78,0-3.74-0.84-5.73-2.47C17.12,1.33,16-0.14,15.95-0.2c-0.07-0.1-0.05-0.23,0.04-0.3
						c0.09-0.07,0.23-0.05,0.3,0.04c0.04,0.06,4.5,5.88,9.03,5.18c2.67-0.41,4.86-3,6.52-7.69c0.04-0.11,0.16-0.17,0.28-0.13
						c0.11,0.04,0.17,0.16,0.13,0.28c-1.71,4.85-4.02,7.54-6.86,7.98C25.12,5.18,24.85,5.2,24.57,5.2z"/>
				</g>
				<g>
					<path class="st0" d="M24.56,4.8c-0.04,0-0.07-0.01-0.1-0.03L24.2,4.64l-0.27,0.12c-0.07,0.03-0.15,0.02-0.22-0.02l-0.24-0.17
						L23.2,4.66c-0.07,0.02-0.15,0.01-0.21-0.05l-0.21-0.2l-0.28,0.05c-0.08,0.01-0.15-0.01-0.2-0.07L22.1,4.18l-0.29,0.03
						c-0.07,0.01-0.15-0.03-0.19-0.09l-0.17-0.23l-0.29,0c0,0,0,0,0,0c-0.07,0-0.14-0.04-0.18-0.1l-0.15-0.24l-0.29-0.02
						c-0.07,0-0.14-0.05-0.18-0.11l-0.14-0.25l-0.28-0.03c-0.07-0.01-0.14-0.05-0.17-0.12l-0.12-0.26l-0.28-0.05
						c-0.07-0.01-0.14-0.06-0.16-0.13l-0.11-0.26L18.8,2.26c-0.07-0.02-0.13-0.07-0.16-0.14l-0.1-0.27l-0.28-0.07
						c-0.07-0.02-0.13-0.07-0.15-0.14l-0.09-0.27l-0.27-0.08c-0.07-0.02-0.13-0.08-0.15-0.15l-0.08-0.27l-0.27-0.09
						c-0.07-0.02-0.12-0.08-0.14-0.16l-0.06-0.28l-0.26-0.1c-0.07-0.03-0.12-0.09-0.13-0.16L16.6-0.31
						c-0.02-0.12,0.06-0.23,0.17-0.25c0.12-0.02,0.23,0.06,0.25,0.17l0.05,0.27l0.26,0.1c0.07,0.03,0.12,0.08,0.13,0.15l0.06,0.27
						l0.26,0.09c0.07,0.02,0.12,0.08,0.14,0.15L18,0.91l0.27,0.08c0.07,0.02,0.12,0.07,0.14,0.14L18.5,1.4l0.27,0.07
						c0.07,0.02,0.12,0.07,0.15,0.14l0.1,0.26l0.27,0.06c0.07,0.01,0.13,0.06,0.15,0.13l0.11,0.26l0.27,0.05
						c0.07,0.01,0.13,0.06,0.16,0.12l0.12,0.25l0.28,0.03c0.07,0.01,0.13,0.05,0.17,0.11l0.13,0.24l0.28,0.01
						c0.07,0,0.13,0.04,0.17,0.1l0.15,0.23l0.28,0c0.07,0.01,0.14,0.03,0.18,0.09l0.17,0.22l0.28-0.03
						c0.07-0.01,0.14,0.02,0.18,0.07l0.18,0.21l0.27-0.05c0.07-0.01,0.14,0.01,0.19,0.05l0.2,0.19l0.26-0.08
						c0.07-0.02,0.14-0.01,0.19,0.03l0.22,0.16l0.25-0.11c0.06-0.03,0.13-0.03,0.19,0.01l0.24,0.13l0.23-0.15
						c0.06-0.04,0.13-0.04,0.19-0.02l0.26,0.09l0.21-0.18c0.05-0.04,0.12-0.06,0.18-0.05l0.27,0.05l0.18-0.21
						c0.04-0.05,0.11-0.08,0.18-0.07l0.27,0.02l0.15-0.23c0.04-0.06,0.1-0.09,0.17-0.1l0.27-0.02l0.12-0.25
						c0.03-0.06,0.09-0.1,0.15-0.12l0.27-0.05l0.09-0.26c0.02-0.06,0.08-0.11,0.14-0.13l0.26-0.08l0.07-0.27
						c0.02-0.07,0.07-0.12,0.13-0.15l0.26-0.1l0.05-0.27c0.01-0.07,0.06-0.13,0.12-0.16l0.25-0.12l0.03-0.28
						c0.01-0.07,0.05-0.13,0.11-0.16l0.24-0.13l0.02-0.28c0-0.07,0.04-0.13,0.1-0.17l0.24-0.15l0-0.28c0-0.07,0.04-0.14,0.1-0.18
						l0.23-0.16L30.1-0.51c0-0.07,0.03-0.14,0.09-0.18l0.23-0.17L30.4-1.13c0-0.07,0.03-0.14,0.08-0.18l0.22-0.17l-0.03-0.28
						c-0.01-0.07,0.02-0.14,0.08-0.19l0.22-0.18l-0.03-0.28c-0.01-0.07,0.02-0.14,0.07-0.19l0.3-0.26c0.09-0.08,0.23-0.07,0.3,0.02
						c0.08,0.09,0.07,0.23-0.02,0.3l-0.21,0.19l0.03,0.28C31.42-2,31.4-1.93,31.34-1.88L31.12-1.7l0.03,0.28
						c0.01,0.07-0.02,0.14-0.08,0.19l-0.22,0.18l0.02,0.28c0,0.07-0.03,0.14-0.09,0.19L30.54-0.4l0.01,0.29
						c0,0.07-0.03,0.14-0.1,0.18l-0.24,0.16l0,0.29c0,0.07-0.04,0.14-0.1,0.18l-0.24,0.15l-0.02,0.29c0,0.07-0.05,0.14-0.11,0.18
						l-0.25,0.14l-0.03,0.28c-0.01,0.07-0.06,0.14-0.12,0.17l-0.26,0.12l-0.05,0.28C29,2.37,28.94,2.43,28.87,2.46l-0.27,0.1
						l-0.07,0.28c-0.02,0.07-0.08,0.13-0.15,0.15l-0.28,0.08l-0.1,0.27c-0.03,0.07-0.09,0.12-0.16,0.14l-0.29,0.05l-0.13,0.26
						c-0.03,0.07-0.1,0.11-0.18,0.12l-0.29,0.02L26.8,4.17c-0.04,0.06-0.11,0.1-0.19,0.1l-0.29-0.02l-0.19,0.22
						c-0.05,0.06-0.13,0.08-0.21,0.07l-0.29-0.06l-0.22,0.19c-0.06,0.05-0.14,0.07-0.21,0.04l-0.27-0.1l-0.25,0.16
						C24.64,4.79,24.6,4.8,24.56,4.8z"/>
				</g>
				<g>
					<path class="st0" d="M24.37,2.96c-2.48,0-4.78-1.79-6-2.96c-0.09-0.08-0.09-0.22-0.01-0.31c0.08-0.09,0.22-0.09,0.31-0.01
						c1.32,1.25,3.92,3.26,6.56,2.76c1.9-0.37,3.53-1.99,4.83-4.82c0.05-0.11,0.18-0.16,0.29-0.11c0.11,0.05,0.16,0.18,0.11,0.29
						c-1.37,2.97-3.1,4.67-5.14,5.07C24.99,2.93,24.68,2.96,24.37,2.96z"/>
				</g>
				<g>
					<g>
						<path class="st0" d="M8.77,7.59c0.04,0,0.11-0.01,0.11-0.06c0-0.05-0.07-0.06-0.11-0.06c-0.04,0-0.11,0.01-0.11,0.06
							C8.66,7.58,8.73,7.59,8.77,7.59L8.77,7.59z"/>
					</g>
				</g>
				<g>
					<g>
						<path class="st0" d="M9.35,7.75c0.04,0,0.11-0.01,0.11-0.06c0-0.05-0.07-0.06-0.11-0.06c-0.04,0-0.11,0.01-0.11,0.06
							C9.25,7.74,9.32,7.75,9.35,7.75L9.35,7.75z"/>
					</g>
				</g>
				<g>
					<g>
						<path class="st0" d="M9.51,7.19c0.04,0,0.11-0.01,0.11-0.06c0-0.05-0.07-0.06-0.11-0.06c-0.04,0-0.11,0.01-0.11,0.06
							C9.4,7.18,9.47,7.19,9.51,7.19L9.51,7.19z"/>
					</g>
				</g>
				<g>
					<g>
						<path class="st0" d="M11.25,7.81c0.04,0,0.11-0.01,0.11-0.06c0-0.05-0.07-0.06-0.11-0.06c-0.04,0-0.11,0.01-0.11,0.06
							C11.14,7.79,11.21,7.81,11.25,7.81L11.25,7.81z"/>
					</g>
				</g>
				<g>
					<g>
						<path class="st0" d="M10.86,7.27c0.04,0,0.11-0.01,0.11-0.06c0-0.05-0.07-0.06-0.11-0.06c-0.04,0-0.11,0.01-0.11,0.06
							C10.75,7.25,10.83,7.27,10.86,7.27L10.86,7.27z"/>
					</g>
				</g>
				<g>
					<g>
						<path class="st0" d="M10.38,7.89c0.04,0,0.11-0.01,0.11-0.06c0-0.05-0.07-0.06-0.11-0.06c-0.04,0-0.11,0.01-0.11,0.06
							C10.27,7.87,10.35,7.89,10.38,7.89L10.38,7.89z"/>
					</g>
				</g>
				<g>
					<g>
						<path class="st0" d="M10.31,7.25c0.04,0,0.11-0.01,0.11-0.06c0-0.05-0.07-0.06-0.11-0.06c-0.04,0-0.11,0.01-0.11,0.06
							C10.2,7.23,10.28,7.25,10.31,7.25L10.31,7.25z"/>
					</g>
				</g>
				<g>
					<g>
						<path class="st0" d="M11.37,6.7c0.04,0,0.11-0.01,0.11-0.06c0-0.05-0.07-0.06-0.11-0.06c-0.04,0-0.11,0.01-0.11,0.06
							C11.27,6.68,11.34,6.7,11.37,6.7L11.37,6.7z"/>
					</g>
				</g>
				<g>
					<g>
						<path class="st0" d="M12.24,6.36c0.04,0,0.11-0.01,0.11-0.06c0-0.05-0.07-0.06-0.11-0.06c-0.04,0-0.11,0.01-0.11,0.06
							C12.13,6.34,12.2,6.36,12.24,6.36L12.24,6.36z"/>
					</g>
				</g>
				<g>
					<g>
						<path class="st0" d="M12.24,7.21c0.04,0,0.11-0.01,0.11-0.06c0-0.05-0.07-0.06-0.11-0.06c-0.04,0-0.11,0.01-0.11,0.06
							C12.13,7.2,12.2,7.21,12.24,7.21L12.24,7.21z"/>
					</g>
				</g>
				<g>
					<g>
						<path class="st0" d="M11.73,7.28c0.04,0,0.11-0.01,0.11-0.06c0-0.05-0.07-0.06-0.11-0.06c-0.04,0-0.11,0.01-0.11,0.06
							C11.62,7.27,11.69,7.28,11.73,7.28L11.73,7.28z"/>
					</g>
				</g>
				<g>
					<g>
						<path class="st0" d="M12.5,5.61c0.04,0,0.11-0.01,0.11-0.06c0-0.05-0.07-0.06-0.11-0.06c-0.04,0-0.11,0.01-0.11,0.06
							C12.4,5.6,12.47,5.61,12.5,5.61L12.5,5.61z"/>
					</g>
				</g>
				<g>
					<g>
						<path class="st0" d="M13.26,6.43c0.04,0,0.11-0.01,0.11-0.06c0-0.05-0.07-0.06-0.11-0.06c-0.04,0-0.11,0.01-0.11,0.06
							C13.15,6.42,13.22,6.43,13.26,6.43L13.26,6.43z"/>
					</g>
				</g>
				<g>
					<g>
						<path class="st0" d="M12.96,7.39c0.04,0,0.11-0.01,0.11-0.06c0-0.05-0.07-0.06-0.11-0.06c-0.04,0-0.11,0.01-0.11,0.06
							C12.85,7.37,12.92,7.39,12.96,7.39L12.96,7.39z"/>
					</g>
				</g>
				<g>
					<g>
						<path class="st0" d="M13.66,6.6c0.04,0,0.11-0.01,0.11-0.06c0-0.05-0.07-0.06-0.11-0.06c-0.04,0-0.11,0.01-0.11,0.06
							C13.55,6.58,13.63,6.6,13.66,6.6L13.66,6.6z"/>
					</g>
				</g>
				<g>
					<g>
						<path class="st0" d="M14.98,5.27c0.04,0,0.11-0.01,0.11-0.06c0-0.05-0.07-0.06-0.11-0.06c-0.04,0-0.11,0.01-0.11,0.06
							C14.87,5.26,14.94,5.27,14.98,5.27L14.98,5.27z"/>
					</g>
				</g>
				<g>
					<g>
						<path class="st0" d="M13.8,4.97c0.04,0,0.11-0.01,0.11-0.06c0-0.05-0.07-0.06-0.11-0.06c-0.04,0-0.11,0.01-0.11,0.06
							C13.69,4.95,13.77,4.97,13.8,4.97L13.8,4.97z"/>
					</g>
				</g>
				<g>
					<g>
						<path class="st0" d="M13.36,6.07c0.04,0,0.11-0.01,0.11-0.06c0-0.05-0.07-0.06-0.11-0.06c-0.04,0-0.11,0.01-0.11,0.06
							C13.25,6.05,13.32,6.07,13.36,6.07L13.36,6.07z"/>
					</g>
				</g>
				<g>
					<g>
						<path class="st0" d="M14.54,5.65c0.04,0,0.11-0.01,0.11-0.06c0-0.05-0.07-0.06-0.11-0.06c-0.04,0-0.11,0.01-0.11,0.06
							C14.43,5.63,14.5,5.65,14.54,5.65L14.54,5.65z"/>
					</g>
				</g>
				<g>
					<g>
						<path class="st0" d="M13.35,5.3c0.04,0,0.11-0.01,0.11-0.06c0-0.05-0.07-0.06-0.11-0.06c-0.04,0-0.11,0.01-0.11,0.06
							C13.24,5.28,13.31,5.3,13.35,5.3L13.35,5.3z"/>
					</g>
				</g>
				<g>
					<g>
						<path class="st0" d="M14.65,4.09c0.04,0,0.11-0.01,0.11-0.06c0-0.05-0.07-0.06-0.11-0.06c-0.04,0-0.11,0.01-0.11,0.06
							C14.54,4.07,14.61,4.09,14.65,4.09L14.65,4.09z"/>
					</g>
				</g>
				<g>
					<g>
						<path class="st0" d="M14.49,3.6c0.04,0,0.11-0.01,0.11-0.06c0-0.05-0.07-0.06-0.11-0.06c-0.04,0-0.11,0.01-0.11,0.06
							C14.38,3.59,14.46,3.6,14.49,3.6L14.49,3.6z"/>
					</g>
				</g>
				<g>
					<g>
						<path class="st0" d="M15.51,2.69c0.04,0,0.11-0.01,0.11-0.06c0-0.05-0.07-0.06-0.11-0.06c-0.04,0-0.11,0.01-0.11,0.06
							C15.4,2.67,15.47,2.69,15.51,2.69L15.51,2.69z"/>
					</g>
				</g>
				<g>
					<g>
						<path class="st0" d="M15.17,3.21c0.04,0,0.11-0.01,0.11-0.06c0-0.05-0.07-0.06-0.11-0.06c-0.04,0-0.11,0.01-0.11,0.06
							C15.07,3.2,15.14,3.21,15.17,3.21L15.17,3.21z"/>
					</g>
				</g>
				<g>
					<g>
						<path class="st0" d="M16.05,3.52c0.04,0,0.11-0.01,0.11-0.06c0-0.05-0.07-0.06-0.11-0.06c-0.04,0-0.11,0.01-0.11,0.06
							C15.94,3.51,16.02,3.52,16.05,3.52L16.05,3.52z"/>
					</g>
				</g>
				<g>
					<g>
						<path class="st0" d="M15.93,2.81c0.04,0,0.11-0.01,0.11-0.06c0-0.05-0.07-0.06-0.11-0.06c-0.04,0-0.11,0.01-0.11,0.06
							C15.82,2.79,15.89,2.81,15.93,2.81L15.93,2.81z"/>
					</g>
				</g>
				<g>
					<g>
						<path class="st0" d="M15.66,4.22c0.04,0,0.11-0.01,0.11-0.06c0-0.05-0.07-0.06-0.11-0.06c-0.04,0-0.11,0.01-0.11,0.06
							C15.55,4.21,15.62,4.22,15.66,4.22L15.66,4.22z"/>
					</g>
				</g>
				<g>
					<g>
						<path class="st0" d="M15.25,3.75c0.04,0,0.11-0.01,0.11-0.06c0-0.05-0.07-0.06-0.11-0.06c-0.04,0-0.11,0.01-0.11,0.06
							C15.15,3.74,15.22,3.75,15.25,3.75L15.25,3.75z"/>
					</g>
				</g>
				<g>
					<g>
						<path class="st0" d="M14.47,5.08c0.04,0,0.11-0.01,0.11-0.06c0-0.05-0.07-0.06-0.11-0.06c-0.04,0-0.11,0.01-0.11,0.06
							C14.36,5.07,14.43,5.08,14.47,5.08L14.47,5.08z"/>
					</g>
				</g>
				<g>
					<g>
						<path class="st0" d="M13.83,4.41c0.04,0,0.11-0.01,0.11-0.06c0-0.05-0.07-0.06-0.11-0.06c-0.04,0-0.11,0.01-0.11,0.06
							C13.73,4.39,13.8,4.41,13.83,4.41L13.83,4.41z"/>
					</g>
				</g>
				<g>
					<g>
						<path class="st0" d="M15.12,4.49c0.04,0,0.11-0.01,0.11-0.06c0-0.05-0.07-0.06-0.11-0.06c-0.04,0-0.11,0.01-0.11,0.06
							C15.01,4.47,15.09,4.49,15.12,4.49L15.12,4.49z"/>
					</g>
				</g>
				<g>
					<g>
						<path class="st0" d="M15.54,4.78c0.04,0,0.11-0.01,0.11-0.06c0-0.05-0.07-0.06-0.11-0.06c-0.04,0-0.11,0.01-0.11,0.06
							C15.43,4.76,15.51,4.78,15.54,4.78L15.54,4.78z"/>
					</g>
				</g>
				<g>
					<g>
						<path class="st0" d="M14.24,6.13c0.04,0,0.11-0.01,0.11-0.06c0-0.05-0.07-0.06-0.11-0.06c-0.04,0-0.11,0.01-0.11,0.06
							C14.13,6.12,14.21,6.13,14.24,6.13L14.24,6.13z"/>
					</g>
				</g>
				<g>
					<g>
						<path class="st0" d="M14,5.63c0.04,0,0.11-0.01,0.11-0.06c0-0.05-0.07-0.06-0.11-0.06c-0.04,0-0.11,0.01-0.11,0.06
							C13.89,5.62,13.97,5.63,14,5.63L14,5.63z"/>
					</g>
				</g>
				<g>
					<g>
						<path class="st0" d="M11.94,5.98c0.04,0,0.11-0.01,0.11-0.06c0-0.05-0.07-0.06-0.11-0.06c-0.04,0-0.11,0.01-0.11,0.06
							C11.83,5.97,11.91,5.98,11.94,5.98L11.94,5.98z"/>
					</g>
				</g>
				<g>
					<g>
						<path class="st0" d="M13.16,6.92c0.04,0,0.11-0.01,0.11-0.06c0-0.05-0.07-0.06-0.11-0.06c-0.04,0-0.11,0.01-0.11,0.06
							C13.05,6.91,13.12,6.92,13.16,6.92L13.16,6.92z"/>
					</g>
				</g>
				<g>
					<g>
						<path class="st0" d="M7.41,7.42c0.04,0,0.11-0.01,0.11-0.06c0-0.05-0.07-0.06-0.11-0.06c-0.04,0-0.11,0.01-0.11,0.06
							C7.31,7.41,7.38,7.42,7.41,7.42L7.41,7.42z"/>
					</g>
				</g>
				<g>
					<g>
						<path class="st0" d="M8.38,7.36c0.04,0,0.11-0.01,0.11-0.06c0-0.05-0.07-0.06-0.11-0.06c-0.04,0-0.11,0.01-0.11,0.06
							C8.27,7.35,8.34,7.36,8.38,7.36L8.38,7.36z"/>
					</g>
				</g>
				<g>
					<g>
						<path class="st0" d="M8.92,8.1c0.04,0,0.11-0.01,0.11-0.06c0-0.05-0.07-0.06-0.11-0.06c-0.04,0-0.11,0.01-0.11,0.06
							C8.82,8.08,8.89,8.1,8.92,8.1L8.92,8.1z"/>
					</g>
				</g>
				<g>
					<g>
						<path class="st0" d="M9.89,8.24C9.93,8.24,10,8.22,10,8.18c0-0.05-0.07-0.06-0.11-0.06c-0.04,0-0.11,0.01-0.11,0.06
							C9.78,8.22,9.86,8.24,9.89,8.24L9.89,8.24z"/>
					</g>
				</g>
				<g>
					<g>
						<path class="st0" d="M10.69,6.57c0.04,0,0.11-0.01,0.11-0.06c0-0.05-0.07-0.06-0.11-0.06c-0.04,0-0.11,0.01-0.11,0.06
							C10.58,6.55,10.65,6.57,10.69,6.57L10.69,6.57z"/>
					</g>
				</g>
				<g>
					<g>
						<path class="st0" d="M12.16,7.81c0.04,0,0.11-0.01,0.11-0.06c0-0.05-0.07-0.06-0.11-0.06c-0.04,0-0.11,0.01-0.11,0.06
							C12.05,7.8,12.12,7.81,12.16,7.81L12.16,7.81z"/>
					</g>
				</g>
				<g>
					<g>
						<path class="st0" d="M12.8,6.24c0.04,0,0.11-0.01,0.11-0.06c0-0.05-0.07-0.06-0.11-0.06c-0.04,0-0.11,0.01-0.11,0.06
							C12.69,6.23,12.77,6.24,12.8,6.24L12.8,6.24z"/>
					</g>
				</g>
				<g>
					<g>
						<path class="st0" d="M14.5,4.6c0.01,0,0.01,0,0.02,0c0.01,0,0.03-0.01,0.04-0.01c0.01,0,0.02-0.01,0.03-0.02
							c0.01-0.01,0.01-0.01,0.01-0.02c0-0.01,0-0.02,0-0.02c0,0-0.01-0.01-0.01-0.01c-0.01-0.01-0.02-0.02-0.04-0.02
							c-0.01,0-0.02,0-0.03-0.01c-0.02,0-0.04,0-0.06,0c-0.01,0-0.01,0-0.02,0c-0.01,0-0.03,0.01-0.04,0.01
							c-0.01,0-0.02,0.01-0.03,0.02c-0.01,0.01-0.01,0.01-0.01,0.02c0,0.01,0,0.02,0,0.02c0,0,0.01,0.01,0.01,0.01
							c0.01,0.01,0.02,0.02,0.04,0.02c0.01,0,0.02,0,0.03,0.01C14.46,4.61,14.48,4.61,14.5,4.6L14.5,4.6z"/>
					</g>
				</g>
				<g>
					<g>
						<path class="st0" d="M16.58,3.59c0.04,0,0.11-0.01,0.11-0.06c0-0.05-0.07-0.06-0.11-0.06c-0.04,0-0.11,0.01-0.11,0.06
							C16.48,3.57,16.55,3.59,16.58,3.59L16.58,3.59z"/>
					</g>
				</g>
				<g>
					<g>
						<path class="st0" d="M16.23,4.05c0.04,0,0.11-0.01,0.11-0.06c0-0.05-0.07-0.06-0.11-0.06c-0.04,0-0.11,0.01-0.11,0.06
							C16.12,4.03,16.2,4.05,16.23,4.05L16.23,4.05z"/>
					</g>
				</g>
				<g>
					<g>
						<path class="st0" d="M15.62,3.28c0.04,0,0.11-0.01,0.11-0.06c0-0.05-0.07-0.06-0.11-0.06c-0.04,0-0.11,0.01-0.11,0.06
							C15.51,3.27,15.58,3.28,15.62,3.28L15.62,3.28z"/>
					</g>
				</g>
				<g>
					<g>
						<path class="st0" d="M13.08,4.89c0.04,0,0.11-0.01,0.11-0.06c0-0.05-0.07-0.06-0.11-0.06c-0.04,0-0.11,0.01-0.11,0.06
							C12.97,4.87,13.05,4.89,13.08,4.89L13.08,4.89z"/>
					</g>
				</g>
				<g>
					<g>
						<path class="st0" d="M11.39,6.11c0.04,0,0.11-0.01,0.11-0.06c0-0.05-0.07-0.06-0.11-0.06c-0.04,0-0.11,0.01-0.11,0.06
							C11.28,6.09,11.36,6.11,11.39,6.11L11.39,6.11z"/>
					</g>
				</g>
				<g>
					<g>
						<path class="st0" d="M12.64,6.85c0.04,0,0.11-0.01,0.11-0.06c0-0.05-0.07-0.06-0.11-0.06c-0.04,0-0.11,0.01-0.11,0.06
							C12.53,6.84,12.61,6.85,12.64,6.85L12.64,6.85z"/>
					</g>
				</g>
				<g>
					<g>
						<path class="st0" d="M10.13,6.77c0.04,0,0.11-0.01,0.11-0.06c0-0.05-0.07-0.06-0.11-0.06c-0.04,0-0.11,0.01-0.11,0.06
							C10.02,6.76,10.09,6.77,10.13,6.77L10.13,6.77z"/>
					</g>
				</g>
				<g>
					<g>
						<path class="st0" d="M10.98,8.2c0.04,0,0.11-0.01,0.11-0.06c0-0.05-0.07-0.06-0.11-0.06c-0.04,0-0.11,0.01-0.11,0.06
							C10.87,8.19,10.95,8.2,10.98,8.2L10.98,8.2z"/>
					</g>
				</g>
				<g>
					<g>
						<path class="st0" d="M6.58,0.27c0.04,0,0.11-0.01,0.11-0.06c0-0.05-0.07-0.06-0.11-0.06c-0.04,0-0.11,0.01-0.11,0.06
							C6.47,0.25,6.55,0.27,6.58,0.27L6.58,0.27z"/>
					</g>
				</g>
				<g>
					<g>
						<path class="st0" d="M6.07,0.03c0.02,0.01,0.04,0.01,0.06,0.02c0.01,0,0.03,0.01,0.04,0.01c0.01,0,0.03,0,0.04,0
							c0.01,0,0.03-0.01,0.04-0.01c0.01,0,0.02-0.01,0.03-0.02c0,0,0.01-0.01,0.01-0.01c0.01-0.01,0.01-0.02,0-0.03
							c0,0-0.01-0.01-0.01-0.01C6.27-0.05,6.25-0.06,6.24-0.06C6.22-0.07,6.2-0.07,6.18-0.08c-0.01,0-0.03-0.01-0.04-0.01
							c-0.01,0-0.03,0-0.04,0c-0.01,0-0.03,0.01-0.04,0.01c-0.01,0-0.02,0.01-0.03,0.02c0,0-0.01,0.01-0.01,0.01
							c-0.01,0.01-0.01,0.02,0,0.03c0,0,0.01,0.01,0.01,0.01C6.04,0.02,6.06,0.02,6.07,0.03L6.07,0.03z"/>
					</g>
				</g>
				<g>
					<g>
						<path class="st0" d="M7.14,0.45c0.04,0,0.11-0.01,0.11-0.06c0-0.05-0.07-0.06-0.11-0.06c-0.04,0-0.11,0.01-0.11,0.06
							C7.04,0.44,7.11,0.45,7.14,0.45L7.14,0.45z"/>
					</g>
				</g>
				<g>
					<g>
						<path class="st0" d="M7.83,0.64c0.04,0,0.11-0.01,0.11-0.06c0-0.05-0.07-0.06-0.11-0.06c-0.04,0-0.11,0.01-0.11,0.06
							C7.72,0.63,7.79,0.64,7.83,0.64L7.83,0.64z"/>
					</g>
				</g>
				<g>
					<g>
						<path class="st0" d="M8.35,0.63c0.04,0,0.11-0.01,0.11-0.06c0-0.05-0.07-0.06-0.11-0.06c-0.04,0-0.11,0.01-0.11,0.06
							C8.24,0.61,8.31,0.63,8.35,0.63L8.35,0.63z"/>
					</g>
				</g>
				<g>
					<g>
						<path class="st0" d="M8.85,0.65c0.04,0,0.11-0.01,0.11-0.06c0-0.05-0.07-0.06-0.11-0.06c-0.04,0-0.11,0.01-0.11,0.06
							C8.74,0.63,8.81,0.65,8.85,0.65L8.85,0.65z"/>
					</g>
				</g>
				<g>
					<g>
						<path class="st0" d="M9.37,0.47c0.04,0,0.11-0.01,0.11-0.06c0-0.05-0.07-0.06-0.11-0.06c-0.04,0-0.11,0.01-0.11,0.06
							C9.27,0.45,9.34,0.47,9.37,0.47L9.37,0.47z"/>
					</g>
				</g>
				<g>
					<g>
						<path class="st0" d="M10,0.29c0.04,0,0.11-0.01,0.11-0.06c0-0.05-0.07-0.06-0.11-0.06c-0.04,0-0.11,0.01-0.11,0.06
							C9.89,0.28,9.96,0.29,10,0.29L10,0.29z"/>
					</g>
				</g>
				<g>
					<g>
						<path class="st0" d="M10.37,0.19c0.04,0,0.11-0.01,0.11-0.06c0-0.05-0.07-0.06-0.11-0.06c-0.04,0-0.11,0.01-0.11,0.06
							C10.26,0.18,10.33,0.19,10.37,0.19L10.37,0.19z"/>
					</g>
				</g>
				<g>
					<g>
						<path class="st0" d="M10.67,0.05c0.04,0,0.11-0.01,0.11-0.06c0-0.05-0.07-0.06-0.11-0.06c-0.04,0-0.11,0.01-0.11,0.06
							C10.56,0.04,10.63,0.05,10.67,0.05L10.67,0.05z"/>
					</g>
				</g>
				<g>
					<g>
						<path class="st0" d="M9.63,0.45c0.04,0,0.11-0.01,0.11-0.06c0-0.05-0.07-0.06-0.11-0.06c-0.04,0-0.11,0.01-0.11,0.06
							C9.52,0.44,9.6,0.45,9.63,0.45L9.63,0.45z"/>
					</g>
				</g>
				<g>
					<g>
						<path class="st0" d="M19.59,0.26c0.04,0,0.11-0.01,0.11-0.06c0-0.05-0.07-0.06-0.11-0.06c-0.04,0-0.11,0.01-0.11,0.06
							C19.49,0.25,19.56,0.26,19.59,0.26L19.59,0.26z"/>
					</g>
				</g>
				<g>
					<g>
						<path class="st0" d="M19.91,0.58c0.04,0,0.11-0.01,0.11-0.06c0-0.05-0.07-0.06-0.11-0.06c-0.04,0-0.11,0.01-0.11,0.06
							C19.8,0.57,19.87,0.58,19.91,0.58L19.91,0.58z"/>
					</g>
				</g>
				<g>
					<g>
						<path class="st0" d="M0.22,13.46c0.04,0,0.11-0.01,0.11-0.06c0-0.05-0.07-0.06-0.11-0.06c-0.04,0-0.11,0.01-0.11,0.06
							C0.11,13.44,0.18,13.46,0.22,13.46L0.22,13.46z"/>
					</g>
				</g>
				<g>
					<g>
						<path class="st0" d="M0.76,13.29c0.01,0,0.01,0,0.02,0c0.01,0,0.03-0.01,0.04-0.01c0.01,0,0.02-0.01,0.03-0.02
							c0.01-0.01,0.01-0.01,0.01-0.02c0-0.01,0-0.02,0-0.02c0,0-0.01-0.01-0.01-0.01c-0.01-0.01-0.02-0.02-0.04-0.02
							c-0.01,0-0.02,0-0.03-0.01c-0.02,0-0.04,0-0.06,0c-0.01,0-0.01,0-0.02,0c-0.01,0-0.03,0.01-0.04,0.01
							c-0.01,0-0.02,0.01-0.03,0.02c-0.01,0.01-0.01,0.01-0.01,0.02c0,0.01,0,0.02,0,0.02c0,0,0.01,0.01,0.01,0.01
							c0.01,0.01,0.02,0.02,0.04,0.02c0.01,0,0.02,0,0.03,0.01C0.72,13.29,0.74,13.29,0.76,13.29L0.76,13.29z"/>
					</g>
				</g>
				<g>
					<g>
						<path class="st0" d="M1.33,13.06c0.04,0,0.11-0.01,0.11-0.06c0-0.05-0.07-0.06-0.11-0.06c-0.04,0-0.11,0.01-0.11,0.06
							C1.23,13.04,1.3,13.06,1.33,13.06L1.33,13.06z"/>
					</g>
				</g>
				<g>
					<g>
						<path class="st0" d="M1.96,12.84c0.04,0,0.11-0.01,0.11-0.06c0-0.05-0.07-0.06-0.11-0.06c-0.04,0-0.11,0.01-0.11,0.06
							C1.85,12.83,1.92,12.84,1.96,12.84L1.96,12.84z"/>
					</g>
				</g>
				<g>
					<g>
						<path class="st0" d="M2.56,12.54c0.04,0,0.11-0.01,0.11-0.06c0-0.05-0.07-0.06-0.11-0.06c-0.04,0-0.11,0.01-0.11,0.06
							C2.45,12.52,2.52,12.54,2.56,12.54L2.56,12.54z"/>
					</g>
				</g>
				<g>
					<g>
						<path class="st0" d="M2.92,12.33c0.04,0,0.11-0.01,0.11-0.06c0-0.05-0.07-0.06-0.11-0.06c-0.04,0-0.11,0.01-0.11,0.06
							C2.81,12.31,2.89,12.33,2.92,12.33L2.92,12.33z"/>
					</g>
				</g>
				<g>
					<g>
						<path class="st0" d="M3.25,12c0.04,0,0.11-0.01,0.11-0.06c0-0.05-0.07-0.06-0.11-0.06c-0.04,0-0.11,0.01-0.11,0.06
							C3.14,11.98,3.21,12,3.25,12L3.25,12z"/>
					</g>
				</g>
				<g>
					<g>
						<path class="st0" d="M3.8,11.47c0.04,0,0.11-0.01,0.11-0.06c0-0.05-0.07-0.06-0.11-0.06c-0.04,0-0.11,0.01-0.11,0.06
							C3.69,11.46,3.77,11.47,3.8,11.47L3.8,11.47z"/>
					</g>
				</g>
				<g>
					<g>
						<path class="st0" d="M3.99,11.27c0.04,0,0.11-0.01,0.11-0.06c0-0.05-0.07-0.06-0.11-0.06c-0.04,0-0.11,0.01-0.11,0.06
							C3.88,11.26,3.96,11.27,3.99,11.27L3.99,11.27z"/>
					</g>
				</g>
				<g>
					<g>
						<path class="st0" d="M4.18,11.49c0,0.01,0,0.02,0,0.03c0,0.01,0,0.02,0.01,0.02c0.01,0.01,0.01,0.02,0.02,0.02
							c0.01,0.01,0.02,0.01,0.03,0.01c0.01,0,0.03,0.01,0.04,0.01c0.01,0,0.02,0,0.03,0c0.02,0,0.03-0.01,0.05-0.02
							c0.01,0,0.01-0.01,0.02-0.01c0.01-0.01,0.01-0.02,0.01-0.03c0-0.01,0-0.02,0-0.03c0-0.01,0-0.02-0.01-0.02
							c-0.01-0.01-0.01-0.02-0.02-0.02c-0.01-0.01-0.02-0.01-0.03-0.01c-0.01,0-0.03-0.01-0.04-0.01c-0.01,0-0.02,0-0.03,0
							c-0.02,0-0.03,0.01-0.05,0.02c-0.01,0-0.01,0.01-0.02,0.01C4.18,11.47,4.18,11.48,4.18,11.49L4.18,11.49z"/>
					</g>
				</g>
				<g>
					<g>
						<path class="st0" d="M4.67,12.12c0.04,0,0.11-0.01,0.11-0.06c0-0.05-0.07-0.06-0.11-0.06c-0.04,0-0.11,0.01-0.11,0.06
							C4.57,12.11,4.64,12.12,4.67,12.12L4.67,12.12z"/>
					</g>
				</g>
				<g>
					<g>
						<path class="st0" d="M4.92,12.28c0.04,0,0.11-0.01,0.11-0.06c0-0.05-0.07-0.06-0.11-0.06c-0.04,0-0.11,0.01-0.11,0.06
							C4.81,12.27,4.88,12.28,4.92,12.28L4.92,12.28z"/>
					</g>
				</g>
				<g>
					<g>
						<path class="st0" d="M5.47,12.88c0.04,0,0.11-0.01,0.11-0.06c0-0.05-0.07-0.06-0.11-0.06c-0.04,0-0.11,0.01-0.11,0.06
							C5.37,12.87,5.44,12.88,5.47,12.88L5.47,12.88z"/>
					</g>
				</g>
				<g>
					<g>
						<path class="st0" d="M6.14,13.42c0.04,0,0.11-0.01,0.11-0.06c0-0.05-0.07-0.06-0.11-0.06c-0.04,0-0.11,0.01-0.11,0.06
							C6.03,13.4,6.1,13.42,6.14,13.42L6.14,13.42z"/>
					</g>
				</g>
				<g>
					<g>
						<path class="st0" d="M6.46,13.69c0.04,0,0.11-0.01,0.11-0.06c0-0.05-0.07-0.06-0.11-0.06c-0.04,0-0.11,0.01-0.11,0.06
							C6.35,13.68,6.42,13.69,6.46,13.69L6.46,13.69z"/>
					</g>
				</g>
				<g>
					<g>
						<path class="st0" d="M7.06,14.11c0.04,0,0.11-0.01,0.11-0.06c0-0.05-0.07-0.06-0.11-0.06c-0.04,0-0.11,0.01-0.11,0.06
							C6.95,14.1,7.03,14.11,7.06,14.11L7.06,14.11z"/>
					</g>
				</g>
				<g>
					<g>
						<path class="st0" d="M7.61,14.42c0.04,0,0.11-0.01,0.11-0.06c0-0.05-0.07-0.06-0.11-0.06c-0.04,0-0.11,0.01-0.11,0.06
							C7.5,14.41,7.57,14.42,7.61,14.42L7.61,14.42z"/>
					</g>
				</g>
				<g>
					<g>
						<path class="st0" d="M8.35,14.72c0.01,0,0.02-0.01,0.03-0.01c0.01,0,0.02-0.01,0.02-0.02c0.01-0.01,0.01-0.01,0.01-0.02
							c0-0.01,0-0.02-0.01-0.02c-0.01-0.01-0.01-0.02-0.02-0.02c-0.01,0-0.01-0.01-0.02-0.01C8.34,14.6,8.32,14.6,8.31,14.6
							c-0.01,0-0.02,0-0.03,0c-0.02,0-0.03,0.01-0.05,0.02c-0.01,0-0.02,0.01-0.03,0.01c-0.01,0-0.02,0.01-0.02,0.02
							c-0.01,0.01-0.01,0.01-0.01,0.02c0,0.01,0,0.02,0.01,0.02c0.01,0.01,0.01,0.02,0.02,0.02c0.01,0,0.01,0.01,0.02,0.01
							c0.02,0.01,0.04,0.01,0.05,0.01c0.01,0,0.02,0,0.03,0C8.32,14.74,8.34,14.73,8.35,14.72L8.35,14.72z"/>
					</g>
				</g>
				<g>
					<g>
						<path class="st0" d="M9.06,14.91c0.04,0,0.11-0.01,0.11-0.06c0-0.05-0.07-0.06-0.11-0.06c-0.04,0-0.11,0.01-0.11,0.06
							C8.95,14.89,9.03,14.91,9.06,14.91L9.06,14.91z"/>
					</g>
				</g>
				<g>
					<g>
						<path class="st0" d="M9.94,14.95c0,0,0.01-0.01,0.01-0.01c0.01-0.01,0.01-0.01,0.01-0.02c0-0.01,0-0.02,0-0.02
							c0-0.01-0.01-0.02-0.02-0.02c-0.01-0.01-0.02-0.01-0.03-0.02c-0.01,0-0.02,0-0.03-0.01c-0.02,0-0.04,0-0.06,0
							c-0.01,0-0.02,0-0.03,0.01c-0.01,0-0.03,0.01-0.04,0.02c0,0-0.01,0.01-0.01,0.01c-0.01,0.01-0.01,0.01-0.01,0.02
							c0,0.01,0,0.02,0,0.02c0,0.01,0.01,0.02,0.02,0.02c0.01,0.01,0.02,0.01,0.03,0.02c0.01,0,0.02,0,0.03,0.01
							c0.02,0,0.04,0,0.06,0c0.01,0,0.02,0,0.03-0.01C9.91,14.97,9.93,14.96,9.94,14.95L9.94,14.95z"/>
					</g>
				</g>
				<g>
					<g>
						<path class="st0" d="M10.62,15.05c0.04,0,0.11-0.01,0.11-0.06c0-0.05-0.07-0.06-0.11-0.06c-0.04,0-0.11,0.01-0.11,0.06
							C10.51,15.03,10.58,15.05,10.62,15.05L10.62,15.05z"/>
					</g>
				</g>
				<g>
					<g>
						<path class="st0" d="M11.28,14.88c0.04,0,0.11-0.01,0.11-0.06c0-0.05-0.07-0.06-0.11-0.06c-0.04,0-0.11,0.01-0.11,0.06
							C11.17,14.86,11.24,14.88,11.28,14.88L11.28,14.88z"/>
					</g>
				</g>
				<g>
					<g>
						<path class="st0" d="M11.97,14.72c0.04,0,0.11-0.01,0.11-0.06c0-0.05-0.07-0.06-0.11-0.06c-0.04,0-0.11,0.01-0.11,0.06
							C11.86,14.7,11.93,14.72,11.97,14.72L11.97,14.72z"/>
					</g>
				</g>
				<g>
					<g>
						<path class="st0" d="M12.51,14.39c0.04,0,0.11-0.01,0.11-0.06c0-0.05-0.07-0.06-0.11-0.06c-0.04,0-0.11,0.01-0.11,0.06
							C12.4,14.37,12.48,14.39,12.51,14.39L12.51,14.39z"/>
					</g>
				</g>
				<g>
					<g>
						<path class="st0" d="M13.31,14.07c0.04,0,0.11-0.01,0.11-0.06c0-0.05-0.07-0.06-0.11-0.06c-0.04,0-0.11,0.01-0.11,0.06
							C13.2,14.06,13.27,14.07,13.31,14.07L13.31,14.07z"/>
					</g>
				</g>
				<g>
					<g>
						<path class="st0" d="M13.67,13.64c0.04,0,0.11-0.01,0.11-0.06c0-0.05-0.07-0.06-0.11-0.06c-0.04,0-0.11,0.01-0.11,0.06
							C13.57,13.63,13.64,13.64,13.67,13.64L13.67,13.64z"/>
					</g>
				</g>
				<g>
					<g>
						<path class="st0" d="M14.26,13.18c0.04,0,0.11-0.01,0.11-0.06c0-0.05-0.07-0.06-0.11-0.06c-0.04,0-0.11,0.01-0.11,0.06
							C14.16,13.17,14.23,13.18,14.26,13.18L14.26,13.18z"/>
					</g>
				</g>
				<g>
					<g>
						<path class="st0" d="M14.89,12.61c0.04,0,0.11-0.01,0.11-0.06c0-0.05-0.07-0.06-0.11-0.06c-0.04,0-0.11,0.01-0.11,0.06
							C14.78,12.59,14.86,12.61,14.89,12.61L14.89,12.61z"/>
					</g>
				</g>
				<g>
					<g>
						<path class="st0" d="M15.35,12.14c0.04,0,0.11-0.01,0.11-0.06c0-0.05-0.07-0.06-0.11-0.06c-0.04,0-0.11,0.01-0.11,0.06
							C15.24,12.12,15.31,12.14,15.35,12.14L15.35,12.14z"/>
					</g>
				</g>
				<g>
					<g>
						<path class="st0" d="M15.71,11.69c0.04,0,0.11-0.01,0.11-0.06c0-0.05-0.07-0.06-0.11-0.06c-0.04,0-0.11,0.01-0.11,0.06
							C15.6,11.67,15.68,11.69,15.71,11.69L15.71,11.69z"/>
					</g>
				</g>
				<g>
					<g>
						<path class="st0" d="M16.04,11.3c0.04,0,0.11-0.01,0.11-0.06c0-0.05-0.07-0.06-0.11-0.06c-0.04,0-0.11,0.01-0.11,0.06
							C15.94,11.29,16.01,11.3,16.04,11.3L16.04,11.3z"/>
					</g>
				</g>
				<g>
					<g>
						<path class="st0" d="M16.6,11.67c0.04,0,0.11-0.01,0.11-0.06c0-0.05-0.07-0.06-0.11-0.06c-0.04,0-0.11,0.01-0.11,0.06
							C16.49,11.66,16.56,11.67,16.6,11.67L16.6,11.67z"/>
					</g>
				</g>
				<g>
					<g>
						<path class="st0" d="M17.29,12.13c0.04,0,0.11-0.01,0.11-0.06c0-0.05-0.07-0.06-0.11-0.06c-0.04,0-0.11,0.01-0.11,0.06
							C17.18,12.12,17.25,12.13,17.29,12.13L17.29,12.13z"/>
					</g>
				</g>
				<g>
					<g>
						<path class="st0" d="M18.02,12.52c0.01-0.01,0.02-0.02,0.03-0.03c0.01-0.01,0.01-0.01,0.01-0.02c0-0.01,0-0.02,0-0.02
							c0-0.01-0.01-0.02-0.02-0.02c-0.01-0.01-0.02-0.01-0.03-0.02c-0.01,0-0.02,0-0.03-0.01c-0.02,0-0.04,0-0.06,0
							c-0.01,0-0.02,0-0.03,0.01c-0.01,0-0.03,0.01-0.04,0.02c-0.01,0.01-0.02,0.02-0.03,0.03c-0.01,0.01-0.01,0.01-0.01,0.02
							c0,0.01,0,0.02,0,0.02c0,0.01,0.01,0.02,0.02,0.02c0.01,0.01,0.02,0.01,0.03,0.02c0.01,0,0.02,0,0.03,0.01
							c0.02,0,0.04,0,0.06,0c0.01,0,0.02,0,0.03-0.01C18,12.54,18.01,12.53,18.02,12.52L18.02,12.52z"/>
					</g>
				</g>
				<g>
					<g>
						<path class="st0" d="M18.57,12.88c0.04,0,0.11-0.01,0.11-0.06c0-0.05-0.07-0.06-0.11-0.06c-0.04,0-0.11,0.01-0.11,0.06
							C18.46,12.87,18.53,12.88,18.57,12.88L18.57,12.88z"/>
					</g>
				</g>
				<g>
					<g>
						<path class="st0" d="M19.25,13.12c0.04,0,0.11-0.01,0.11-0.06c0-0.05-0.07-0.06-0.11-0.06c-0.04,0-0.11,0.01-0.11,0.06
							C19.14,13.1,19.21,13.12,19.25,13.12L19.25,13.12z"/>
					</g>
				</g>
				<g>
					<g>
						<path class="st0" d="M19.96,13.41c0.04,0,0.11-0.01,0.11-0.06c0-0.05-0.07-0.06-0.11-0.06c-0.04,0-0.11,0.01-0.11,0.06
							C19.85,13.39,19.92,13.41,19.96,13.41L19.96,13.41z"/>
					</g>
				</g>
				<g>
					<g>
						<path class="st0" d="M-5.3,4.36c-0.01,0.25,0,0.55,0.22,0.71c0.17,0.12,0.45,0.15,0.6-0.02c-0.07,0-0.13-0.01-0.2-0.01
							c0.14,0.22,0.3,0.45,0.55,0.55c0.12,0.05,0.25,0.07,0.38,0.05c0.06-0.01,0.12-0.03,0.18-0.06c0.06-0.03,0.1-0.09,0.17-0.06
							c0.13,0.04,0.25,0.15,0.37,0.22c0.12,0.07,0.26,0.13,0.4,0.14c0.22,0.01,0.5-0.13,0.46-0.39c-0.05,0.02-0.09,0.04-0.14,0.06
							c0.18,0.03,0.33,0.14,0.5,0.21c0.13,0.06,0.26,0.1,0.41,0.09c0.13,0,0.27-0.04,0.36-0.14c0.08-0.09,0.08-0.3,0.23-0.32
							c0.13-0.02,0.27,0.03,0.41,0c0.14-0.03,0.23-0.11,0.28-0.24c0.06-0.13,0.08-0.27,0.24-0.31c0.13-0.03,0.27-0.02,0.4-0.07
							c0.17-0.07,0.22-0.22,0.28-0.38c0.06-0.18,0.19-0.34,0.37-0.41c0.13-0.06-0.03-0.14-0.11-0.11C0.9,3.95,0.78,4.03,0.69,4.15
							C0.6,4.28,0.57,4.42,0.51,4.55C0.44,4.71,0.3,4.71,0.15,4.72C0.03,4.73-0.11,4.76-0.2,4.85C-0.3,4.94-0.31,5.08-0.38,5.19
							C-0.45,5.32-0.6,5.28-0.73,5.28c-0.12-0.01-0.26,0-0.35,0.09c-0.1,0.09-0.09,0.26-0.21,0.34c-0.14,0.09-0.32,0.01-0.45-0.06
							c-0.17-0.09-0.33-0.18-0.52-0.21c-0.03,0-0.15,0-0.14,0.06c0.02,0.1-0.03,0.2-0.13,0.24c-0.11,0.05-0.24-0.01-0.34-0.07
							c-0.18-0.1-0.36-0.29-0.58-0.29c-0.11,0-0.18,0.05-0.27,0.1c-0.1,0.06-0.21,0.05-0.31,0.01C-4.22,5.39-4.36,5.18-4.48,5
							c-0.04-0.06-0.15-0.07-0.2-0.01C-4.78,5.11-4.95,5-5.01,4.88C-5.1,4.72-5.09,4.53-5.09,4.36C-5.09,4.27-5.3,4.27-5.3,4.36
							L-5.3,4.36z"/>
					</g>
				</g>
				<g>
					<g>
						<path class="st0" d="M-0.07,6.92c0.04,0,0.11-0.01,0.11-0.06c0-0.05-0.07-0.06-0.11-0.06c-0.04,0-0.11,0.01-0.11,0.06
							C-0.18,6.9-0.1,6.92-0.07,6.92L-0.07,6.92z"/>
					</g>
				</g>
				<g>
					<g>
						<path class="st0" d="M0.86,8.84c0.04,0,0.11-0.01,0.11-0.06c0-0.05-0.07-0.06-0.11-0.06c-0.04,0-0.11,0.01-0.11,0.06
							C0.75,8.82,0.83,8.84,0.86,8.84L0.86,8.84z"/>
					</g>
				</g>
				<g>
					<g>
						<path class="st0" d="M1.46,8.35c0.04,0,0.11-0.01,0.11-0.06c0-0.05-0.07-0.06-0.11-0.06c-0.04,0-0.11,0.01-0.11,0.06
							C1.35,8.33,1.42,8.35,1.46,8.35L1.46,8.35z"/>
					</g>
				</g>
				<g>
					<g>
						<path class="st0" d="M0.83,7.6c0.04,0,0.11-0.01,0.11-0.06c0-0.05-0.07-0.06-0.11-0.06c-0.04,0-0.11,0.01-0.11,0.06
							C0.72,7.59,0.79,7.6,0.83,7.6L0.83,7.6z"/>
					</g>
				</g>
				<g>
					<g>
						<path class="st0" d="M0.54,7.97c0.04,0,0.11-0.01,0.11-0.06c0-0.05-0.07-0.06-0.11-0.06c-0.04,0-0.11,0.01-0.11,0.06
							C0.43,7.96,0.51,7.97,0.54,7.97L0.54,7.97z"/>
					</g>
				</g>
				<g>
					<g>
						<path class="st0" d="M0.72,8.36c0.04,0,0.11-0.01,0.11-0.06c0-0.05-0.07-0.06-0.11-0.06c-0.04,0-0.11,0.01-0.11,0.06
							C0.61,8.35,0.68,8.36,0.72,8.36L0.72,8.36z"/>
					</g>
				</g>
				<g>
					<g>
						<path class="st0" d="M-0.1,8.61c0.04,0,0.11-0.01,0.11-0.06c0-0.05-0.07-0.06-0.11-0.06c-0.04,0-0.11,0.01-0.11,0.06
							C-0.21,8.6-0.13,8.61-0.1,8.61L-0.1,8.61z"/>
					</g>
				</g>
				<g>
					<g>
						<path class="st0" d="M0.02,9.03c0.04,0,0.11-0.01,0.11-0.06c0-0.05-0.07-0.06-0.11-0.06c-0.04,0-0.11,0.01-0.11,0.06
							C-0.09,9.01-0.02,9.03,0.02,9.03L0.02,9.03z"/>
					</g>
				</g>
				<g>
					<g>
						<path class="st0" d="M1.64,7.83c0.04,0,0.11-0.01,0.11-0.06c0-0.05-0.07-0.06-0.11-0.06c-0.04,0-0.11,0.01-0.11,0.06
							C1.53,7.81,1.6,7.83,1.64,7.83L1.64,7.83z"/>
					</g>
				</g>
				<g>
					<g>
						<path class="st0" d="M1.81,6.94c0.04,0,0.11-0.01,0.11-0.06c0-0.05-0.07-0.06-0.11-0.06c-0.04,0-0.11,0.01-0.11,0.06
							C1.7,6.93,1.78,6.94,1.81,6.94L1.81,6.94z"/>
					</g>
				</g>
				<g>
					<g>
						<path class="st0" d="M0.5,6.66c0.04,0,0.11-0.01,0.11-0.06c0-0.05-0.07-0.06-0.11-0.06c-0.04,0-0.11,0.01-0.11,0.06
							C0.39,6.64,0.46,6.66,0.5,6.66L0.5,6.66z"/>
					</g>
				</g>
				<g>
					<g>
						<path class="st0" d="M0.78,6.04C0.79,6.04,0.79,6.03,0.8,6.02C0.81,6.01,0.81,6.01,0.81,6c0-0.01,0-0.02,0-0.02
							c0-0.01-0.01-0.02-0.02-0.02C0.78,5.94,0.77,5.94,0.76,5.93c-0.01,0-0.02,0-0.03-0.01c-0.02,0-0.04,0-0.06,0
							c-0.01,0-0.02,0-0.03,0.01c-0.01,0-0.03,0.01-0.04,0.02C0.61,5.96,0.6,5.97,0.6,5.98C0.59,5.99,0.58,5.99,0.58,6
							c0,0.01,0,0.02,0,0.02c0,0.01,0.01,0.02,0.02,0.02c0.01,0.01,0.02,0.01,0.03,0.02c0.01,0,0.02,0,0.03,0.01
							c0.02,0,0.04,0,0.06,0c0.01,0,0.02,0,0.03-0.01C0.76,6.06,0.77,6.05,0.78,6.04L0.78,6.04z"/>
					</g>
				</g>
				<g>
					<g>
						<path class="st0" d="M1.28,5.87c0.04,0,0.11-0.01,0.11-0.06c0-0.05-0.07-0.06-0.11-0.06c-0.04,0-0.11,0.01-0.11,0.06
							C1.17,5.86,1.25,5.87,1.28,5.87L1.28,5.87z"/>
					</g>
				</g>
				<g>
					<g>
						<path class="st0" d="M1.22,6.52c0.04,0,0.11-0.01,0.11-0.06c0-0.05-0.07-0.06-0.11-0.06c-0.04,0-0.11,0.01-0.11,0.06
							C1.11,6.51,1.19,6.52,1.22,6.52L1.22,6.52z"/>
					</g>
				</g>
				<g>
					<g>
						<path class="st0" d="M1.04,7c0.04,0,0.11-0.01,0.11-0.06c0-0.05-0.07-0.06-0.11-0.06C1,6.87,0.93,6.89,0.93,6.94
							C0.93,6.98,1,7,1.04,7L1.04,7z"/>
					</g>
				</g>
				<g>
					<g>
						<path class="st0" d="M0.35,7.27c0.04,0,0.11-0.01,0.11-0.06c0-0.05-0.07-0.06-0.11-0.06c-0.04,0-0.11,0.01-0.11,0.06
							C0.24,7.26,0.31,7.27,0.35,7.27L0.35,7.27z"/>
					</g>
				</g>
				<g>
					<g>
						<path class="st0" d="M2.17,7.76c0.04,0,0.11-0.01,0.11-0.06c0-0.05-0.07-0.06-0.11-0.06c-0.04,0-0.11,0.01-0.11,0.06
							C2.06,7.75,2.13,7.76,2.17,7.76L2.17,7.76z"/>
					</g>
				</g>
				<g>
					<g>
						<path class="st0" d="M2.91,7.17c0.04,0,0.11-0.01,0.11-0.06c0-0.05-0.07-0.06-0.11-0.06c-0.04,0-0.11,0.01-0.11,0.06
							C2.81,7.15,2.88,7.17,2.91,7.17L2.91,7.17z"/>
					</g>
				</g>
				<g>
					<g>
						<path class="st0" d="M2.63,5.74c0.04,0,0.11-0.01,0.11-0.06c0-0.05-0.07-0.06-0.11-0.06c-0.04,0-0.11,0.01-0.11,0.06
							C2.52,5.73,2.59,5.74,2.63,5.74L2.63,5.74z"/>
					</g>
				</g>
				<g>
					<g>
						<path class="st0" d="M2.22,5.79c0.04,0,0.11-0.01,0.11-0.06c0-0.05-0.07-0.06-0.11-0.06c-0.04,0-0.11,0.01-0.11,0.06
							C2.11,5.78,2.19,5.79,2.22,5.79L2.22,5.79z"/>
					</g>
				</g>
				<g>
					<g>
						<path class="st0" d="M2.27,6.3c0.04,0,0.11-0.01,0.11-0.06c0-0.05-0.07-0.06-0.11-0.06c-0.04,0-0.11,0.01-0.11,0.06
							C2.16,6.29,2.23,6.3,2.27,6.3L2.27,6.3z"/>
					</g>
				</g>
				<g>
					<g>
						<path class="st0" d="M3.26,6.34c0.04,0,0.11-0.01,0.11-0.06c0-0.05-0.07-0.06-0.11-0.06c-0.04,0-0.11,0.01-0.11,0.06
							C3.15,6.33,3.23,6.34,3.26,6.34L3.26,6.34z"/>
					</g>
				</g>
				<g>
					<g>
						<path class="st0" d="M4.28,6.87c0.04,0,0.11-0.01,0.11-0.06c0-0.05-0.07-0.06-0.11-0.06c-0.04,0-0.11,0.01-0.11,0.06
							C4.17,6.86,4.24,6.87,4.28,6.87L4.28,6.87z"/>
					</g>
				</g>
				<g>
					<g>
						<path class="st0" d="M3.94,6.5c0.04,0,0.11-0.01,0.11-0.06c0-0.05-0.07-0.06-0.11-0.06c-0.04,0-0.11,0.01-0.11,0.06
							C3.83,6.49,3.91,6.5,3.94,6.5L3.94,6.5z"/>
					</g>
				</g>
				<g>
					<g>
						<path class="st0" d="M3.56,6.9c0.04,0,0.11-0.01,0.11-0.06c0-0.05-0.07-0.06-0.11-0.06c-0.04,0-0.11,0.01-0.11,0.06
							C3.45,6.89,3.53,6.9,3.56,6.9L3.56,6.9z"/>
					</g>
				</g>
				<g>
					<g>
						<path class="st0" d="M3.48,7.43c0.04,0,0.11-0.01,0.11-0.06c0-0.05-0.07-0.06-0.11-0.06c-0.04,0-0.11,0.01-0.11,0.06
							C3.38,7.41,3.45,7.43,3.48,7.43L3.48,7.43z"/>
					</g>
				</g>
				<g>
					<g>
						<path class="st0" d="M2.64,7.91c0.04,0,0.11-0.01,0.11-0.06c0-0.05-0.07-0.06-0.11-0.06c-0.04,0-0.11,0.01-0.11,0.06
							C2.53,7.89,2.6,7.91,2.64,7.91L2.64,7.91z"/>
					</g>
				</g>
				<g>
					<g>
						<path class="st0" d="M2.46,6.82c0.04,0,0.11-0.01,0.11-0.06c0-0.05-0.07-0.06-0.11-0.06c-0.04,0-0.11,0.01-0.11,0.06
							C2.35,6.8,2.42,6.82,2.46,6.82L2.46,6.82z"/>
					</g>
				</g>
				<g>
					<g>
						<path class="st0" d="M2.89,6.35C2.93,6.35,3,6.33,3,6.28c0-0.05-0.07-0.06-0.11-0.06c-0.04,0-0.11,0.01-0.11,0.06
							C2.78,6.33,2.86,6.35,2.89,6.35L2.89,6.35z"/>
					</g>
				</g>
				<g>
					<g>
						<path class="st0" d="M2.54,6.99c0.04,0,0.11-0.01,0.11-0.06c0-0.05-0.07-0.06-0.11-0.06c-0.04,0-0.11,0.01-0.11,0.06
							C2.43,6.98,2.51,6.99,2.54,6.99L2.54,6.99z"/>
					</g>
				</g>
				<g>
					<g>
						<path class="st0" d="M2.49,7.39c0.04,0,0.11-0.01,0.11-0.06c0-0.05-0.07-0.06-0.11-0.06c-0.04,0-0.11,0.01-0.11,0.06
							C2.38,7.37,2.45,7.39,2.49,7.39L2.49,7.39z"/>
					</g>
				</g>
				<g>
					<g>
						<path class="st0" d="M1.5,7.43c0.04,0,0.11-0.01,0.11-0.06c0-0.05-0.07-0.06-0.11-0.06c-0.04,0-0.11,0.01-0.11,0.06
							C1.4,7.42,1.47,7.43,1.5,7.43L1.5,7.43z"/>
					</g>
				</g>
				<g>
					<g>
						<path class="st0" d="M1.97,5.68c0.01-0.01,0.01-0.02,0.02-0.02C2,5.65,2,5.65,2,5.64c0-0.01,0-0.02,0-0.02
							C2,5.6,1.99,5.6,1.98,5.59C1.97,5.58,1.96,5.58,1.95,5.57c-0.01,0-0.02,0-0.03-0.01c-0.02,0-0.04,0-0.06,0
							c-0.01,0-0.02,0-0.03,0.01c-0.01,0-0.03,0.01-0.04,0.02C1.8,5.6,1.79,5.61,1.79,5.62C1.78,5.63,1.78,5.63,1.77,5.64
							c0,0.01,0,0.02,0,0.02c0,0.01,0.01,0.02,0.02,0.02C1.8,5.7,1.82,5.7,1.83,5.71c0.01,0,0.02,0,0.03,0.01c0.02,0,0.04,0,0.06,0
							c0.01,0,0.02,0,0.03-0.01C1.95,5.7,1.96,5.69,1.97,5.68L1.97,5.68z"/>
					</g>
				</g>
				<g>
					<g>
						<path class="st0" d="M1.79,5.02c0.04,0,0.11-0.01,0.11-0.06c0-0.05-0.07-0.06-0.11-0.06c-0.04,0-0.11,0.01-0.11,0.06
							C1.68,5.01,1.76,5.02,1.79,5.02L1.79,5.02z"/>
					</g>
				</g>
				<g>
					<g>
						<path class="st0" d="M1.8,6.24c0.04,0,0.11-0.01,0.11-0.06c0-0.05-0.07-0.06-0.11-0.06c-0.04,0-0.11,0.01-0.11,0.06
							C1.7,6.23,1.77,6.24,1.8,6.24L1.8,6.24z"/>
					</g>
				</g>
				<g>
					<g>
						<path class="st0" d="M1.6,5.46c0.04,0,0.11-0.01,0.11-0.06c0-0.05-0.07-0.06-0.11-0.06c-0.04,0-0.11,0.01-0.11,0.06
							C1.49,5.45,1.57,5.46,1.6,5.46L1.6,5.46z"/>
					</g>
				</g>
				<g>
					<g>
						<path class="st0" d="M2.15,5.41c0.04,0,0.11-0.01,0.11-0.06c0-0.05-0.07-0.06-0.11-0.06c-0.04,0-0.11,0.01-0.11,0.06
							C2.04,5.4,2.12,5.41,2.15,5.41L2.15,5.41z"/>
					</g>
				</g>
				<g>
					<path class="st0" d="M9.53,10.71c-0.01,0-0.02,0-0.03,0c-0.08-0.01-0.15-0.07-0.18-0.15L8.74,8.65L7.18,9.61
						c-0.07,0.04-0.15,0.04-0.22,0S6.85,9.5,6.85,9.43l0.03-1.68L5.17,7.93C5.05,7.94,4.95,7.86,4.93,7.74
						C4.92,7.62,5.01,7.51,5.13,7.5l1.95-0.22C7.14,7.28,7.2,7.3,7.24,7.34c0.05,0.04,0.07,0.1,0.07,0.16L7.29,9.04l1.46-0.9
						C8.81,8.1,8.88,8.1,8.94,8.12C9,8.14,9.05,8.19,9.07,8.26L9.6,9.99l1-1.55c0.04-0.07,0.12-0.1,0.2-0.1
						c0.08,0.01,0.15,0.06,0.18,0.13l0.6,1.38l0.83-2.05c0.03-0.07,0.09-0.12,0.16-0.13c0.07-0.01,0.15,0.01,0.2,0.06l0.93,0.99
						l0-1.67c0-0.07,0.03-0.13,0.09-0.17c0.05-0.04,0.12-0.05,0.19-0.04c0.74,0.21,1.22,0.34,1.53,0.44
						c-0.05-0.32-0.11-0.85-0.2-1.74c-0.01-0.1,0.05-0.19,0.15-0.23c0.1-0.03,0.2,0.01,0.25,0.09l0.7,1.14l0.63-2.83
						c0.02-0.11,0.12-0.18,0.23-0.17c0.11,0.01,0.19,0.1,0.2,0.2l0.17,3.49L19.1,5.3c0.06-0.08,0.17-0.11,0.26-0.06
						c0.09,0.04,0.14,0.14,0.12,0.24l-0.5,2.32l1.56-1.57c0.06-0.06,0.15-0.08,0.24-0.05c0.08,0.03,0.13,0.11,0.13,0.2l0.02,2.23
						l1.48-1.49c0.06-0.06,0.14-0.08,0.21-0.05c0.08,0.02,0.13,0.09,0.15,0.16l0.34,1.64l1.02-1.29c0.05-0.07,0.14-0.1,0.22-0.08
						c0.08,0.02,0.15,0.09,0.16,0.17l0.18,1.01l0.91-1.06c0.04-0.05,0.1-0.07,0.16-0.08c0.08,0,0.12,0.02,0.16,0.07l0.47,0.5
						l0.25-0.33c0.03-0.04,0.09-0.07,0.14-0.08l0.48-0.07c0.12-0.02,0.23,0.07,0.24,0.18c0.02,0.12-0.07,0.23-0.18,0.24l-0.39,0.05
						l-0.35,0.46c-0.04,0.05-0.1,0.08-0.16,0.08c-0.06,0-0.12-0.02-0.17-0.07l-0.48-0.51l-1.05,1.22c-0.05,0.06-0.14,0.09-0.22,0.07
						c-0.08-0.02-0.14-0.09-0.16-0.17l-0.18-0.99l-1,1.27c-0.05,0.07-0.14,0.1-0.22,0.08c-0.08-0.02-0.14-0.08-0.16-0.17l-0.35-1.7
						l-1.56,1.57c-0.06,0.06-0.15,0.08-0.23,0.05c-0.08-0.03-0.13-0.11-0.13-0.2L20.49,6.9l-1.72,1.73
						c-0.07,0.07-0.17,0.08-0.26,0.04c-0.08-0.05-0.13-0.14-0.11-0.24l0.46-2.11l-1.25,1.63c-0.06,0.07-0.15,0.1-0.24,0.07
						c-0.09-0.03-0.15-0.11-0.15-0.2L17.1,5.36l-0.39,1.78c-0.02,0.09-0.09,0.15-0.17,0.17c-0.09,0.02-0.17-0.02-0.22-0.1
						l-0.48-0.77c0.06,0.52,0.12,0.94,0.15,1.04c0.05,0.05,0.04,0.09,0.02,0.15c-0.03,0.11-0.14,0.18-0.26,0.16
						c-0.03-0.01-0.05-0.01-0.07-0.02c-0.19-0.06-0.93-0.26-1.54-0.44l0,1.93c0,0.09-0.05,0.17-0.14,0.2
						c-0.08,0.03-0.18,0.01-0.24-0.05l-1.07-1.14l-0.9,2.22c-0.03,0.08-0.11,0.13-0.2,0.14c-0.09,0.01-0.17-0.05-0.2-0.13
						l-0.64-1.48l-1.03,1.6C9.68,10.68,9.61,10.71,9.53,10.71z"/>
				</g>
			</g>
		</g>
	</g>
</g>
<g id="Halt">
</g>
<g id="Brust_umschlieen">
</g>
<g id="Tiefer_Auschnitt">
</g>
<g id="Trgerlos">
</g>
<g id="Offen">
</g>
<g id="Nicht_auftragen">
</g>
<g id="Kurven">
</g>
<g id="Brustwarzen">
</g>
<g id="Leicht">
</g>
<g id="Mode">
</g>
<g id="Wattierung">
</g>
</svg>
