<?xml version="1.0" encoding="utf-8"?>
<!-- Generator: Adobe Illustrator 25.2.1, SVG Export Plug-In . SVG Version: 6.00 Build 0)  -->
<svg version="1.1" xmlns="http://www.w3.org/2000/svg" xmlns:xlink="http://www.w3.org/1999/xlink" x="0px" y="0px"
	 viewBox="0 0 20 20" style="enable-background:new 0 0 20 20;" xml:space="preserve">
<style type="text/css">
	.st0{fill:#333333;}
	.st1{fill:#FFFFFF;}
	.st2{clip-path:url(#SVGID_2_);}
	.st3{fill:none;stroke:#000000;stroke-width:3;stroke-linecap:round;stroke-linejoin:round;stroke-miterlimit:10;}
	.st4{clip-path:url(#SVGID_4_);}
	.st5{clip-path:url(#SVGID_6_);}
	.st6{fill:url(#);}
</style>
<g id="Bequem">
</g>
<g id="Nichtabzeichnen">
</g>
<g id="Spitze">
</g>
<g id="Halt">
	<g>
		<g>
			<path class="st0" d="M11.69,18.62h-3.4c-0.18,0-0.33-0.15-0.33-0.33v-2.6c0-0.18,0.15-0.33,0.33-0.33s0.33,0.15,0.33,0.33v2.27
				h2.74v-2.27c0-0.18,0.15-0.33,0.33-0.33s0.33,0.15,0.33,0.33v2.6C12.02,18.47,11.87,18.62,11.69,18.62z"/>
		</g>
		<path class="st0" d="M6.76,5.46h1.2v1.82c0,0.18,0.15,0.33,0.33,0.33s0.33-0.15,0.33-0.33V5.12c0-0.18-0.15-0.33-0.33-0.33H7.49
			l2.49-2.82l2.49,2.82h-0.79c-0.18,0-0.33,0.15-0.33,0.33v2.15c0,0.18,0.15,0.33,0.33,0.33s0.33-0.15,0.33-0.33V5.46h1.2
			c0.13,0,0.25-0.08,0.3-0.2C13.58,5.14,13.56,5,13.47,4.9l-3.23-3.66c-0.13-0.14-0.37-0.14-0.5,0L6.51,4.9
			C6.42,5,6.4,5.14,6.45,5.26C6.51,5.38,6.62,5.46,6.76,5.46z"/>
		<path class="st0" d="M17.64,6.16C17.64,6.16,17.63,6.16,17.64,6.16l-0.01-3.91c0-0.18-0.15-0.33-0.33-0.33
			c-0.18,0-0.33,0.15-0.33,0.33v3.89c-0.17,0.01-0.35,0.03-0.5,0.07c-4.1,1.24-5.48,2.67-5.9,3.26c-0.05-0.03-0.1-0.05-0.17-0.05
			H9.6c-0.06,0-0.12,0.02-0.17,0.05c-0.42-0.59-1.8-2.02-5.9-3.26C3.38,6.17,3.18,6.15,2.99,6.14V2.25c0-0.18-0.15-0.33-0.33-0.33
			c-0.18,0-0.33,0.15-0.33,0.33v3.91c0,0.02,0.01,0.04,0.01,0.05c-0.2,0.51-1.65,4.43,0.02,7c0,0.04,0.02,0.08,0.04,0.12l0.29,1.75
			c0.03,0.16,0.16,0.27,0.32,0.28c0.04,0,0.72,0.03,1.49,0.03c0.4,0,0.84-0.01,1.22-0.03c1.02-0.05,1.92-0.45,2.72-0.79
			C9,14.33,9.53,14.1,10,14.04H10c0.47,0.06,0.99,0.3,1.55,0.54c0.79,0.35,1.69,0.74,2.72,0.79c0.39,0.02,0.82,0.03,1.22,0.03
			c0.78,0,1.45-0.02,1.49-0.03c0.16-0.01,0.29-0.12,0.32-0.28l0.29-1.75c0.02-0.04,0.04-0.08,0.04-0.12
			C19.42,10.47,17.64,6.16,17.64,6.16z M2.94,12.9c-0.01-0.01-0.01-0.03-0.02-0.04C1.64,10.88,2.48,7.87,2.84,6.8c0,0,0.01,0,0.01,0
			c0.3,0,0.45,0.03,0.49,0.05c4.19,1.27,5.36,2.71,5.6,3.08c-0.01,0.9-0.3,1.64-0.84,2.2c-0.74,0.76-2.02,1.21-3.43,1.21
			c-0.92,0-1.47-0.2-1.65-0.3C3,12.98,2.98,12.94,2.94,12.9z M16.69,14.71c-0.49,0.01-1.56,0.03-2.39-0.01
			c-0.9-0.05-1.7-0.4-2.48-0.74c-0.61-0.27-1.18-0.52-1.75-0.59c-0.01,0-0.03,0-0.04,0h-0.01H9.99H9.97c-0.01,0-0.03,0-0.04,0
			c-0.57,0.07-1.14,0.33-1.75,0.59C7.4,14.31,6.6,14.66,5.7,14.71c-0.83,0.04-1.9,0.02-2.39,0.01L3.15,13.8
			c0.4,0.12,0.93,0.2,1.51,0.2c2.07,0,4.79-0.94,4.92-3.91c0,0,0.01,0,0.01,0h0.8c0,0,0.01,0,0.01,0c0.13,2.97,2.86,3.91,4.92,3.91
			c0.58,0,1.11-0.07,1.51-0.2L16.69,14.71z M17.08,12.86c-0.01,0.01-0.01,0.03-0.02,0.04c-0.04,0.04-0.06,0.08-0.08,0.13
			c-0.18,0.11-0.73,0.3-1.65,0.3c-1.4,0-2.68-0.45-3.43-1.21c-0.55-0.56-0.83-1.3-0.84-2.2c0.24-0.36,1.4-1.81,5.6-3.08
			c0.05-0.01,0.19-0.05,0.49-0.05c0,0,0.01,0,0.01,0C17.52,7.87,18.36,10.88,17.08,12.86z"/>
	</g>
</g>
<g id="Brust_umschließen">
</g>
<g id="Tiefer_Auschnitt">
</g>
<g id="Trägerlos">
</g>
<g id="Offen">
</g>
<g id="Nicht_auftragen">
</g>
<g id="Kurven">
</g>
<g id="Brustwarzen">
</g>
<g id="Leicht">
</g>
<g id="Mode">
</g>
<g id="Wattierung">
</g>
</svg>
