<?xml version="1.0" encoding="utf-8"?>
<!-- Generator: Adobe Illustrator 25.2.1, SVG Export Plug-In . SVG Version: 6.00 Build 0)  -->
<svg version="1.1" xmlns="http://www.w3.org/2000/svg" xmlns:xlink="http://www.w3.org/1999/xlink" x="0px" y="0px"
	 viewBox="0 0 20 20" style="enable-background:new 0 0 20 20;" xml:space="preserve">
<style type="text/css">
	.st0{fill:#333333;}
	.st1{fill:#FFFFFF;}
	.st2{clip-path:url(#SVGID_2_);}
	.st3{fill:none;stroke:#000000;stroke-width:3;stroke-linecap:round;stroke-linejoin:round;stroke-miterlimit:10;}
	.st4{clip-path:url(#SVGID_4_);}
	.st5{clip-path:url(#SVGID_6_);}
	.st6{fill:url(#);}
</style>
<g id="Bequem">
</g>
<g id="Nichtabzeichnen">
</g>
<g id="Spitze">
</g>
<g id="Halt">
</g>
<g id="Brust_umschließen">
</g>
<g id="Tiefer_Auschnitt">
	<path class="st0" d="M19.25,11.12l-2.61-2.68V3.28c0-0.18-0.15-0.33-0.33-0.33s-0.33,0.15-0.33,0.33v5.13
		c-1.1,0.7-4.51,2.95-5.33,4.66c-0.42-1.56-0.01-2.93,1.23-4.05c0.1-0.09,0.11-0.25,0.02-0.35c-0.09-0.1-0.25-0.11-0.35-0.02
		c-1.79,1.62-1.75,3.46-1.28,4.87H9.72c0.46-1.4,0.49-3.2-1.27-4.79C8.35,8.64,8.19,8.65,8.1,8.75C8.01,8.85,8.01,9.01,8.12,9.1
		c1.22,1.11,1.64,2.44,1.23,3.97c-0.83-1.74-4.38-4.06-5.4-4.7V3.23c0-0.18-0.15-0.33-0.33-0.33S3.28,3.05,3.28,3.23v5.18
		c0,0.03,0.01,0.06,0.02,0.08l-2.55,2.63c-0.07,0.07-0.1,0.17-0.09,0.26c0.02,0.19,0.49,4.75,3.3,5.39
		c0.16,0.06,0.94,0.33,1.87,0.33c0.5,0,1.04-0.08,1.55-0.31c0.49-0.22,0.95-0.63,1.32-1.12h2.6c0.37,0.49,0.84,0.89,1.32,1.12
		c0.51,0.23,1.05,0.31,1.55,0.31c0.93,0,1.72-0.28,1.87-0.33c2.82-0.65,3.29-5.2,3.3-5.39C19.35,11.29,19.32,11.19,19.25,11.12z
		 M9.43,14.26c0.01-0.03,0.02-0.05,0.04-0.08h1.07c0.01,0.03,0.03,0.06,0.04,0.08c0.07,0.25,0.18,0.5,0.3,0.74H9.12
		C9.25,14.77,9.35,14.52,9.43,14.26z M7.1,16.19c-1.28,0.59-2.91-0.04-2.92-0.05c-0.02-0.01-0.03-0.01-0.05-0.02
		c-2.11-0.46-2.69-3.9-2.79-4.66l2.39-2.46c2.3,1.46,5.3,3.82,5.13,4.78C8.67,14.88,7.82,15.86,7.1,16.19z M15.87,16.13
		c-0.02,0-0.03,0.01-0.05,0.02c-0.02,0.01-1.64,0.64-2.92,0.05c-0.72-0.33-1.57-1.32-1.75-2.39c-0.16-0.96,2.83-3.32,5.13-4.78
		l2.39,2.46C18.56,12.24,17.98,15.67,15.87,16.13z"/>
</g>
<g id="Trägerlos">
</g>
<g id="Offen">
</g>
<g id="Nicht_auftragen">
</g>
<g id="Kurven">
</g>
<g id="Brustwarzen">
</g>
<g id="Leicht">
</g>
<g id="Mode">
</g>
<g id="Wattierung">
</g>
</svg>
