<?xml version="1.0" encoding="utf-8"?>
<!-- Generator: Adobe Illustrator 25.2.1, SVG Export Plug-In . SVG Version: 6.00 Build 0)  -->
<svg version="1.1" xmlns="http://www.w3.org/2000/svg" xmlns:xlink="http://www.w3.org/1999/xlink" x="0px" y="0px"
	 viewBox="0 0 20 20" style="enable-background:new 0 0 20 20;" xml:space="preserve">
<style type="text/css">
	.st0{fill:#333333;}
	.st1{fill:#FFFFFF;}
	.st2{clip-path:url(#SVGID_2_);}
	.st3{fill:none;stroke:#000000;stroke-width:3;stroke-linecap:round;stroke-linejoin:round;stroke-miterlimit:10;}
	.st4{clip-path:url(#SVGID_4_);}
	.st5{clip-path:url(#SVGID_6_);}
	.st6{fill:url(#);}
</style>
<g id="Bequem">
</g>
<g id="Nichtabzeichnen">
</g>
<g id="Spitze">
</g>
<g id="Halt">
</g>
<g id="Brust_umschließen">
</g>
<g id="Tiefer_Auschnitt">
	<path class="st0" d="M18.37,4.96c0,0-0.24-0.02-0.53-0.02c-0.25,0-0.54,0.02-0.75,0.08c-4.43,1.35-5.96,2.88-6.45,3.55l-1.28,0
		c-0.48-0.66-2.02-2.2-6.45-3.55C2.7,4.96,2.41,4.94,2.16,4.94c-0.29,0-0.53,0.02-0.53,0.02s-1.96,4.72,0,7.74
		c0.01,0.05,0.03,0.11,0.06,0.16c0,0,0,0,0,0l0.34,1.89c0.03,0.16,0.16,0.27,0.32,0.28c0.05,0,0.78,0.03,1.64,0.03
		c0.44,0,0.91-0.01,1.34-0.03c1.11-0.06,2.1-0.49,2.97-0.87c0.61-0.27,1.19-0.52,1.71-0.59h0.01c0.52,0.07,1.1,0.32,1.71,0.59
		c0.87,0.38,1.85,0.81,2.97,0.87c0.42,0.02,0.9,0.03,1.34,0.03c0.85,0,1.59-0.03,1.64-0.03c0.16-0.01,0.29-0.12,0.32-0.28l0.33-1.88
		c0.04-0.06,0.06-0.11,0.06-0.17C20.33,9.68,18.37,4.96,18.37,4.96z M2.28,12.52c-0.02-0.06-0.05-0.12-0.08-0.18
		c-1.44-2.21-0.48-5.59-0.09-6.73c0.02,0,0.04,0,0.05,0c0.34,0,0.5,0.04,0.56,0.05c4.66,1.42,5.93,3.02,6.17,3.41
		c-0.01,1.01-0.33,1.84-0.94,2.47c-0.82,0.84-2.24,1.34-3.8,1.34C3.06,12.88,2.44,12.64,2.28,12.52z M17.36,14.36
		c-0.53,0.01-1.72,0.04-2.65-0.01c-0.99-0.05-1.88-0.44-2.73-0.81c-0.67-0.29-1.29-0.57-1.91-0.65c-0.01,0-0.03,0-0.04,0h-0.01H9.99
		H9.97c-0.01,0-0.03,0-0.04,0c-0.62,0.08-1.25,0.35-1.91,0.65c-0.85,0.37-1.74,0.76-2.73,0.81c-0.92,0.05-2.12,0.02-2.65,0.01
		l-0.19-1.04c0.45,0.14,1.04,0.23,1.7,0.23c2.27,0,5.26-1.03,5.39-4.31l0.9,0c0.13,3.28,3.12,4.31,5.39,4.31
		c0.66,0,1.25-0.09,1.7-0.23L17.36,14.36z M17.81,12.34c-0.04,0.06-0.06,0.12-0.08,0.18c-0.16,0.12-0.79,0.37-1.88,0.37
		c-1.55,0-2.97-0.5-3.8-1.34c-0.61-0.63-0.93-1.46-0.94-2.47c0.25-0.39,1.51-2,6.17-3.41c0.05-0.02,0.22-0.05,0.56-0.05
		c0.02,0,0.04,0,0.05,0C18.28,6.75,19.24,10.12,17.81,12.34z"/>
</g>
<g id="Trägerlos">
</g>
<g id="Offen">
</g>
<g id="Nicht_auftragen">
</g>
<g id="Kurven">
</g>
<g id="Brustwarzen">
</g>
<g id="Leicht">
</g>
<g id="Mode">
</g>
<g id="Wattierung">
</g>
</svg>
