<?xml version="1.0" encoding="utf-8"?>
<!-- Generator: Adobe Illustrator 25.2.1, SVG Export Plug-In . SVG Version: 6.00 Build 0)  -->
<svg version="1.1" xmlns="http://www.w3.org/2000/svg" xmlns:xlink="http://www.w3.org/1999/xlink" x="0px" y="0px"
	 viewBox="0 0 20 20" style="enable-background:new 0 0 20 20;" xml:space="preserve">
<style type="text/css">
	.st0{fill:#333333;}
	.st1{fill:#FFFFFF;}
	.st2{clip-path:url(#SVGID_2_);}
	.st3{fill:none;stroke:#000000;stroke-width:3;stroke-linecap:round;stroke-linejoin:round;stroke-miterlimit:10;}
	.st4{clip-path:url(#SVGID_4_);}
	.st5{clip-path:url(#SVGID_6_);}
	.st6{fill:url(#);}
</style>
<g id="Bequem">
</g>
<g id="Nichtabzeichnen">
</g>
<g id="Spitze">
</g>
<g id="Halt">
</g>
<g id="Brust_umschließen">
</g>
<g id="Tiefer_Auschnitt">
</g>
<g id="Trägerlos">
</g>
<g id="Offen">
	<g>
		<g>
			<g>
				<g>
					<path class="st0" d="M9.12,12.96H7.98c-0.01-0.56,0.19-1.02,0.57-1.38s0.9-0.55,1.53-0.55c0.41,0,0.76,0.08,1.04,0.23
						c0.29,0.15,0.52,0.37,0.69,0.65c0.17,0.28,0.26,0.58,0.26,0.9c0,0.17-0.03,0.34-0.08,0.5c-0.05,0.17-0.14,0.33-0.26,0.51
						c-0.07,0.1-0.24,0.27-0.5,0.51c-0.25,0.23-0.41,0.39-0.47,0.48c-0.06,0.09-0.12,0.22-0.16,0.38c-0.04,0.16-0.07,0.37-0.08,0.65
						H9.34l0-0.2c0-0.39,0.07-0.74,0.21-1.06c0.14-0.32,0.37-0.62,0.69-0.89c0.31-0.27,0.49-0.46,0.56-0.56
						c0.06-0.1,0.1-0.22,0.1-0.36c0-0.19-0.08-0.34-0.23-0.47c-0.16-0.13-0.36-0.19-0.62-0.19c-0.27,0-0.49,0.08-0.66,0.24
						C9.21,12.51,9.12,12.71,9.12,12.96z M9.95,16.34c0.21,0,0.39,0.07,0.54,0.22c0.15,0.15,0.22,0.32,0.22,0.53
						c0,0.21-0.07,0.38-0.22,0.53c-0.15,0.15-0.33,0.22-0.53,0.22c-0.21,0-0.39-0.07-0.53-0.22c-0.15-0.15-0.22-0.32-0.22-0.53
						c0-0.21,0.07-0.38,0.22-0.53C9.57,16.41,9.74,16.34,9.95,16.34z"/>
				</g>
			</g>
		</g>
		<path class="st0" d="M19.17,5.84h-7.53c0-0.01-0.01-0.01-0.01-0.02c1.39-0.26,3.26-0.83,3.69-2c0.27-0.74-0.04-1.56-0.94-2.46
			c-0.66-0.66-1.42-0.91-2.11-0.69c-0.96,0.3-1.71,1.47-2.23,3.47c-0.53-2-1.28-3.17-2.23-3.47C7.12,0.46,6.36,0.71,5.7,1.36
			c-0.9,0.9-1.21,1.72-0.94,2.46C5.2,5,7.05,5.56,8.44,5.83c0,0.01-0.01,0.01-0.01,0.02H0.83c-0.18,0-0.33,0.15-0.33,0.33v3.61
			c0,0.18,0.15,0.33,0.33,0.33h0.74v8.94c0,0.18,0.15,0.33,0.33,0.33H18.1c0.18,0,0.33-0.15,0.33-0.33v-8.94h0.74
			c0.18,0,0.33-0.15,0.33-0.33V6.18C19.51,5.99,19.36,5.84,19.17,5.84z M10.99,6.51v2.9h-1.9v-2.9H10.99z M12.48,1.31
			c0.1-0.03,0.2-0.05,0.3-0.05c0.48,0,0.91,0.34,1.14,0.57c0.7,0.7,0.96,1.29,0.79,1.76c-0.4,1.08-2.9,1.58-4.25,1.74
			C11.08,2.2,11.98,1.46,12.48,1.31z M5.38,3.59C5.21,3.12,5.47,2.53,6.17,1.84c0.28-0.28,0.84-0.72,1.44-0.53
			c0.5,0.16,1.4,0.89,2.02,4.03C8.28,5.18,5.78,4.67,5.38,3.59z M1.16,9.46V6.51h7.26v2.95H1.16z M17.76,18.72H2.24v-8.52h15.53
			V18.72z M18.84,9.46h-7.19V6.51h7.19V9.46z"/>
	</g>
</g>
<g id="Nicht_auftragen">
</g>
<g id="Kurven">
</g>
<g id="Brustwarzen">
</g>
<g id="Leicht">
</g>
<g id="Mode">
</g>
<g id="Wattierung">
</g>
</svg>
