<?xml version="1.0" encoding="utf-8"?>
<!-- Generator: Adobe Illustrator 25.2.1, SVG Export Plug-In . SVG Version: 6.00 Build 0)  -->
<svg version="1.1" xmlns="http://www.w3.org/2000/svg" xmlns:xlink="http://www.w3.org/1999/xlink" x="0px" y="0px"
	 viewBox="0 0 20 20" style="enable-background:new 0 0 20 20;" xml:space="preserve">
<style type="text/css">
	.st0{fill:#333333;}
	.st1{fill:#FFFFFF;}
	.st2{clip-path:url(#SVGID_2_);}
	.st3{fill:none;stroke:#000000;stroke-width:3;stroke-linecap:round;stroke-linejoin:round;stroke-miterlimit:10;}
	.st4{clip-path:url(#SVGID_4_);}
	.st5{clip-path:url(#SVGID_6_);}
	.st6{fill:url(#);}
</style>
<g id="Bequem">
</g>
<g id="Nichtabzeichnen">
</g>
<g id="Spitze">
</g>
<g id="Halt">
</g>
<g id="Brust_umschließen">
</g>
<g id="Tiefer_Auschnitt">
</g>
<g id="Trägerlos">
</g>
<g id="Offen">
</g>
<g id="Nicht_auftragen">
	<g>
		<path class="st0" d="M13.66,11.33c-0.1-0.11-0.21-0.23-0.24-0.27c-0.19-0.4,0.11-1.64,0.4-2.46c0.83-0.52,1.33-1.21,1.47-2.04
			c0.3-1.8-1.19-3.6-1.26-3.68c-0.12-0.14-0.33-0.16-0.47-0.04c-0.14,0.12-0.16,0.33-0.04,0.47c0.01,0.02,1.36,1.64,1.11,3.13
			c-0.07,0.4-0.25,0.76-0.54,1.08c-0.01,0-0.01,0-0.02,0.01c-0.01,0.01-1.38,0.95-2.57-0.01c-0.14-0.12-0.35-0.09-0.47,0.05
			c-0.12,0.14-0.09,0.35,0.05,0.47c0.53,0.42,1.1,0.57,1.62,0.57c0.14,0,0.28-0.01,0.42-0.03c-0.22,0.68-0.62,2.09-0.3,2.76
			c0.06,0.12,0.17,0.24,0.35,0.44c0.64,0.68,2.12,2.28,1.92,5.26c-0.01,0.18,0.13,0.34,0.31,0.36c0.01,0,0.02,0,0.02,0
			c0.17,0,0.32-0.13,0.33-0.31C15.98,13.82,14.36,12.08,13.66,11.33z"/>
		<path class="st0" d="M19.4,5.69h-2.09c-0.03,0-0.05,0.01-0.08,0.02l1.1-1.08c0.13-0.13,0.13-0.34,0.01-0.47
			c-0.13-0.13-0.34-0.13-0.47-0.01l-1.61,1.57c-0.13,0.13-0.13,0.34-0.01,0.47l1.63,1.67c0.07,0.07,0.15,0.1,0.24,0.1
			c0.08,0,0.17-0.03,0.23-0.09c0.13-0.13,0.13-0.34,0.01-0.47l-1.02-1.04h2.05c0.18,0,0.33-0.15,0.33-0.33S19.58,5.69,19.4,5.69z"/>
		<path class="st0" d="M8.98,7.58C8.86,7.44,8.65,7.41,8.51,7.53c-1.18,0.95-2.52,0.04-2.58,0c-0.01,0-0.01,0-0.02-0.01
			C5.62,7.21,5.44,6.85,5.37,6.45c-0.25-1.49,1.1-3.12,1.11-3.14c0.12-0.14,0.1-0.35-0.04-0.47C6.3,2.73,6.09,2.74,5.97,2.89
			C5.91,2.96,4.41,4.76,4.71,6.56C4.85,7.39,5.35,8.08,6.18,8.6c0.29,0.82,0.58,2.06,0.4,2.46c-0.02,0.04-0.14,0.16-0.24,0.27
			c-0.69,0.75-2.32,2.5-2.1,5.76c0.01,0.18,0.16,0.31,0.33,0.31c0.01,0,0.02,0,0.02,0c0.18-0.01,0.32-0.17,0.31-0.36
			c-0.2-2.97,1.29-4.57,1.92-5.26c0.18-0.2,0.29-0.32,0.35-0.44c0.32-0.67-0.07-2.08-0.3-2.76C7.02,8.61,7.16,8.62,7.3,8.62
			c0.53,0,1.1-0.15,1.62-0.57C9.07,7.93,9.09,7.72,8.98,7.58z"/>
		<path class="st0" d="M3.74,5.72L2.13,4.15C1.99,4.02,1.78,4.02,1.65,4.15C1.52,4.29,1.53,4.5,1.66,4.63l1.1,1.08
			C2.74,5.7,2.71,5.69,2.69,5.69H0.6c-0.18,0-0.33,0.15-0.33,0.33S0.42,6.35,0.6,6.35h2.05L1.63,7.4C1.5,7.53,1.51,7.74,1.64,7.87
			C1.7,7.93,1.79,7.96,1.87,7.96c0.09,0,0.17-0.03,0.24-0.1l1.63-1.67C3.87,6.06,3.87,5.85,3.74,5.72z"/>
	</g>
</g>
<g id="Kurven">
</g>
<g id="Brustwarzen">
</g>
<g id="Leicht">
</g>
<g id="Mode">
</g>
<g id="Wattierung">
</g>
</svg>
