<?xml version="1.0" encoding="utf-8"?>
<!-- Generator: Adobe Illustrator 25.2.1, SVG Export Plug-In . SVG Version: 6.00 Build 0)  -->
<svg version="1.1" xmlns="http://www.w3.org/2000/svg" xmlns:xlink="http://www.w3.org/1999/xlink" x="0px" y="0px"
	 viewBox="0 0 20 20" style="enable-background:new 0 0 20 20;" xml:space="preserve">
<style type="text/css">
	.st0{fill:#333333;}
	.st1{fill:#FFFFFF;}
	.st2{clip-path:url(#SVGID_2_);}
	.st3{fill:none;stroke:#000000;stroke-width:3;stroke-linecap:round;stroke-linejoin:round;stroke-miterlimit:10;}
	.st4{clip-path:url(#SVGID_4_);}
	.st5{clip-path:url(#SVGID_6_);}
	.st6{fill:url(#);}
</style>
<g id="Bequem">
</g>
<g id="Nichtabzeichnen">
</g>
<g id="Spitze">
</g>
<g id="Halt">
</g>
<g id="Brust_umschließen">
</g>
<g id="Tiefer_Auschnitt">
</g>
<g id="Trägerlos">
</g>
<g id="Offen">
</g>
<g id="Nicht_auftragen">
</g>
<g id="Kurven">
	<g>
		<path class="st0" d="M13.68,11.14c-0.1-0.11-0.21-0.23-0.24-0.27c-0.19-0.4,0.11-1.64,0.4-2.46c0.83-0.52,1.33-1.21,1.47-2.04
			c0.3-1.8-1.19-3.6-1.26-3.67c-0.12-0.14-0.33-0.16-0.47-0.04C13.44,2.79,13.42,3,13.54,3.14c0.01,0.02,1.36,1.64,1.11,3.13
			c-0.07,0.4-0.25,0.76-0.54,1.07c-0.01,0-0.01,0-0.02,0.01c-0.01,0.01-1.38,0.95-2.57-0.01c-0.14-0.11-0.35-0.09-0.47,0.05
			c-0.12,0.14-0.09,0.35,0.05,0.47c0.53,0.42,1.09,0.57,1.62,0.57c0.14,0,0.28-0.01,0.42-0.03c-0.22,0.68-0.62,2.08-0.3,2.76
			c0.06,0.12,0.17,0.24,0.35,0.44c0.64,0.68,2.12,2.28,1.92,5.25c-0.01,0.18,0.13,0.34,0.31,0.36c0.01,0,0.02,0,0.02,0
			c0.17,0,0.32-0.13,0.33-0.31C16,13.64,14.38,11.89,13.68,11.14z"/>
		<path class="st0" d="M18.99,6.65c0,0,0-0.01,0-0.01c-0.01-0.04-0.02-0.07-0.04-0.11c0,0,0,0,0,0c0,0-0.01-0.01-0.01-0.01
			c-0.02-0.03-0.04-0.05-0.07-0.08c-0.01-0.01-0.02-0.01-0.03-0.02c-0.02-0.01-0.05-0.03-0.07-0.03c-0.01,0-0.02-0.01-0.04-0.01
			c-0.04-0.01-0.08-0.01-0.12-0.01l-2.22,0.34c-0.18,0.03-0.31,0.2-0.28,0.38c0.03,0.18,0.2,0.31,0.38,0.28l1.41-0.22l-0.16,0.22
			c-0.06,0.08-1.56,1.87-1.26,3.67c0.15,0.86,0.67,1.57,1.57,2.1c0.05,0.03,0.11,0.05,0.17,0.05c0.11,0,0.22-0.06,0.29-0.16
			c0.09-0.16,0.04-0.36-0.12-0.46c-0.72-0.43-1.14-0.98-1.25-1.64c-0.25-1.49,1.09-3.12,1.12-3.15l0.2-0.26l0.24,1.53
			c0.03,0.16,0.17,0.28,0.33,0.28c0.02,0,0.03,0,0.05,0c0.18-0.03,0.31-0.2,0.28-0.38L18.99,6.65z"/>
		<path class="st0" d="M8.95,7.4C8.84,7.25,8.63,7.23,8.48,7.35c-1.18,0.95-2.52,0.04-2.57,0c-0.01,0-0.01,0-0.02-0.01
			C5.6,7.03,5.42,6.67,5.35,6.27C5.1,4.78,6.45,3.15,6.46,3.14C6.58,3,6.56,2.79,6.42,2.67c-0.14-0.12-0.35-0.1-0.47,0.04
			C5.88,2.78,4.39,4.58,4.69,6.38c0.14,0.83,0.63,1.51,1.47,2.04c0.29,0.82,0.58,2.06,0.4,2.45c-0.02,0.04-0.14,0.16-0.24,0.27
			c-0.69,0.75-2.32,2.49-2.1,5.75c0.01,0.18,0.16,0.31,0.33,0.31c0.01,0,0.02,0,0.02,0c0.18-0.01,0.32-0.17,0.31-0.36
			c-0.2-2.97,1.29-4.57,1.92-5.25c0.18-0.2,0.29-0.32,0.35-0.44c0.32-0.67-0.07-2.07-0.3-2.76C7,8.42,7.13,8.44,7.28,8.44
			c0.53,0,1.1-0.15,1.62-0.57C9.04,7.75,9.07,7.54,8.95,7.4z"/>
		<path class="st0" d="M3.89,7.1c0.03-0.18-0.1-0.35-0.28-0.38L1.39,6.37c-0.04-0.01-0.08,0-0.12,0.01c-0.01,0-0.03,0.01-0.04,0.01
			C1.21,6.4,1.19,6.41,1.17,6.42C1.16,6.43,1.15,6.44,1.14,6.45C1.11,6.47,1.09,6.49,1.07,6.52c0,0.01-0.01,0.01-0.01,0.01
			c0,0,0,0,0,0C1.04,6.57,1.02,6.6,1.02,6.64c0,0,0,0.01,0,0.01L0.66,8.96c-0.03,0.18,0.1,0.35,0.28,0.38c0.02,0,0.03,0,0.05,0
			c0.16,0,0.3-0.12,0.33-0.28l0.24-1.53l0.21,0.27c0.01,0.02,1.36,1.64,1.11,3.13c-0.11,0.66-0.53,1.21-1.25,1.64
			c-0.16,0.09-0.21,0.3-0.12,0.46c0.06,0.11,0.17,0.16,0.29,0.16c0.06,0,0.12-0.01,0.17-0.05c0.9-0.53,1.43-1.24,1.57-2.1
			c0.3-1.8-1.19-3.6-1.25-3.66L2.11,7.16l1.41,0.22C3.69,7.41,3.86,7.28,3.89,7.1z"/>
	</g>
</g>
<g id="Brustwarzen">
</g>
<g id="Leicht">
</g>
<g id="Mode">
</g>
<g id="Wattierung">
</g>
</svg>
