<?xml version="1.0" encoding="utf-8"?>
<!-- Generator: Adobe Illustrator 25.2.1, SVG Export Plug-In . SVG Version: 6.00 Build 0)  -->
<svg version="1.1" xmlns="http://www.w3.org/2000/svg" xmlns:xlink="http://www.w3.org/1999/xlink" x="0px" y="0px"
	 viewBox="0 0 20 20" style="enable-background:new 0 0 20 20;" xml:space="preserve">
<style type="text/css">
	.st0{fill:#333333;}
	.st1{fill:#FFFFFF;}
	.st2{clip-path:url(#SVGID_2_);}
	.st3{fill:none;stroke:#000000;stroke-width:3;stroke-linecap:round;stroke-linejoin:round;stroke-miterlimit:10;}
	.st4{clip-path:url(#SVGID_4_);}
	.st5{clip-path:url(#SVGID_6_);}
	.st6{fill:url(#);}
</style>
<g id="Bequem">
</g>
<g id="Nichtabzeichnen">
</g>
<g id="Spitze">
</g>
<g id="Halt">
</g>
<g id="Brust_umschließen">
</g>
<g id="Tiefer_Auschnitt">
</g>
<g id="Trägerlos">
</g>
<g id="Offen">
</g>
<g id="Nicht_auftragen">
</g>
<g id="Kurven">
</g>
<g id="Brustwarzen">
</g>
<g id="Leicht">
</g>
<g id="Mode">
</g>
<g id="Wattierung">
	<g>
		<g>
			<path class="st0" d="M18.21,6.83l-0.1-0.24V1.95c0-0.2-0.16-0.37-0.37-0.37s-0.37,0.16-0.37,0.37v4.71c0,0.05,0.01,0.1,0.03,0.14
				l0.13,0.32c0.02,0.04,1.96,4.4-0.33,8.21c0,0.01,0,0.02-0.01,0.02c-0.01,0.02-0.02,0.04-0.02,0.07
				c-0.01,0.02-0.01,0.05-0.01,0.07c0,0.01,0,0.02,0,0.02c0,0.41-0.21,1.51-0.35,2.14c-0.61,0.02-2.07,0.05-3.19-0.01
				c-1.19-0.06-2.24-0.52-3.26-0.97c-0.79-0.35-1.54-0.67-2.27-0.77c-0.02,0-0.03,0-0.05,0h-0.1c-0.02,0-0.03,0-0.05,0
				c-0.68,0.09-1.47,0.41-2.3,0.76c-1.18,0.49-2.5,1.04-3.77,0.99l-0.55,0.02c-0.2,0.01-0.36,0.18-0.36,0.38
				c0.01,0.2,0.16,0.36,0.38,0.36l0.53-0.02c1.4,0.06,2.81-0.53,4.06-1.05c0.77-0.32,1.51-0.63,2.09-0.71h0.05
				c0.62,0.08,1.31,0.39,2.04,0.71c1.03,0.45,2.2,0.96,3.52,1.03c0.5,0.03,1.07,0.03,1.59,0.03c1.01,0,1.89-0.03,1.95-0.03
				c0.17-0.01,0.31-0.12,0.35-0.29c0.04-0.19,0.39-1.76,0.42-2.47C20.3,11.5,18.3,7,18.21,6.83z"/>
			<g>
				<path class="st0" d="M9.46,9.18C9.46,9.18,9.46,9.18,9.46,9.18L7.04,9.16c-0.15,0-0.28-0.09-0.34-0.22
					C6.66,8.82,5.49,6.22,1.32,6.41C1.13,6.42,0.94,6.27,0.93,6.06c-0.01-0.2,0.15-0.38,0.35-0.39c4-0.19,5.59,2.02,5.99,2.74
					l1.97,0.02c1.59-2.71,4.81-3.07,7.13-2.54c0.2,0.05,0.32,0.24,0.28,0.44c-0.05,0.2-0.24,0.32-0.44,0.28
					c-2.12-0.48-5.08-0.15-6.43,2.37C9.72,9.11,9.6,9.18,9.46,9.18z"/>
			</g>
		</g>
		<path class="st0" d="M14.41,11.89l2.15-2.15c0.14-0.14,0.14-0.38,0-0.52c-0.14-0.14-0.38-0.14-0.52,0l-2.15,2.15l-2.15-2.15
			c-0.14-0.14-0.38-0.14-0.52,0c-0.14,0.14-0.14,0.38,0,0.52l2.15,2.15l-2.15,2.15c-0.14,0.14-0.14,0.38,0,0.52
			c0.07,0.07,0.17,0.11,0.26,0.11c0.09,0,0.19-0.04,0.26-0.11l2.15-2.15l2.15,2.15c0.07,0.07,0.17,0.11,0.26,0.11
			s0.19-0.04,0.26-0.11c0.14-0.14,0.14-0.38,0-0.52L14.41,11.89z"/>
	</g>
</g>
</svg>
