<?xml version="1.0" encoding="utf-8"?>
<!-- Generator: Adobe Illustrator 25.2.1, SVG Export Plug-In . SVG Version: 6.00 Build 0)  -->
<svg version="1.1" xmlns="http://www.w3.org/2000/svg" xmlns:xlink="http://www.w3.org/1999/xlink" x="0px" y="0px"
	 viewBox="0 0 20 20" style="enable-background:new 0 0 20 20;" xml:space="preserve">
<style type="text/css">
	.st0{fill:#333333;}
	.st1{fill:#FFFFFF;}
	.st2{clip-path:url(#SVGID_2_);}
	.st3{fill:none;stroke:#000000;stroke-width:3;stroke-linecap:round;stroke-linejoin:round;stroke-miterlimit:10;}
	.st4{clip-path:url(#SVGID_4_);}
	.st5{clip-path:url(#SVGID_6_);}
	.st6{fill:url(#);}
</style>
<g id="Bequem">
</g>
<g id="Nichtabzeichnen">
</g>
<g id="Spitze">
</g>
<g id="Halt">
</g>
<g id="Brust_umschließen">
</g>
<g id="Tiefer_Auschnitt">
</g>
<g id="Trägerlos">
</g>
<g id="Offen">
</g>
<g id="Nicht_auftragen">
</g>
<g id="Kurven">
</g>
<g id="Brustwarzen">
</g>
<g id="Leicht">
</g>
<g id="Mode">
</g>
<g id="Wattierung">
	<path class="st0" d="M17.68,1.58c-0.01-0.09-0.05-0.18-0.12-0.23c-0.07-0.06-0.16-0.08-0.25-0.07c-0.38,0.05-3.76,0.52-4.77,1.27
		c-0.53,0.39-1.26,1.27-1.75,1.9c0.09-0.37,0.23-0.83,0.4-1.27c0.05-0.14,0-0.3-0.12-0.39c-0.13-0.09-0.29-0.08-0.41,0.02
		c-0.14,0.12-0.31,0.26-0.51,0.42C9.2,4,7.92,5.04,7.56,6.06c-0.11,0.3-0.16,0.97-0.2,1.62L6.88,6.56C6.83,6.45,6.72,6.37,6.6,6.36
		C6.47,6.35,6.36,6.42,6.29,6.52c-3.97,6.49-2.75,9.14-2.7,9.24l0.21,0.46c-0.99,1.44-1.43,2.26-1.44,2.28
		c-0.09,0.16-0.03,0.37,0.14,0.45c0.05,0.03,0.1,0.04,0.16,0.04c0.12,0,0.23-0.06,0.3-0.18c0.01-0.02,0.45-0.83,1.44-2.26l0.26-0.02
		c2.91-0.12,5.79-2.38,5.91-2.47c0.1-0.08,0.14-0.2,0.12-0.33c-0.02-0.12-0.12-0.22-0.24-0.26l-0.24-0.07
		c0.63-0.14,1.03-0.26,1.24-0.47c1.88-1.91,3.2-3.8,3.21-3.82c0.07-0.1,0.08-0.23,0.03-0.33c-0.05-0.11-0.16-0.18-0.28-0.19
		l-1.01-0.08c0.8-0.61,2.02-1.59,2.44-2.16C17.82,3.65,17.68,1.66,17.68,1.58z M15.29,5.97c-0.47,0.63-2.33,2.06-3.01,2.55
		c-0.11,0.08-0.16,0.23-0.12,0.36c0.04,0.13,0.16,0.23,0.3,0.24l1.29,0.1c-0.5,0.67-1.51,1.95-2.79,3.25
		c-0.13,0.12-0.84,0.27-1.23,0.35c-0.41,0.09-0.76,0.16-0.97,0.26c-0.13,0.06-0.21,0.19-0.2,0.33c0.01,0.14,0.11,0.26,0.24,0.3
		l0.78,0.22c-0.91,0.61-2.81,1.74-4.71,1.92c1.68-2.35,4.56-5.96,9-10.32c0.13-0.13,0.13-0.34,0-0.47c-0.13-0.13-0.34-0.13-0.47,0
		c-4.55,4.47-7.47,8.16-9.17,10.53L4.2,15.48c-0.01-0.02-1.01-2.35,2.33-8.05l0.82,1.9c0.06,0.14,0.22,0.23,0.37,0.19
		C7.88,9.49,7.99,9.36,7.99,9.2c0-0.92,0.06-2.53,0.2-2.92c0.26-0.72,1.21-1.57,1.99-2.22c-0.21,0.76-0.23,1.26-0.06,1.48
		c0.1,0.13,0.25,0.19,0.41,0.17c0.09-0.01,0.18-0.06,0.23-0.14c0.01-0.02,1.38-1.92,2.15-2.48C13.58,2.6,15.82,2.18,17,2
		C16.94,2.64,16.66,4.11,15.29,5.97z"/>
</g>
</svg>
