<?xml version="1.0" encoding="utf-8"?>
<!-- Generator: Adobe Illustrator 25.2.1, SVG Export Plug-In . SVG Version: 6.00 Build 0)  -->
<svg version="1.1" xmlns="http://www.w3.org/2000/svg" xmlns:xlink="http://www.w3.org/1999/xlink" x="0px" y="0px"
	 viewBox="0 0 20 20" style="enable-background:new 0 0 20 20;" xml:space="preserve">
<style type="text/css">
	.st0{fill:#333333;}
	.st1{fill:#FFFFFF;}
	.st2{clip-path:url(#SVGID_2_);}
	.st3{fill:none;stroke:#000000;stroke-width:3;stroke-linecap:round;stroke-linejoin:round;stroke-miterlimit:10;}
	.st4{clip-path:url(#SVGID_4_);}
	.st5{clip-path:url(#SVGID_6_);}
	.st6{fill:url(#);}
</style>
<g id="Bequem">
</g>
<g id="Nichtabzeichnen">
</g>
<g id="Spitze">
</g>
<g id="Halt">
</g>
<g id="Brust_umschließen">
</g>
<g id="Tiefer_Auschnitt">
</g>
<g id="Trägerlos">
</g>
<g id="Offen">
</g>
<g id="Nicht_auftragen">
</g>
<g id="Kurven">
</g>
<g id="Brustwarzen">
</g>
<g id="Leicht">
</g>
<g id="Mode">
</g>
<g id="Wattierung">
	<g>
		<path class="st0" d="M2,16.6c-0.89,0-1.55-0.5-1.71-1.3c-0.16-0.82,0.24-1.89,1.35-2.35l5.8-2.8c0.18-0.09,0.4-0.01,0.49,0.17
			c0.09,0.18,0.01,0.4-0.17,0.49l-5.82,2.8c-0.75,0.32-1.03,1.01-0.93,1.54C1.1,15.6,1.46,15.86,2,15.86h16
			c0.54,0,0.9-0.26,0.99-0.72c0.11-0.52-0.17-1.22-0.91-1.53l-8.11-3.9C9.85,9.65,9.76,9.52,9.76,9.38V7.6
			c0-0.2,0.16-0.37,0.37-0.37c1.2,0,2.17-0.97,2.17-2.17c0-1.2-0.97-2.17-2.17-2.17c-1.2,0-2.17,0.97-2.17,2.17
			c0,0.2-0.16,0.37-0.37,0.37c-0.2,0-0.37-0.16-0.37-0.37c0-1.6,1.3-2.9,2.9-2.9c1.6,0,2.9,1.3,2.9,2.9c0,1.48-1.11,2.7-2.54,2.88
			v1.2l7.88,3.8c1.08,0.46,1.49,1.53,1.33,2.35c-0.16,0.8-0.82,1.3-1.71,1.3H2z"/>
	</g>
</g>
</svg>
