<?xml version="1.0" encoding="UTF-8" standalone="no"?>
<!DOCTYPE svg PUBLIC "-//W3C//DTD SVG 1.1//EN" "http://www.w3.org/Graphics/SVG/1.1/DTD/svg11.dtd">
<svg width="100%" height="100%" viewBox="0 0 20 20" version="1.1" xmlns="http://www.w3.org/2000/svg" xmlns:xlink="http://www.w3.org/1999/xlink" xml:space="preserve" xmlns:serif="http://www.serif.com/" style="fill-rule:evenodd;clip-rule:evenodd;stroke-linecap:round;stroke-linejoin:round;stroke-miterlimit:1.5;">
    <rect id="ICONS-BREAST-SHAPE" serif:id="ICONS BREAST SHAPE" x="0" y="0" width="20" height="20" style="fill:none;"/>
    <g id="ASYM">
        <g id="BODY">
            <g>
                <path d="M12.446,0.458c0.261,0.422 0.883,0.801 1.788,0.978c1.367,0.266 3.754,0.564 4.241,1.494c0.937,1.787 0.097,5.896 0,6.6c-0.097,0.704 0.089,1.786 0.149,2.963c0.06,1.177 0.054,2.452 0.279,2.924c0.224,0.472 0.617,2.25 0.73,3.201" style="fill:none;stroke:#333;stroke-width:0.67px;"/>
                <path d="M17.216,5.809c-0.366,0.485 -0.592,1.04 -0.608,1.7" style="fill:none;stroke:#333;stroke-width:0.67px;"/>
                <path d="M16.413,12.686c-0.16,1.579 -0.515,2.681 -0.59,3.585c-0.092,1.12 0.885,2.134 1.058,3.271" style="fill:none;stroke:#333;stroke-width:0.67px;"/>
            </g>
            <g>
                <path d="M7.554,0.458c-0.261,0.422 -0.883,0.801 -1.788,0.978c-1.367,0.266 -3.754,0.564 -4.241,1.494c-0.937,1.787 -0.097,5.896 -0,6.6c0.097,0.704 -0.089,1.786 -0.149,2.963c-0.06,1.177 -0.054,2.452 -0.279,2.924c-0.224,0.472 -0.617,2.25 -0.73,3.201" style="fill:none;stroke:#333;stroke-width:0.67px;"/>
                <path d="M2.784,5.809c0.366,0.485 0.592,1.04 0.608,1.7" style="fill:none;stroke:#333;stroke-width:0.67px;"/>
                <path d="M3.805,14.174c0.155,0.835 0.323,1.508 0.372,2.097c0.092,1.12 -0.885,2.134 -1.058,3.271" style="fill:none;stroke:#333;stroke-width:0.67px;"/>
            </g>
            <path d="M9.367,2.486c0.447,0.567 0.881,0.543 1.303,-0" style="fill:none;stroke:#333;stroke-width:0.33px;"/>
        </g>
        <g id="BREAST">
            <path d="M8.956,10.188c-0.043,3.244 -2.027,4.692 -3.713,4.509c-1.657,-0.18 -2.844,-1.662 -2.275,-3.815c0.294,-1.115 0.498,-2.609 0.402,-3.573" style="fill:none;stroke:#333;stroke-width:0.67px;"/>
            <g>
                <path d="M5.628,11.362c0.059,0.1 0.093,0.215 0.093,0.339c-0,0.368 -0.299,0.666 -0.666,0.666c-0.368,-0 -0.666,-0.298 -0.666,-0.666c0,-0.124 0.034,-0.239 0.093,-0.339" style="fill:none;stroke:#333;stroke-width:0.23px;"/>
                <path d="M5.212,11.66c-0,0.107 -0.087,0.194 -0.193,0.194c-0.107,-0 -0.194,-0.087 -0.194,-0.194" style="fill:none;stroke:#333;stroke-width:0.23px;"/>
            </g>
        </g>
        <g id="BREAST1" serif:id="BREAST">
            <path d="M11.066,9.678c-0.019,2.604 2.431,4.23 4.335,3.527c2.995,-1.106 1.036,-4.246 1.204,-5.835" style="fill:none;stroke:#333;stroke-width:0.67px;"/>
            <g>
                <path d="M14.615,11.151c-0.059,0.099 -0.093,0.215 -0.093,0.339c0,0.367 0.298,0.665 0.666,0.665c0.367,0 0.666,-0.298 0.666,-0.665c-0,-0.124 -0.034,-0.24 -0.093,-0.339" style="fill:none;stroke:#333;stroke-width:0.23px;"/>
                <path d="M15.031,11.449c-0,0.107 0.086,0.193 0.193,0.193c0.107,0 0.193,-0.086 0.193,-0.193" style="fill:none;stroke:#333;stroke-width:0.23px;"/>
            </g>
        </g>
    </g>
</svg>
