<?xml version="1.0" encoding="UTF-8" standalone="no"?>
<!DOCTYPE svg PUBLIC "-//W3C//DTD SVG 1.1//EN" "http://www.w3.org/Graphics/SVG/1.1/DTD/svg11.dtd">
<svg width="100%" height="100%" viewBox="0 0 20 20" version="1.1" xmlns="http://www.w3.org/2000/svg" xmlns:xlink="http://www.w3.org/1999/xlink" xml:space="preserve" xmlns:serif="http://www.serif.com/" style="fill-rule:evenodd;clip-rule:evenodd;stroke-linecap:round;stroke-linejoin:round;stroke-miterlimit:1.5;">
    <rect id="ICONS-BREAST-SHAPE" serif:id="ICONS BREAST SHAPE" x="0" y="0" width="20" height="20" style="fill:none;"/>
    <g id="SIDE-SET">
        <g id="BODY">
            <g>
                <path d="M12.446,0.458c0.261,0.422 0.883,0.801 1.788,0.978c1.367,0.266 3.754,0.564 4.241,1.494c0.937,1.787 0.097,5.896 0,6.6c-0.097,0.704 0.089,1.786 0.149,2.963c0.06,1.177 0.054,2.452 0.279,2.924c0.224,0.472 0.617,2.25 0.73,3.201" style="fill:none;stroke:#333;stroke-width:0.67px;"/>
                <path d="M17.216,5.809c-0.366,0.485 -0.592,1.04 -0.608,1.7" style="fill:none;stroke:#333;stroke-width:0.67px;"/>
                <path d="M16.409,12.725c-0.162,1.558 -0.511,2.649 -0.586,3.546c-0.092,1.12 0.885,2.134 1.058,3.271" style="fill:none;stroke:#333;stroke-width:0.67px;"/>
            </g>
            <g>
                <path d="M7.554,0.458c-0.261,0.422 -0.883,0.801 -1.788,0.978c-1.367,0.266 -3.754,0.564 -4.241,1.494c-0.937,1.787 -0.097,5.896 -0,6.6c0.097,0.704 -0.089,1.786 -0.149,2.963c-0.06,1.177 -0.054,2.452 -0.279,2.924c-0.224,0.472 -0.617,2.25 -0.73,3.201" style="fill:none;stroke:#333;stroke-width:0.67px;"/>
                <path d="M2.784,5.809c0.366,0.485 0.592,1.04 0.608,1.7" style="fill:none;stroke:#333;stroke-width:0.67px;"/>
                <path d="M3.601,12.815c0.165,1.51 0.503,2.577 0.576,3.456c0.092,1.12 -0.885,2.134 -1.058,3.271" style="fill:none;stroke:#333;stroke-width:0.67px;"/>
            </g>
            <path d="M9.367,2.486c0.447,0.567 0.881,0.543 1.303,-0" style="fill:none;stroke:#333;stroke-width:0.33px;"/>
        </g>
        <g id="BREAST">
            <path d="M11.256,9.678c-0.033,0.185 -0.05,0.375 -0.05,0.57c-0,1.691 1.412,3.015 3.265,3.064c2.234,0.06 2.98,-1.649 2.671,-3.064c-0.172,-0.787 -0.692,-1.449 -0.527,-2.878" style="fill:none;stroke:#333;stroke-width:0.67px;"/>
            <g>
                <path d="M15.114,10.248c-0.059,0.099 -0.093,0.215 -0.093,0.339c0,0.367 0.299,0.666 0.666,0.666c0.368,-0 0.666,-0.299 0.666,-0.666c-0,-0.124 -0.034,-0.24 -0.093,-0.339" style="fill:none;stroke:#333;stroke-width:0.23px;"/>
                <path d="M15.53,10.546c-0,0.107 0.087,0.193 0.193,0.193c0.107,0 0.194,-0.086 0.194,-0.193" style="fill:none;stroke:#333;stroke-width:0.23px;"/>
            </g>
        </g>
        <g id="BREAST1" serif:id="BREAST">
            <path d="M8.739,9.678c0.033,0.185 0.051,0.375 0.051,0.57c-0,1.691 -1.413,3.015 -3.266,3.064c-2.234,0.06 -2.979,-1.649 -2.671,-3.064c0.172,-0.787 0.692,-1.449 0.527,-2.878" style="fill:none;stroke:#333;stroke-width:0.67px;"/>
            <g>
                <path d="M4.881,10.248c0.059,0.099 0.093,0.215 0.093,0.339c-0,0.367 -0.298,0.666 -0.666,0.666c-0.367,-0 -0.666,-0.299 -0.666,-0.666c0,-0.124 0.034,-0.24 0.093,-0.339" style="fill:none;stroke:#333;stroke-width:0.23px;"/>
                <path d="M4.465,10.546c0,0.107 -0.086,0.193 -0.193,0.193c-0.107,0 -0.193,-0.086 -0.193,-0.193" style="fill:none;stroke:#333;stroke-width:0.23px;"/>
            </g>
        </g>
    </g>
</svg>
