<?xml version="1.0" encoding="UTF-8" standalone="no"?>
<!DOCTYPE svg PUBLIC "-//W3C//DTD SVG 1.1//EN" "http://www.w3.org/Graphics/SVG/1.1/DTD/svg11.dtd">
<svg width="100%" height="100%" viewBox="0 0 20 20" version="1.1" xmlns="http://www.w3.org/2000/svg" xmlns:xlink="http://www.w3.org/1999/xlink" xml:space="preserve" xmlns:serif="http://www.serif.com/" style="fill-rule:evenodd;clip-rule:evenodd;stroke-linecap:round;stroke-linejoin:round;stroke-miterlimit:1.5;">
    <rect id="ICONS-BREAST-SHAPE" serif:id="ICONS BREAST SHAPE" x="0" y="0" width="20" height="20" style="fill:none;"/>
    <g id="RELAXED">
        <g id="BODY">
            <g>
                <path d="M12.446,0.458c0.261,0.422 0.883,0.801 1.788,0.978c1.367,0.266 3.754,0.564 4.241,1.494c0.937,1.787 0.097,5.896 0,6.6c-0.097,0.704 0.089,1.786 0.149,2.963c0.06,1.177 0.054,2.452 0.279,2.924c0.224,0.472 0.617,2.25 0.73,3.201" style="fill:none;stroke:#333;stroke-width:0.67px;"/>
                <path d="M17.216,5.809c-0.366,0.485 -0.592,1.04 -0.608,1.7" style="fill:none;stroke:#333;stroke-width:0.67px;"/>
                <path d="M15.885,15.783c-0.027,0.17 -0.049,0.332 -0.062,0.488c-0.092,1.12 0.885,2.134 1.058,3.271" style="fill:none;stroke:#333;stroke-width:0.67px;"/>
            </g>
            <g>
                <path d="M7.554,0.458c-0.261,0.422 -0.883,0.801 -1.788,0.978c-1.367,0.266 -3.754,0.564 -4.241,1.494c-0.937,1.787 -0.097,5.896 -0,6.6c0.097,0.704 -0.089,1.786 -0.149,2.963c-0.06,1.177 -0.054,2.452 -0.279,2.924c-0.224,0.472 -0.617,2.25 -0.73,3.201" style="fill:none;stroke:#333;stroke-width:0.67px;"/>
                <path d="M2.784,5.809c0.366,0.485 0.592,1.04 0.608,1.7" style="fill:none;stroke:#333;stroke-width:0.67px;"/>
                <path d="M4.124,15.84c0.023,0.149 0.041,0.292 0.053,0.431c0.092,1.12 -0.885,2.134 -1.058,3.271" style="fill:none;stroke:#333;stroke-width:0.67px;"/>
            </g>
            <path d="M9.367,2.486c0.447,0.567 0.881,0.543 1.303,-0" style="fill:none;stroke:#333;stroke-width:0.33px;"/>
        </g>
        <g id="BREAST">
            <path d="M10.579,9.463c0.933,0.432 0.982,1.795 1.218,3.256c0.369,2.287 2.57,3.278 3.664,3.157c1.583,-0.175 2.924,-1.782 2.118,-3.986c-0.385,-1.054 -1.074,-3.617 -0.978,-4.581" style="fill:none;stroke:#333;stroke-width:0.67px;"/>
            <g>
                <path d="M15.059,12.551c-0.074,0.124 -0.116,0.269 -0.116,0.424c0,0.46 0.374,0.834 0.834,0.834c0.46,-0 0.833,-0.374 0.833,-0.834c0,-0.155 -0.042,-0.3 -0.116,-0.424" style="fill:none;stroke:#333;stroke-width:0.23px;"/>
                <path d="M15.58,12.924c0,0.134 0.109,0.242 0.242,0.242c0.134,0 0.242,-0.108 0.242,-0.242" style="fill:none;stroke:#333;stroke-width:0.23px;"/>
            </g>
        </g>
        <g id="BREAST1" serif:id="BREAST">
            <path d="M9.398,9.463c-0.933,0.432 -0.983,1.795 -1.218,3.256c-0.369,2.287 -2.57,3.278 -3.664,3.157c-1.583,-0.175 -2.924,-1.782 -2.119,-3.986c0.386,-1.054 1.075,-3.617 0.979,-4.581" style="fill:none;stroke:#333;stroke-width:0.67px;"/>
            <g>
                <path d="M4.918,12.551c0.074,0.124 0.116,0.269 0.116,0.424c-0,0.46 -0.374,0.834 -0.834,0.834c-0.46,-0 -0.834,-0.374 -0.834,-0.834c0,-0.155 0.043,-0.3 0.116,-0.424" style="fill:none;stroke:#333;stroke-width:0.23px;"/>
                <path d="M4.397,12.924c-0,0.134 -0.109,0.242 -0.242,0.242c-0.134,0 -0.242,-0.108 -0.242,-0.242" style="fill:none;stroke:#333;stroke-width:0.23px;"/>
            </g>
        </g>
    </g>
</svg>
