<?xml version="1.0" encoding="UTF-8" standalone="no"?>
<!DOCTYPE svg PUBLIC "-//W3C//DTD SVG 1.1//EN" "http://www.w3.org/Graphics/SVG/1.1/DTD/svg11.dtd">
<svg width="100%" height="100%" viewBox="0 0 20 20" version="1.1" xmlns="http://www.w3.org/2000/svg" xmlns:xlink="http://www.w3.org/1999/xlink" xml:space="preserve" xmlns:serif="http://www.serif.com/" style="fill-rule:evenodd;clip-rule:evenodd;stroke-linecap:round;stroke-linejoin:round;stroke-miterlimit:1.5;">
    <rect id="ICONS-BREAST-SHAPE" serif:id="ICONS BREAST SHAPE" x="0" y="0" width="20" height="20" style="fill:none;"/>
    <g id="TEARDROP">
        <g id="BODY">
            <g>
                <path d="M12.446,0.458c0.261,0.422 0.883,0.801 1.788,0.978c1.367,0.266 3.754,0.564 4.241,1.494c0.937,1.787 0.097,5.896 0,6.6c-0.097,0.704 0.089,1.786 0.149,2.963c0.06,1.177 0.054,2.452 0.279,2.924c0.224,0.472 0.617,2.25 0.73,3.201" style="fill:none;stroke:#333;stroke-width:0.67px;"/>
                <path d="M17.216,5.809c-0.366,0.485 -0.592,1.04 -0.608,1.7" style="fill:none;stroke:#333;stroke-width:0.67px;"/>
                <path d="M16.181,14.248c-0.151,0.8 -0.31,1.451 -0.358,2.023c-0.092,1.12 0.885,2.134 1.058,3.271" style="fill:none;stroke:#333;stroke-width:0.67px;"/>
            </g>
            <g>
                <path d="M7.554,0.458c-0.261,0.422 -0.883,0.801 -1.788,0.978c-1.367,0.266 -3.754,0.564 -4.241,1.494c-0.937,1.787 -0.097,5.896 -0,6.6c0.097,0.704 -0.089,1.786 -0.149,2.963c-0.06,1.177 -0.054,2.452 -0.279,2.924c-0.224,0.472 -0.617,2.25 -0.73,3.201" style="fill:none;stroke:#333;stroke-width:0.67px;"/>
                <path d="M2.784,5.809c0.366,0.485 0.592,1.04 0.608,1.7" style="fill:none;stroke:#333;stroke-width:0.67px;"/>
                <path d="M3.842,14.372c0.144,0.744 0.29,1.357 0.335,1.899c0.092,1.12 -0.885,2.134 -1.058,3.271" style="fill:none;stroke:#333;stroke-width:0.67px;"/>
            </g>
            <path d="M9.367,2.486c0.447,0.567 0.881,0.543 1.303,-0" style="fill:none;stroke:#333;stroke-width:0.33px;"/>
        </g>
        <g id="BREAST">
            <path d="M10.947,10.392c-0.724,2.984 1.624,4.346 3.562,4.353c2.127,0.007 3.649,-1.98 2.896,-4.353c-0.382,-1.206 -0.881,-2.23 -0.78,-3.022" style="fill:none;stroke:#333;stroke-width:0.67px;"/>
            <g>
                <path d="M14.433,10.8c-0.059,0.099 -0.093,0.215 -0.093,0.338c-0,0.368 0.298,0.666 0.666,0.666c0.367,0 0.666,-0.298 0.666,-0.666c-0,-0.123 -0.034,-0.239 -0.093,-0.338" style="fill:none;stroke:#333;stroke-width:0.23px;"/>
                <path d="M14.849,11.098c-0,0.106 0.086,0.193 0.193,0.193c0.107,-0 0.193,-0.087 0.193,-0.193" style="fill:none;stroke:#333;stroke-width:0.23px;"/>
            </g>
        </g>
        <g id="BREAST1" serif:id="BREAST">
            <path d="M9.073,10.392c0.724,2.984 -1.623,4.346 -3.561,4.353c-2.127,0.007 -3.649,-1.98 -2.896,-4.353c0.382,-1.206 0.881,-2.23 0.78,-3.022" style="fill:none;stroke:#333;stroke-width:0.67px;"/>
            <g>
                <path d="M5.588,10.8c0.059,0.099 0.093,0.215 0.093,0.338c-0,0.368 -0.299,0.666 -0.666,0.666c-0.368,0 -0.666,-0.298 -0.666,-0.666c0,-0.123 0.034,-0.239 0.093,-0.338" style="fill:none;stroke:#333;stroke-width:0.23px;"/>
                <path d="M5.172,11.098c0,0.106 -0.087,0.193 -0.193,0.193c-0.107,-0 -0.194,-0.087 -0.194,-0.193" style="fill:none;stroke:#333;stroke-width:0.23px;"/>
            </g>
        </g>
    </g>
</svg>
