<?xml version="1.0" encoding="UTF-8" standalone="no"?>
<!DOCTYPE svg PUBLIC "-//W3C//DTD SVG 1.1//EN" "http://www.w3.org/Graphics/SVG/1.1/DTD/svg11.dtd">
<svg width="100%" height="100%" viewBox="0 0 43 20" version="1.1" xmlns="http://www.w3.org/2000/svg" xmlns:xlink="http://www.w3.org/1999/xlink" xml:space="preserve" xmlns:serif="http://www.serif.com/" style="fill-rule:evenodd;clip-rule:evenodd;stroke-linecap:round;stroke-linejoin:round;stroke-miterlimit:1.5;">
    <rect id="SYS-6-4-2" serif:id="SYS 6-4-2" x="0" y="0" width="43" height="20" style="fill:none;"/>
    <clipPath id="_clip1">
        <rect x="0" y="0" width="43" height="20"/>
    </clipPath>
    <g clip-path="url(#_clip1)">
        <g>
            <g id="TEARDROP">
                <g id="smaller">
                    <g id="side">
                        <g id="lines">
                            <g>
                                <path d="M14.44,14.509c0.004,0.569 -0.291,0.956 -0.542,1.487" style="fill:none;stroke:#333;stroke-width:0.16px;"/>
                                <path d="M15.809,11.745c0.272,2.298 -0.139,3.324 -0.222,4.32c-0.092,1.107 1.028,2.205 1.199,3.329" style="fill:none;stroke:#333;stroke-width:0.6px;"/>
                                <path d="M12.197,0.469c0.089,0.48 0.497,0.999 1.092,1.259c1.27,0.558 2.764,0.572 3.611,1.675c1.249,1.626 1.016,4.628 0.931,5.722c0.141,1.051 0.472,4.46 0.572,6.062c0.285,0.896 0.548,2.269 0.766,3.51" style="fill:none;stroke:#333;stroke-width:0.6px;"/>
                                <path d="M15.789,14.504c0.202,1.396 -0.188,1.857 0.293,3.331" style="fill:none;stroke:#333;stroke-width:0.4px;"/>
                                <path d="M16.279,7.344c-0.142,0.243 -0.311,0.414 -0.43,0.507" style="fill:none;stroke:#333;stroke-width:0.4px;"/>
                            </g>
                        </g>
                        <g id="BREAST">
                            <path d="M10.955,9.093c-0.006,0.109 -0.02,0.235 -0.045,0.376c-0.364,2.054 1.239,3.104 2.899,3.099c1.849,-0.005 2.771,-1.675 2.179,-3.273c-0.199,-0.539 -0.294,-1.043 -0.119,-1.407" style="fill:none;stroke:#333;stroke-width:0.6px;"/>
                            <g>
                                <path d="M13.565,9.594c-0.049,0.083 -0.078,0.179 -0.078,0.282c0,0.306 0.249,0.554 0.554,0.554c0.306,0 0.554,-0.248 0.554,-0.554c0,-0.103 -0.028,-0.199 -0.077,-0.282" style="fill:none;stroke:#333;stroke-width:0.23px;"/>
                                <path d="M13.911,9.842c-0,0.089 0.072,0.161 0.16,0.161c0.089,0 0.161,-0.072 0.161,-0.161" style="fill:none;stroke:#333;stroke-width:0.23px;"/>
                            </g>
                        </g>
                        <g id="shade">
                            <g opacity="0.2">
                                <path d="M16.135,12.383c-0.08,1.833 0.791,2.569 0.458,3.848c-0.197,0.754 -0.062,1.797 0.139,2.663c-0.476,-0.792 -0.566,-1.306 -0.861,-2.298c-0.111,-1.291 0.068,-3.205 0.264,-4.213Z" style="fill:#333;"/>
                                <path d="M16.34,7.525c0.059,0.697 -0.086,1.118 -0.069,1.969c-0.168,-0.509 -0.565,-0.836 -0.39,-1.407l0.459,-0.562Z" style="fill:#333;"/>
                                <path d="M15.801,7.91c-0.313,-0.172 -0.213,-0.787 0.138,-1.258c0.201,-0.271 0.653,0.074 0.496,0.292c-0.286,0.396 -0.249,0.714 -0.634,0.966Z" style="fill:#333;"/>
                                <g id="lighter" opacity="0.5">
                                    <path d="M15.829,2.771c-1.972,-0.755 -2.876,-0.313 -3.557,-0.648c-0.562,-0.277 0.077,-0.311 -0,-1.291l0.737,0.84l2.82,1.099Z" style="fill:#333;"/>
                                    <path d="M13.248,17.196c-0.345,0.557 0.939,0.024 1.59,-1.502c0.337,-0.793 -0.142,-1.676 -0.493,-1.634c-0.466,0.057 -0.093,2.508 -1.097,3.136Z" style="fill:#333;"/>
                                </g>
                            </g>
                            <path d="M15.975,11.387c-0.079,0.405 -0.187,0.889 -0.205,1.228c-1.212,0.965 -3.736,0.799 -4.59,-1.485c1.165,2.004 4.161,1.559 4.795,0.257Z" style="fill:#333;fill-opacity:0.55;"/>
                        </g>
                    </g>
                    <g id="side1" serif:id="side">
                        <g id="lines1" serif:id="lines">
                            <g>
                                <path d="M5.938,14.509c-0.004,0.569 0.291,0.956 0.542,1.487" style="fill:none;stroke:#333;stroke-width:0.16px;"/>
                                <path d="M4.569,11.745c-0.272,2.298 0.139,3.324 0.222,4.32c0.092,1.107 -1.028,2.205 -1.199,3.329" style="fill:none;stroke:#333;stroke-width:0.6px;"/>
                                <path d="M8.181,0.469c-0.089,0.48 -0.497,0.999 -1.092,1.259c-1.27,0.558 -2.764,0.572 -3.611,1.675c-1.249,1.626 -1.016,4.628 -0.931,5.722c-0.141,1.051 -0.472,4.46 -0.572,6.062c-0.285,0.896 -0.548,2.269 -0.766,3.51" style="fill:none;stroke:#333;stroke-width:0.6px;"/>
                                <path d="M4.506,14.549c-0.203,1.396 0.188,1.856 -0.293,3.33" style="fill:none;stroke:#333;stroke-width:0.4px;"/>
                                <path d="M4.099,7.344c0.142,0.243 0.311,0.414 0.43,0.507" style="fill:none;stroke:#333;stroke-width:0.4px;"/>
                            </g>
                        </g>
                        <g id="BREAST1" serif:id="BREAST">
                            <path d="M9.423,9.093c0.006,0.109 0.02,0.235 0.045,0.376c0.364,2.054 -1.239,3.104 -2.899,3.099c-1.849,-0.005 -2.771,-1.675 -2.179,-3.273c0.199,-0.539 0.294,-1.043 0.119,-1.407" style="fill:none;stroke:#333;stroke-width:0.6px;"/>
                            <g>
                                <path d="M6.814,9.594c0.049,0.083 0.077,0.179 0.077,0.282c-0,0.306 -0.249,0.554 -0.554,0.554c-0.306,0 -0.554,-0.248 -0.554,-0.554c-0,-0.103 0.028,-0.199 0.077,-0.282" style="fill:none;stroke:#333;stroke-width:0.23px;"/>
                                <path d="M6.467,9.842c0,0.089 -0.072,0.161 -0.16,0.161c-0.089,0 -0.161,-0.072 -0.161,-0.161" style="fill:none;stroke:#333;stroke-width:0.23px;"/>
                            </g>
                        </g>
                        <g id="shade1" serif:id="shade">
                            <g opacity="0.2">
                                <path d="M4.243,12.383c0.08,1.833 -0.791,2.569 -0.458,3.848c0.197,0.754 0.062,1.797 -0.138,2.663c0.475,-0.792 0.565,-1.306 0.86,-2.298c0.111,-1.291 -0.068,-3.205 -0.264,-4.213Z" style="fill:#333;"/>
                                <path d="M4.038,7.525c-0.059,0.697 0.086,1.118 0.069,1.969c0.169,-0.509 0.565,-0.836 0.39,-1.407l-0.459,-0.562Z" style="fill:#333;"/>
                                <path d="M4.577,7.91c0.313,-0.172 0.213,-0.787 -0.138,-1.258c-0.201,-0.271 -0.653,0.074 -0.496,0.292c0.286,0.396 0.249,0.714 0.634,0.966Z" style="fill:#333;"/>
                                <g id="lighter1" serif:id="lighter" opacity="0.5">
                                    <path d="M4.55,2.771c1.971,-0.755 2.875,-0.313 3.556,-0.648c0.562,-0.277 -0.076,-0.311 0,-1.291l-0.737,0.84l-2.819,1.099Z" style="fill:#333;"/>
                                    <path d="M7.13,17.196c0.345,0.557 -0.939,0.024 -1.59,-1.502c-0.337,-0.793 0.142,-1.676 0.493,-1.634c0.466,0.057 0.093,2.508 1.097,3.136Z" style="fill:#333;"/>
                                </g>
                            </g>
                            <path d="M4.403,11.387c0.079,0.405 0.187,0.889 0.205,1.228c1.212,0.965 3.736,0.799 4.591,-1.485c-1.166,2.004 -4.162,1.559 -4.796,0.257Z" style="fill:#333;fill-opacity:0.55;"/>
                        </g>
                    </g>
                    <path d="M9.695,2.571c0.333,0.348 0.663,0.341 0.988,-0" style="fill:none;stroke:#333;stroke-width:0.2px;"/>
                </g>
                <g id="larger">
                    <g id="side2" serif:id="side">
                        <g id="LINES">
                            <path d="M34.385,0.458c0.178,0.405 0.308,1.035 1.214,1.14c1.566,0.182 3.196,0.197 4.247,1.78c1.235,1.86 1.506,3.266 1.668,5.122c0.123,1.424 -0.06,1.917 -0,3.08c0.059,1.163 0.112,2.59 0.294,3.074c0.423,1.126 0.592,3.038 0.534,3.996" style="fill:none;stroke:#333;stroke-width:0.6px;"/>
                            <path d="M39.171,6.696c-0.063,0.435 -0.315,0.775 -0.451,0.91" style="fill:none;stroke:#333;stroke-width:0.4px;"/>
                            <path d="M38.79,13.248c-0.158,0.447 -0.136,0.821 0,1.466c0.127,0.6 1.277,1.846 1.822,4.524" style="fill:none;stroke:#333;stroke-width:0.6px;"/>
                            <path d="M37.58,16.88c-0.184,-0.468 -0.058,-0.948 0.194,-1.661" style="fill:none;stroke:#333;stroke-width:0.16px;"/>
                            <path d="M38.929,13.072c-0.14,0.456 -0.048,0.853 0,1.174c0.058,0.383 -0.041,0.824 0.221,1.35" style="fill:none;stroke:#333;stroke-width:0.4px;"/>
                        </g>
                        <g id="BREAST2" serif:id="BREAST">
                            <path d="M32.688,9.301c0.281,0.448 0.048,1.438 0.357,2.635c0.353,1.363 1.745,2.353 3.369,2.408c1.965,0.066 3.544,-1.758 2.784,-4.228c-0.35,-1.137 -0.701,-1.737 -0.655,-2.434" style="fill:none;stroke:#333;stroke-width:0.6px;"/>
                            <g>
                                <path d="M36.139,10.589c-0.069,0.115 -0.108,0.25 -0.108,0.394c0,0.427 0.347,0.774 0.775,0.774c0.427,0 0.774,-0.347 0.774,-0.774c0,-0.144 -0.039,-0.279 -0.108,-0.394" style="fill:none;stroke:#333;stroke-width:0.23px;"/>
                                <path d="M36.65,10.971c0,0.105 0.086,0.191 0.191,0.191c0.106,0 0.191,-0.086 0.191,-0.191" style="fill:none;stroke:#333;stroke-width:0.23px;"/>
                            </g>
                        </g>
                        <g id="SHADE">
                            <g id="_20" serif:id="20" opacity="0.2">
                                <g id="lighter2" serif:id="lighter" opacity="0.5">
                                    <path d="M35.972,20.012c1.492,-1.926 1.358,-3.876 2.021,-3.424c0.727,0.495 0.871,1.705 -0.728,3.662l-1.293,-0.238Z" style="fill:#333;"/>
                                    <path d="M34.596,0.705c0.028,0.798 -0.457,0.57 -0.35,1.177c0.101,0.572 0.724,0.329 1.51,0.19c0.98,-0.174 1.656,-0.146 2.794,0.183c-0.666,-0.432 -1.655,-0.582 -2.794,-0.602c-0.6,0.011 -1.068,-0.419 -1.16,-0.948Z" style="fill:#333;"/>
                                </g>
                                <path d="M38.383,7.616c0.294,-0.731 -0.324,-1.132 0.47,-1.389c0.924,-0.3 0.552,0.69 0.552,0.69c-0.125,0.397 -0.495,0.607 -1.022,0.699Z" style="fill:#333;"/>
                                <path d="M39.199,9.774c0.885,1.734 0.598,2.579 0.313,3.954c-0.161,0.776 0.721,1.464 0.165,2.623c-1.397,-1.389 -0.821,-3.332 -0.821,-3.332c0.65,-0.976 0.869,-1.55 0.343,-3.245Z" style="fill:#333;"/>
                            </g>
                            <path d="M38.639,14.397c-0.169,0.764 -5.496,1.947 -5.574,-2.672c0.644,2.756 4.728,3.68 6.031,1.019c-0.104,0.558 -0.446,1.314 -0.457,1.653Z" style="fill:#333;fill-opacity:0.55;"/>
                        </g>
                    </g>
                    <g id="side3" serif:id="side">
                        <g id="LINES1" serif:id="LINES">
                            <path d="M30.226,0.458c-0.177,0.405 -0.308,1.035 -1.214,1.14c-1.566,0.182 -3.196,0.197 -4.246,1.78c-1.235,1.86 -1.507,3.266 -1.668,5.122c-0.124,1.424 0.059,1.917 0,3.08c-0.059,1.163 -0.112,2.59 -0.294,3.074c-0.424,1.126 -0.592,3.038 -0.534,3.996" style="fill:none;stroke:#333;stroke-width:0.6px;"/>
                            <path d="M25.441,6.696c0.063,0.435 0.314,0.775 0.451,0.91" style="fill:none;stroke:#333;stroke-width:0.4px;"/>
                            <path d="M25.821,13.324c0.159,0.446 0.136,0.745 0,1.39c-0.126,0.6 -1.276,1.846 -1.822,4.524" style="fill:none;stroke:#333;stroke-width:0.6px;"/>
                            <path d="M27.031,16.88c0.184,-0.468 0.059,-0.948 -0.193,-1.661" style="fill:none;stroke:#333;stroke-width:0.16px;"/>
                            <path d="M25.618,13.14c0.14,0.456 0.048,0.853 -0,1.174c-0.058,0.383 0.041,0.824 -0.221,1.35" style="fill:none;stroke:#333;stroke-width:0.4px;"/>
                        </g>
                        <g id="BREAST3" serif:id="BREAST">
                            <path d="M31.923,9.301c-0.281,0.448 -0.047,1.438 -0.357,2.635c-0.352,1.363 -1.744,2.353 -3.369,2.408c-1.964,0.066 -3.544,-1.758 -2.783,-4.228c0.35,-1.137 0.701,-1.737 0.655,-2.434" style="fill:none;stroke:#333;stroke-width:0.6px;"/>
                            <g>
                                <path d="M28.515,10.589c0.068,0.115 0.108,0.25 0.108,0.394c-0,0.427 -0.348,0.774 -0.775,0.774c-0.427,0 -0.775,-0.347 -0.775,-0.774c0,-0.144 0.04,-0.279 0.108,-0.394" style="fill:none;stroke:#333;stroke-width:0.23px;"/>
                                <path d="M28.003,10.971c0,0.105 -0.085,0.191 -0.191,0.191c-0.105,0 -0.191,-0.086 -0.191,-0.191" style="fill:none;stroke:#333;stroke-width:0.23px;"/>
                            </g>
                        </g>
                        <g id="SHADE1" serif:id="SHADE">
                            <g id="_201" serif:id="20" opacity="0.2">
                                <g id="lighter3" serif:id="lighter" opacity="0.5">
                                    <path d="M28.64,20.012c-1.492,-1.926 -1.358,-3.876 -2.021,-3.424c-0.728,0.495 -0.871,1.705 0.727,3.662l1.294,-0.238Z" style="fill:#333;"/>
                                    <path d="M30.015,0.705c-0.027,0.798 0.457,0.57 0.35,1.177c-0.1,0.572 -0.724,0.329 -1.509,0.19c-0.98,-0.174 -1.657,-0.146 -2.794,0.183c0.665,-0.432 1.655,-0.582 2.794,-0.602c0.6,0.011 1.068,-0.419 1.159,-0.948Z" style="fill:#333;"/>
                                </g>
                                <path d="M26.228,7.616c-0.293,-0.731 0.324,-1.132 -0.469,-1.389c-0.924,-0.3 -0.552,0.69 -0.552,0.69c0.124,0.397 0.495,0.607 1.021,0.699Z" style="fill:#333;"/>
                                <path d="M25.413,9.774c-0.885,1.734 -0.599,2.579 -0.313,3.954c0.16,0.776 -0.722,1.464 -0.166,2.623c1.398,-1.389 0.822,-3.332 0.822,-3.332c-0.65,-0.976 -0.869,-1.55 -0.343,-3.245Z" style="fill:#333;"/>
                            </g>
                            <path d="M25.973,14.397c0.169,0.764 5.495,1.947 5.574,-2.672c-0.644,2.756 -4.729,3.68 -6.031,1.019c0.103,0.558 0.446,1.314 0.457,1.653Z" style="fill:#333;fill-opacity:0.55;"/>
                        </g>
                    </g>
                    <path d="M31.662,2.475c0.442,0.561 0.871,0.537 1.288,0" style="fill:none;stroke:#333;stroke-width:0.2px;"/>
                </g>
            </g>
        </g>
    </g>
</svg>
