<?xml version="1.0" encoding="UTF-8" standalone="no"?>
<!DOCTYPE svg PUBLIC "-//W3C//DTD SVG 1.1//EN" "http://www.w3.org/Graphics/SVG/1.1/DTD/svg11.dtd">
<svg width="100%" height="100%" viewBox="0 0 43 20" version="1.1" xmlns="http://www.w3.org/2000/svg" xmlns:xlink="http://www.w3.org/1999/xlink" xml:space="preserve" xmlns:serif="http://www.serif.com/" style="fill-rule:evenodd;clip-rule:evenodd;stroke-linecap:round;stroke-linejoin:round;stroke-miterlimit:1.5;">
    <rect id="SYS-6-4-2" serif:id="SYS 6-4-2" x="0" y="0" width="43" height="20" style="fill:none;"/>
    <clipPath id="_clip1">
        <rect x="0" y="0" width="43" height="20"/>
    </clipPath>
    <g clip-path="url(#_clip1)">
        <g>
            <g id="RELAXED">
                <g id="smaller">
                    <g id="side">
                        <g id="lines">
                            <path d="M12.611,0.501c0.257,0.418 0.32,0.693 1.149,1.074c1.398,0.643 3.145,0.997 3.87,2.339c0.947,1.755 0.787,4.122 0.741,5.521c-0.024,0.702 0.396,5.252 0.617,5.718c0.222,0.466 0.847,2.326 0.959,3.265" style="fill:none;stroke:#333;stroke-width:0.6px;"/>
                            <path d="M16.705,7.424c-0.102,0.599 -0.379,1.019 -0.587,1.083" style="fill:none;stroke:#333;stroke-width:0.4px;"/>
                            <path d="M16.277,13.923c-0.109,1.012 -0.31,1.732 -0.366,2.399c-0.091,1.106 1.144,1.886 1.315,3.009" style="fill:none;stroke:#333;stroke-width:0.6px;"/>
                            <path d="M14.777,15.663c-0.158,0.545 -0.576,0.948 -0.981,1.379" style="fill:none;stroke:#333;stroke-width:0.16px;"/>
                            <path d="M16.075,14.875c0.172,0.598 0.186,1.203 0.241,1.785c0.048,0.504 0.127,0.991 0.367,1.44" style="fill:none;stroke:#333;stroke-width:0.4px;"/>
                            <g id="BREAST">
                                <path d="M10.892,10.228c0.555,0.954 0.782,2.924 2.607,4.073c0.791,0.498 3.292,0.558 3.112,-1.768c-0.139,-1.793 -0.735,-2.824 -0.457,-3.968" style="fill:none;stroke:#333;stroke-width:0.6px;"/>
                                <g>
                                    <path d="M14.609,12.525c-0.091,0.11 -0.155,0.245 -0.179,0.396c-0.072,0.449 0.235,0.872 0.684,0.944c0.449,0.071 0.872,-0.235 0.943,-0.685c0.024,-0.151 0.005,-0.299 -0.047,-0.432" style="fill:none;stroke:#333;stroke-width:0.23px;"/>
                                    <path d="M15.126,13.059c-0.021,0.13 0.068,0.253 0.199,0.273c0.13,0.021 0.253,-0.068 0.274,-0.198" style="fill:none;stroke:#333;stroke-width:0.23px;"/>
                                </g>
                            </g>
                        </g>
                        <g id="shade">
                            <path d="M16.17,11.141c0.319,0.695 0.518,1.336 0.415,2.221c-0.053,0.452 -0.255,1.084 -0.415,1.579c-2.548,0.915 -4.255,-0.794 -4.879,-3.8c0.646,2.083 2.267,3.601 3.22,3.479c1.843,-0.235 2.506,-1.395 1.659,-3.479Z" style="fill:#333;fill-opacity:0.55;"/>
                            <g id="_20" serif:id="20" opacity="0.2">
                                <path d="M16.63,11.85c-0.057,3.798 0.948,3.308 0.352,4.661c-0.243,0.55 0.042,1.172 0.311,2.327c-0.534,-0.587 -0.973,-1.335 -1.268,-2.327c-0.065,-0.757 -0.089,-1.918 0.343,-2.853c0.298,-0.647 0.186,-1.246 0.262,-1.808Z" style="fill:#333;"/>
                                <path d="M16.831,7.595c0.281,1.007 -0.428,2.087 -0.201,3.324c-0.467,-0.715 -0.683,-1.483 -0.447,-2.342l0.648,-0.982Z" style="fill:#333;"/>
                                <path d="M15.966,8.513c0.601,-1.323 -0.252,-1.232 0.322,-1.636c0.36,-0.254 0.572,0.121 0.522,0.449c-0.095,0.619 -0.372,1.01 -0.818,1.187" style="fill:#333;"/>
                                <g id="lighter" opacity="0.5">
                                    <path d="M16.486,2.841c-1.897,-0.754 -3.766,-0.4 -4.491,-0.785c-0.598,-0.318 0.599,-0.541 0.552,-1.597l0.739,1.039l3.2,1.343Z" style="fill:#333;"/>
                                    <path d="M13.865,20.178c-0,0 -1.042,-1.283 -0.685,-2.496c0.243,-0.826 1.346,-1.21 1.594,-0.958c0.33,0.333 -1.338,1.893 -0.909,3.454Z" style="fill:#333;"/>
                                </g>
                            </g>
                        </g>
                    </g>
                    <g id="side1" serif:id="side">
                        <g id="lines1" serif:id="lines">
                            <path d="M7.961,0.501c-0.257,0.418 -0.32,0.693 -1.149,1.074c-1.398,0.643 -3.145,0.997 -3.87,2.339c-0.947,1.755 -0.787,4.122 -0.741,5.521c0.024,0.702 -0.396,5.252 -0.617,5.718c-0.222,0.466 -0.847,2.326 -0.959,3.265" style="fill:none;stroke:#333;stroke-width:0.6px;"/>
                            <path d="M3.867,7.424c0.102,0.599 0.379,1.019 0.587,1.083" style="fill:none;stroke:#333;stroke-width:0.4px;"/>
                            <path d="M4.295,13.923c0.109,1.012 0.31,1.732 0.366,2.399c0.091,1.106 -1.144,1.886 -1.315,3.009" style="fill:none;stroke:#333;stroke-width:0.6px;"/>
                            <path d="M5.795,15.663c0.158,0.545 0.576,0.948 0.981,1.379" style="fill:none;stroke:#333;stroke-width:0.16px;"/>
                            <path d="M4.497,14.875c-0.172,0.598 -0.186,1.203 -0.241,1.785c-0.048,0.504 -0.127,0.991 -0.367,1.44" style="fill:none;stroke:#333;stroke-width:0.4px;"/>
                            <g id="BREAST1" serif:id="BREAST">
                                <path d="M9.68,10.228c-0.555,0.954 -0.782,2.924 -2.607,4.073c-0.791,0.498 -3.292,0.558 -3.112,-1.768c0.139,-1.793 0.735,-2.824 0.457,-3.968" style="fill:none;stroke:#333;stroke-width:0.6px;"/>
                                <g>
                                    <path d="M5.963,12.525c0.091,0.11 0.155,0.245 0.179,0.396c0.072,0.449 -0.235,0.872 -0.684,0.944c-0.449,0.071 -0.872,-0.235 -0.943,-0.685c-0.024,-0.151 -0.005,-0.299 0.047,-0.432" style="fill:none;stroke:#333;stroke-width:0.23px;"/>
                                    <path d="M5.446,13.059c0.021,0.13 -0.068,0.253 -0.199,0.273c-0.13,0.021 -0.253,-0.068 -0.274,-0.198" style="fill:none;stroke:#333;stroke-width:0.23px;"/>
                                </g>
                            </g>
                        </g>
                        <g id="shade1" serif:id="shade">
                            <path d="M4.402,11.141c-0.319,0.695 -0.518,1.336 -0.415,2.221c0.053,0.452 0.255,1.084 0.415,1.579c2.548,0.915 4.255,-0.794 4.879,-3.8c-0.646,2.083 -2.267,3.601 -3.22,3.479c-1.843,-0.235 -2.506,-1.395 -1.659,-3.479Z" style="fill:#333;fill-opacity:0.55;"/>
                            <g id="_201" serif:id="20" opacity="0.2">
                                <path d="M3.942,11.85c0.057,3.798 -0.948,3.308 -0.352,4.661c0.243,0.55 -0.042,1.172 -0.311,2.327c0.534,-0.587 0.973,-1.335 1.268,-2.327c0.065,-0.757 0.089,-1.918 -0.343,-2.853c-0.298,-0.647 -0.186,-1.246 -0.262,-1.808Z" style="fill:#333;"/>
                                <path d="M3.741,7.595c-0.281,1.007 0.428,2.087 0.201,3.324c0.467,-0.715 0.683,-1.483 0.447,-2.342l-0.648,-0.982Z" style="fill:#333;"/>
                                <path d="M4.606,8.513c-0.601,-1.323 0.252,-1.232 -0.322,-1.636c-0.36,-0.254 -0.572,0.121 -0.522,0.449c0.095,0.619 0.372,1.01 0.818,1.187" style="fill:#333;"/>
                                <g id="lighter1" serif:id="lighter" opacity="0.5">
                                    <path d="M4.086,2.841c1.897,-0.754 3.766,-0.4 4.491,-0.785c0.598,-0.318 -0.599,-0.541 -0.552,-1.597l-0.739,1.039l-3.2,1.343Z" style="fill:#333;"/>
                                    <path d="M6.707,20.178c0,0 1.042,-1.283 0.685,-2.496c-0.243,-0.826 -1.346,-1.21 -1.594,-0.958c-0.33,0.333 1.338,1.893 0.909,3.454Z" style="fill:#333;"/>
                                </g>
                            </g>
                        </g>
                    </g>
                    <path d="M9.627,2.475c0.442,0.561 0.871,0.537 1.288,0" style="fill:none;stroke:#333;stroke-width:0.2px;"/>
                </g>
                <g id="larger">
                    <g id="side2" serif:id="side">
                        <g id="shade2" serif:id="shade">
                            <path d="M39.927,17.499c-2.269,0.998 -4.553,0.488 -5.942,-1.928c-0.721,-1.254 -1.201,-3.021 -1.314,-5.358c0.445,2.775 1.348,5.44 3.302,6.313c1.742,0.778 2.919,0.231 3.469,-0.289c0.087,0.29 0.23,0.887 0.485,1.262Z" style="fill:#333;fill-opacity:0.55;"/>
                            <g id="_202" serif:id="20" opacity="0.2">
                                <g id="lighter2" serif:id="lighter" opacity="0.5">
                                    <path d="M36.14,20.673c0.893,-1.502 0.183,-2.876 0.968,-2.614c0.86,0.286 1.36,1.133 0.372,2.667l-1.34,-0.053Z" style="fill:#333;"/>
                                    <path d="M31.911,9.616c0.273,-0.294 0.588,-0.263 0.935,0.013c-0.066,-0.236 -0.197,-0.43 -0.468,-0.532c-0.232,0.026 -0.406,0.163 -0.467,0.519Z" style="fill:#333;"/>
                                    <path d="M34.672,0.421c0.027,0.799 -0.784,1.099 -0.677,1.705c0.101,0.572 0.961,0.651 1.747,0.512c0.98,-0.174 1.584,-0.56 2.794,-0.383c-0.666,-0.432 -1.655,-0.582 -2.794,-0.602c-0.6,0.011 -0.979,-0.702 -1.07,-1.232Z" style="fill:#333;"/>
                                </g>
                                <path d="M39.23,8.406c0.164,-1.176 -0.258,-1.748 0.254,-2.227c0.597,-0.557 0.39,1.034 0.39,1.034c-0.066,0.635 -0.302,0.999 -0.644,1.193Z" style="fill:#333;"/>
                                <path d="M40.293,14.802c0.19,0.726 0.317,1.165 0.214,1.63c-0.158,0.718 0.184,1.234 0.472,2.298c-0.476,-0.754 -1.239,-1.609 -1.564,-2.298c0.318,-0.307 0.747,-1.164 0.878,-1.63Z" style="fill:#333;"/>
                            </g>
                        </g>
                        <g id="lines2" serif:id="lines">
                            <g id="BREAST2" serif:id="BREAST">
                                <path d="M32.773,9.772c0.539,1.574 0.405,5.043 2.881,6.608c1.16,0.735 4.58,1.048 4.54,-2.064c-0.042,-3.328 -1.182,-4.285 -0.701,-6.114" style="fill:none;stroke:#333;stroke-width:0.6px;"/>
                                <g>
                                    <path d="M37.652,14.069c-0.132,0.135 -0.23,0.305 -0.278,0.501c-0.142,0.582 0.215,1.17 0.797,1.312c0.582,0.142 1.17,-0.215 1.312,-0.797c0.048,-0.196 0.039,-0.393 -0.016,-0.573" style="fill:none;stroke:#333;stroke-width:0.23px;"/>
                                    <path d="M38.3,14.819c-0.021,0.131 0.068,0.253 0.199,0.274c0.13,0.021 0.253,-0.068 0.273,-0.199" style="fill:none;stroke:#333;stroke-width:0.23px;"/>
                                </g>
                            </g>
                            <g id="body">
                                <path d="M34.681,0.501c0.257,0.418 0.33,1.073 1.236,1.178c1.566,0.182 3.505,0.352 4.381,1.835c1.215,2.059 0.817,5.631 0.721,6.327c-0.095,0.695 -0.059,1.412 0,2.575c0.059,1.163 0.383,2.372 0.605,2.839c0.222,0.466 0.611,2.224 0.722,3.163" style="fill:none;stroke:#333;stroke-width:0.6px;"/>
                                <path d="M39.935,7.037c-0.019,0.625 -0.223,0.949 -0.451,1.183" style="fill:none;stroke:#333;stroke-width:0.4px;"/>
                                <path d="M39.419,16.387c0.236,0.947 1.473,1.816 1.623,2.803" style="fill:none;stroke:#333;stroke-width:0.6px;"/>
                                <path d="M39.628,16.226c0.191,0.431 0.189,1.036 0.793,1.753" style="fill:none;stroke:#333;stroke-width:0.6px;"/>
                                <path d="M37.395,18.981c0.211,-0.476 0.416,-0.92 0.337,-1.401" style="fill:none;stroke:#333;stroke-width:0.16px;"/>
                            </g>
                        </g>
                    </g>
                    <g id="side3" serif:id="side">
                        <g id="shade3" serif:id="shade">
                            <path d="M24.825,17.499c2.27,0.998 4.553,0.488 5.943,-1.928c0.721,-1.254 1.201,-3.021 1.313,-5.358c-0.445,2.775 -1.347,5.44 -3.302,6.313c-1.742,0.778 -2.918,0.231 -3.469,-0.289c-0.087,0.29 -0.229,0.887 -0.485,1.262Z" style="fill:#333;fill-opacity:0.55;"/>
                            <g id="_203" serif:id="20" opacity="0.2">
                                <g id="lighter3" serif:id="lighter" opacity="0.5">
                                    <path d="M28.612,20.673c-0.893,-1.502 -0.183,-2.876 -0.968,-2.614c-0.86,0.286 -1.359,1.133 -0.371,2.667l1.339,-0.053Z" style="fill:#333;"/>
                                    <path d="M32.842,9.616c-0.273,-0.294 -0.588,-0.263 -0.935,0.013c0.066,-0.236 0.197,-0.43 0.468,-0.532c0.231,0.026 0.405,0.163 0.467,0.519Z" style="fill:#333;"/>
                                    <path d="M30.081,0.421c-0.028,0.799 0.783,1.099 0.676,1.705c-0.1,0.572 -0.961,0.651 -1.746,0.512c-0.98,-0.174 -1.584,-0.56 -2.795,-0.383c0.666,-0.432 1.656,-0.582 2.795,-0.602c0.6,0.011 0.978,-0.702 1.07,-1.232Z" style="fill:#333;"/>
                                </g>
                                <path d="M25.523,8.406c-0.165,-1.176 0.257,-1.748 -0.255,-2.227c-0.596,-0.557 -0.39,1.034 -0.39,1.034c0.066,0.635 0.302,0.999 0.645,1.193Z" style="fill:#333;"/>
                                <path d="M24.46,14.802c-0.191,0.726 -0.317,1.165 -0.215,1.63c0.159,0.718 -0.183,1.234 -0.471,2.298c0.476,-0.754 1.238,-1.609 1.563,-2.298c-0.317,-0.307 -0.747,-1.164 -0.877,-1.63Z" style="fill:#333;"/>
                            </g>
                        </g>
                        <g id="lines3" serif:id="lines">
                            <g id="BREAST3" serif:id="BREAST">
                                <path d="M31.979,9.772c-0.539,1.574 -0.405,5.043 -2.88,6.608c-1.161,0.735 -4.58,1.048 -4.541,-2.064c0.043,-3.328 1.183,-4.285 0.702,-6.114" style="fill:none;stroke:#333;stroke-width:0.6px;"/>
                                <g>
                                    <path d="M27.101,14.069c0.131,0.135 0.23,0.305 0.278,0.501c0.141,0.582 -0.216,1.17 -0.798,1.312c-0.582,0.142 -1.17,-0.215 -1.312,-0.797c-0.048,-0.196 -0.039,-0.393 0.016,-0.573" style="fill:none;stroke:#333;stroke-width:0.23px;"/>
                                    <path d="M26.452,14.819c0.021,0.131 -0.068,0.253 -0.198,0.274c-0.131,0.021 -0.253,-0.068 -0.274,-0.199" style="fill:none;stroke:#333;stroke-width:0.23px;"/>
                                </g>
                            </g>
                            <g id="body1" serif:id="body">
                                <path d="M30.072,0.501c-0.258,0.418 -0.331,1.073 -1.237,1.178c-1.566,0.182 -3.505,0.352 -4.38,1.835c-1.215,2.059 -0.817,5.631 -0.722,6.327c0.096,0.695 0.059,1.412 0,2.575c-0.059,1.163 -0.383,2.372 -0.605,2.839c-0.222,0.466 -0.61,2.224 -0.722,3.163" style="fill:none;stroke:#333;stroke-width:0.6px;"/>
                                <path d="M24.817,7.037c0.019,0.625 0.224,0.949 0.451,1.183" style="fill:none;stroke:#333;stroke-width:0.4px;"/>
                                <path d="M25.333,16.387c-0.235,0.947 -1.472,1.816 -1.623,2.803" style="fill:none;stroke:#333;stroke-width:0.6px;"/>
                                <path d="M25.124,16.226c-0.19,0.431 -0.188,1.036 -0.792,1.753" style="fill:none;stroke:#333;stroke-width:0.6px;"/>
                                <path d="M27.358,18.981c-0.212,-0.476 -0.417,-0.92 -0.337,-1.401" style="fill:none;stroke:#333;stroke-width:0.16px;"/>
                            </g>
                        </g>
                    </g>
                    <path d="M31.697,2.475c0.442,0.561 0.871,0.537 1.288,0" style="fill:none;stroke:#333;stroke-width:0.2px;"/>
                    <path d="M32.018,9.308c0.165,-0.253 0.495,-0.309 0.663,-0" style="fill:none;stroke:#333;stroke-width:0.16px;"/>
                </g>
            </g>
        </g>
    </g>
</svg>
