<?xml version="1.0" encoding="UTF-8" standalone="no"?>
<!DOCTYPE svg PUBLIC "-//W3C//DTD SVG 1.1//EN" "http://www.w3.org/Graphics/SVG/1.1/DTD/svg11.dtd">
<svg width="100%" height="100%" viewBox="0 0 43 20" version="1.1" xmlns="http://www.w3.org/2000/svg" xmlns:xlink="http://www.w3.org/1999/xlink" xml:space="preserve" xmlns:serif="http://www.serif.com/" style="fill-rule:evenodd;clip-rule:evenodd;stroke-linecap:round;stroke-linejoin:round;stroke-miterlimit:1.5;">
    <rect id="SYS-6-4-2" serif:id="SYS 6-4-2" x="0" y="0" width="43" height="20" style="fill:none;"/>
    <clipPath id="_clip1">
        <rect x="0" y="0" width="43" height="20"/>
    </clipPath>
    <g clip-path="url(#_clip1)">
        <g>
            <g id="SIDE-SET">
                <g id="smaller">
                    <g id="side">
                        <g id="shade">
                            <g opacity="0.2">
                                <path d="M16.293,11.887c-0.057,3.798 0.948,3.308 0.352,4.661c-0.243,0.55 -0.269,1.191 0,2.346c-0.534,-0.588 -0.662,-1.354 -0.957,-2.346c-0.111,-1.29 0.066,-3.835 0.605,-4.661Z" style="fill:#333;"/>
                                <path d="M16.487,7.707c0.179,0.839 -0.144,1.352 0,2.383c-0.298,-0.597 -0.681,-0.925 -0.531,-1.641l0.531,-0.742Z" style="fill:#333;"/>
                                <path d="M15.743,8.52c-0.21,-0.268 0.037,-0.942 0.45,-1.394c0.236,-0.259 0.513,0.237 0.326,0.447c-0.339,0.382 -0.394,0.75 -0.776,0.947Z" style="fill:#333;"/>
                                <g id="lighter" opacity="0.5">
                                    <path d="M15.935,2.771c-1.774,-0.642 -3.027,-0.348 -3.709,-0.684c-0.561,-0.276 0.077,-0.426 0,-1.407l0.913,0.781l2.796,1.31Z" style="fill:#333;"/>
                                    <path d="M13.162,17.196c-0.345,0.557 0.939,0.024 1.589,-1.502c0.338,-0.793 -0.142,-1.676 -0.493,-1.634c-0.466,0.057 -0.093,2.508 -1.096,3.136Z" style="fill:#333;"/>
                                </g>
                            </g>
                            <path d="M16.437,10.179c0.203,1.176 -0.288,2.073 -0.548,2.884c-2.349,0.327 -3.72,-0.284 -4.532,-2.732c0.949,1.363 2.026,2.25 3.168,2.19c0.94,-0.049 2.146,-0.235 1.912,-2.342Z" style="fill:#333;fill-opacity:0.55;"/>
                        </g>
                        <g id="lines">
                            <path d="M14.354,14.509c0.004,0.569 -0.292,0.956 -0.543,1.487" style="fill:none;stroke:#333;stroke-width:0.16px;"/>
                            <path d="M15.814,14.563c0.189,1.416 -0.02,2.493 0.352,3.287" style="fill:none;stroke:#333;stroke-width:0.4px;"/>
                            <path d="M15.941,12.176c-0.234,1.964 -0.179,2.887 -0.262,3.883c-0.092,1.106 0.85,2.211 1.021,3.335" style="fill:none;stroke:#333;stroke-width:0.6px;"/>
                            <path d="M12.192,0.469c0.089,0.48 0.646,0.866 1.241,1.127c1.271,0.557 2.571,0.799 3.418,1.901c1.249,1.627 0.978,4.534 0.893,5.628c-0.054,0.7 0.506,5.649 0.662,6.141c0.285,0.896 0.458,2.19 0.677,3.431" style="fill:none;stroke:#333;stroke-width:0.6px;"/>
                            <path d="M16.395,7.716c-0.228,0.38 -0.432,0.5 -0.466,0.597" style="fill:none;stroke:#333;stroke-width:0.4px;"/>
                            <g id="BREAST">
                                <path d="M11.02,9.072c0.33,1.787 1.639,3.258 3.131,3.454c2.224,0.293 2.815,-1.498 2.215,-2.618c-0.209,-0.39 -0.426,-0.869 -0.414,-1.587" style="fill:none;stroke:#333;stroke-width:0.6px;"/>
                                <g>
                                    <path d="M14.867,10.471c-0.058,0.098 -0.092,0.213 -0.092,0.335c0,0.363 0.295,0.658 0.659,0.658c0.363,0 0.658,-0.295 0.658,-0.658c-0,-0.122 -0.034,-0.237 -0.092,-0.335" style="fill:none;stroke:#333;stroke-width:0.23px;"/>
                                    <path d="M15.278,10.766c0,0.105 0.086,0.191 0.191,0.191c0.106,-0 0.191,-0.086 0.191,-0.191" style="fill:none;stroke:#333;stroke-width:0.23px;"/>
                                </g>
                            </g>
                        </g>
                    </g>
                    <g id="side1" serif:id="side">
                        <g id="shade1" serif:id="shade">
                            <g opacity="0.2">
                                <path d="M4.287,11.887c0.056,3.798 -0.948,3.308 -0.352,4.661c0.242,0.55 0.269,1.191 -0,2.346c0.534,-0.588 0.662,-1.354 0.956,-2.346c0.111,-1.29 -0.065,-3.835 -0.604,-4.661Z" style="fill:#333;"/>
                                <path d="M4.093,7.707c-0.179,0.839 0.144,1.352 -0,2.383c0.297,-0.597 0.681,-0.925 0.53,-1.641l-0.53,-0.742Z" style="fill:#333;"/>
                                <path d="M4.837,8.52c0.209,-0.268 -0.037,-0.942 -0.45,-1.394c-0.236,-0.259 -0.513,0.237 -0.326,0.447c0.339,0.382 0.394,0.75 0.776,0.947Z" style="fill:#333;"/>
                                <g id="lighter1" serif:id="lighter" opacity="0.5">
                                    <path d="M4.645,2.771c1.773,-0.642 3.027,-0.348 3.708,-0.684c0.562,-0.276 -0.076,-0.426 0,-1.407l-0.912,0.781l-2.796,1.31Z" style="fill:#333;"/>
                                    <path d="M7.418,17.196c0.345,0.557 -0.939,0.024 -1.589,-1.502c-0.338,-0.793 0.142,-1.676 0.493,-1.634c0.465,0.057 0.092,2.508 1.096,3.136Z" style="fill:#333;"/>
                                </g>
                            </g>
                            <path d="M4.142,10.179c-0.202,1.176 0.289,2.073 0.549,2.884c2.348,0.327 3.72,-0.284 4.532,-2.732c-0.949,1.363 -2.026,2.25 -3.168,2.19c-0.94,-0.049 -2.146,-0.235 -1.913,-2.342Z" style="fill:#333;fill-opacity:0.55;"/>
                        </g>
                        <g id="lines1" serif:id="lines">
                            <path d="M6.226,14.509c-0.004,0.569 0.292,0.956 0.542,1.487" style="fill:none;stroke:#333;stroke-width:0.16px;"/>
                            <path d="M4.766,14.563c-0.189,1.416 0.02,2.493 -0.352,3.287" style="fill:none;stroke:#333;stroke-width:0.4px;"/>
                            <path d="M4.639,12.176c0.234,1.964 0.179,2.887 0.262,3.883c0.091,1.106 -0.85,2.211 -1.021,3.335" style="fill:none;stroke:#333;stroke-width:0.6px;"/>
                            <path d="M8.388,0.469c-0.089,0.48 -0.647,0.866 -1.241,1.127c-1.271,0.557 -2.571,0.799 -3.418,1.901c-1.249,1.627 -0.978,4.534 -0.893,5.628c0.054,0.7 -0.506,5.649 -0.662,6.141c-0.285,0.896 -0.458,2.19 -0.677,3.431" style="fill:none;stroke:#333;stroke-width:0.6px;"/>
                            <path d="M4.185,7.716c0.227,0.38 0.432,0.5 0.465,0.597" style="fill:none;stroke:#333;stroke-width:0.4px;"/>
                            <g id="BREAST1" serif:id="BREAST">
                                <path d="M9.56,9.072c-0.331,1.787 -1.639,3.258 -3.132,3.454c-2.223,0.293 -2.814,-1.498 -2.214,-2.618c0.209,-0.39 0.426,-0.869 0.413,-1.587" style="fill:none;stroke:#333;stroke-width:0.6px;"/>
                                <g>
                                    <path d="M5.713,10.471c0.058,0.098 0.091,0.213 0.091,0.335c0,0.363 -0.295,0.658 -0.658,0.658c-0.363,0 -0.658,-0.295 -0.658,-0.658c0,-0.122 0.034,-0.237 0.092,-0.335" style="fill:none;stroke:#333;stroke-width:0.23px;"/>
                                    <path d="M5.302,10.766c-0,0.105 -0.086,0.191 -0.192,0.191c-0.105,-0 -0.191,-0.086 -0.191,-0.191" style="fill:none;stroke:#333;stroke-width:0.23px;"/>
                                </g>
                            </g>
                        </g>
                    </g>
                    <path d="M9.664,2.475c0.442,0.561 0.871,0.537 1.288,0" style="fill:none;stroke:#333;stroke-width:0.2px;"/>
                </g>
                <g id="larger">
                    <g id="side2" serif:id="side">
                        <g id="LINES">
                            <path d="M34.385,0.458c0.178,0.405 0.145,1.048 1.05,1.153c1.567,0.182 3.203,0.135 4.253,1.718c1.236,1.86 1.664,3.315 1.826,5.171c0.123,1.424 -0.06,1.917 -0,3.08c0.059,1.163 0.232,2.64 0.414,3.123c0.423,1.127 0.472,2.989 0.414,3.947" style="fill:none;stroke:#333;stroke-width:0.6px;"/>
                            <path d="M39.46,6.646c-0.013,0.439 -0.225,0.805 -0.346,0.955" style="fill:none;stroke:#333;stroke-width:0.4px;"/>
                            <path d="M38.973,13.145c-0.158,0.447 -0.319,0.924 -0.183,1.569c0.127,0.6 1.277,1.846 1.822,4.524" style="fill:none;stroke:#333;stroke-width:0.6px;"/>
                            <path d="M37.58,16.88c-0.184,-0.468 -0.058,-0.948 0.194,-1.661" style="fill:none;stroke:#333;stroke-width:0.16px;"/>
                            <path d="M39.052,13.14c-0.14,0.456 -0.048,0.853 -0,1.174c0.058,0.383 -0.041,0.824 0.221,1.35" style="fill:none;stroke:#333;stroke-width:0.4px;"/>
                        </g>
                        <g id="BREAST2" serif:id="BREAST">
                            <path d="M33.541,8.639c0.292,1.864 1.931,4.668 4.375,4.638c2.33,-0.03 3.013,-2.028 2.514,-3.295c-0.634,-1.61 -1.388,-1.922 -1.458,-2.671" style="fill:none;stroke:#333;stroke-width:0.6px;"/>
                            <g>
                                <path d="M38.392,10.138c-0.08,0.135 -0.126,0.293 -0.126,0.461c-0,0.5 0.406,0.906 0.906,0.906c0.5,0 0.906,-0.406 0.906,-0.906c0,-0.168 -0.046,-0.326 -0.126,-0.461" style="fill:none;stroke:#333;stroke-width:0.23px;"/>
                                <path d="M39.017,10.62c-0,0.105 0.085,0.191 0.191,0.191c0.105,-0 0.191,-0.086 0.191,-0.191" style="fill:none;stroke:#333;stroke-width:0.23px;"/>
                            </g>
                        </g>
                        <g id="SHADE">
                            <g id="BODY" opacity="0.2">
                                <g id="lighter2" serif:id="lighter" opacity="0.5">
                                    <path d="M35.972,20.012c1.492,-1.926 1.358,-3.876 2.021,-3.424c0.727,0.495 0.871,1.705 -0.728,3.662l-1.293,-0.238Z" style="fill:#333;"/>
                                    <path d="M34.686,0.421c0.027,0.799 -0.784,0.626 -0.677,1.232c0.101,0.572 0.961,0.741 1.747,0.602c0.98,-0.174 1.584,-0.177 2.794,-0c-0.666,-0.432 -1.655,-0.582 -2.794,-0.602c-0.6,0.011 -0.979,-0.702 -1.07,-1.232Z" style="fill:#333;"/>
                                    <path d="M40.34,9.606c-0.936,-1.122 -2.128,-1.609 -2.304,-1.818c-0.187,-0.22 0.312,-0.403 0.862,-0.355l1.442,2.173Z" style="fill:#333;"/>
                                </g>
                                <path d="M38.999,7.593c0.245,-0.688 -0.272,-1.057 0.393,-1.308c0.773,-0.292 0.462,0.641 0.462,0.641c-0.104,0.373 -0.414,0.574 -0.855,0.667Z" style="fill:#333;"/>
                                <path d="M40.251,9.662c1.119,2.021 0.438,3.109 -0.42,3.998c-0.566,0.586 0.449,1.522 -0,2.631c-1.398,-1.389 -0.643,-3.137 -0.643,-3.137c1.396,-0.794 1.589,-1.797 1.063,-3.492Z" style="fill:#333;"/>
                            </g>
                            <path d="M38.623,14.135c-0.724,0.371 -4.296,0.104 -5.035,-5.335c0.41,1.517 1.839,3.81 3.521,4.315c2.161,0.648 3.097,-0.654 3.444,-1.756c-0.214,1.603 -1.748,2.369 -1.93,2.776Z" style="fill:#333;fill-opacity:0.55;"/>
                        </g>
                    </g>
                    <g id="side3" serif:id="side">
                        <g id="LINES1" serif:id="LINES">
                            <path d="M30.305,0.458c-0.178,0.405 -0.145,1.048 -1.051,1.153c-1.566,0.182 -3.202,0.135 -4.252,1.718c-1.236,1.86 -1.664,3.315 -1.826,5.171c-0.123,1.424 0.06,1.917 0,3.08c-0.059,1.163 -0.232,2.64 -0.414,3.123c-0.423,1.127 -0.472,2.989 -0.414,3.947" style="fill:none;stroke:#333;stroke-width:0.6px;"/>
                            <path d="M25.229,6.646c0.014,0.439 0.226,0.805 0.347,0.955" style="fill:none;stroke:#333;stroke-width:0.4px;"/>
                            <path d="M25.717,13.145c0.158,0.447 0.319,0.924 0.183,1.569c-0.127,0.6 -1.277,1.846 -1.822,4.524" style="fill:none;stroke:#333;stroke-width:0.6px;"/>
                            <path d="M27.11,16.88c0.184,-0.468 0.058,-0.948 -0.194,-1.661" style="fill:none;stroke:#333;stroke-width:0.16px;"/>
                            <path d="M25.638,13.14c0.14,0.456 0.048,0.853 -0,1.174c-0.058,0.383 0.041,0.824 -0.221,1.35" style="fill:none;stroke:#333;stroke-width:0.4px;"/>
                        </g>
                        <g id="BREAST3" serif:id="BREAST">
                            <path d="M31.149,8.639c-0.292,1.864 -1.931,4.668 -4.375,4.638c-2.33,-0.03 -3.013,-2.028 -2.514,-3.295c0.634,-1.61 1.388,-1.922 1.458,-2.671" style="fill:none;stroke:#333;stroke-width:0.6px;"/>
                            <g>
                                <path d="M26.298,10.138c0.08,0.135 0.126,0.293 0.126,0.461c0,0.5 -0.406,0.906 -0.906,0.906c-0.5,0 -0.906,-0.406 -0.906,-0.906c-0,-0.168 0.046,-0.326 0.126,-0.461" style="fill:none;stroke:#333;stroke-width:0.23px;"/>
                                <path d="M25.673,10.62c0,0.105 -0.085,0.191 -0.191,0.191c-0.105,-0 -0.191,-0.086 -0.191,-0.191" style="fill:none;stroke:#333;stroke-width:0.23px;"/>
                            </g>
                        </g>
                        <g id="SHADE1" serif:id="SHADE">
                            <g id="BODY1" serif:id="BODY" opacity="0.2">
                                <g id="lighter3" serif:id="lighter" opacity="0.5">
                                    <path d="M28.718,20.012c-1.492,-1.926 -1.358,-3.876 -2.021,-3.424c-0.727,0.495 -0.871,1.705 0.727,3.662l1.294,-0.238Z" style="fill:#333;"/>
                                    <path d="M30.004,0.421c-0.027,0.799 0.784,0.626 0.677,1.232c-0.101,0.572 -0.961,0.741 -1.747,0.602c-0.98,-0.174 -1.584,-0.177 -2.794,-0c0.666,-0.432 1.655,-0.582 2.794,-0.602c0.6,0.011 0.979,-0.702 1.07,-1.232Z" style="fill:#333;"/>
                                    <path d="M24.35,9.606c0.936,-1.122 2.128,-1.609 2.304,-1.818c0.187,-0.22 -0.312,-0.403 -0.862,-0.355l-1.442,2.173Z" style="fill:#333;"/>
                                </g>
                                <path d="M25.691,7.593c-0.246,-0.688 0.272,-1.057 -0.393,-1.308c-0.773,-0.292 -0.462,0.641 -0.462,0.641c0.104,0.373 0.414,0.574 0.855,0.667Z" style="fill:#333;"/>
                                <path d="M24.439,9.662c-1.119,2.021 -0.438,3.109 0.42,3.998c0.566,0.586 -0.449,1.522 0,2.631c1.398,-1.389 0.643,-3.137 0.643,-3.137c-1.396,-0.794 -1.589,-1.797 -1.063,-3.492Z" style="fill:#333;"/>
                            </g>
                            <path d="M26.067,14.135c0.723,0.371 4.296,0.104 5.035,-5.335c-0.41,1.517 -1.839,3.81 -3.521,4.315c-2.161,0.648 -3.097,-0.654 -3.444,-1.756c0.214,1.603 1.748,2.369 1.93,2.776Z" style="fill:#333;fill-opacity:0.55;"/>
                        </g>
                    </g>
                    <path d="M31.711,2.475c0.442,0.561 0.871,0.537 1.288,0" style="fill:none;stroke:#333;stroke-width:0.2px;"/>
                </g>
            </g>
        </g>
    </g>
</svg>
