<?xml version="1.0" encoding="UTF-8" standalone="no"?>
<!DOCTYPE svg PUBLIC "-//W3C//DTD SVG 1.1//EN" "http://www.w3.org/Graphics/SVG/1.1/DTD/svg11.dtd">
<svg width="100%" height="100%" viewBox="0 0 43 20" version="1.1" xmlns="http://www.w3.org/2000/svg" xmlns:xlink="http://www.w3.org/1999/xlink" xml:space="preserve" xmlns:serif="http://www.serif.com/" style="fill-rule:evenodd;clip-rule:evenodd;stroke-linecap:round;stroke-linejoin:round;stroke-miterlimit:1.5;">
    <rect id="SYS-6-4-2" serif:id="SYS 6-4-2" x="0" y="0" width="43" height="20" style="fill:none;"/>
    <g>
        <g id="ASYMMETRIC">
            <g id="smaller">
                <g id="side">
                    <g id="shade">
                        <g opacity="0.2">
                            <path d="M15.568,11.938c0.006,3.248 0.668,2.451 0.245,4.206c-0.139,0.581 -0.088,1.625 0.151,2.78c-0.475,-0.588 -0.589,-1.355 -0.852,-2.346c-0.099,-1.291 -0.024,-3.814 0.456,-4.64Z" style="fill:#333;"/>
                            <path d="M15.984,7.063c0.252,0.516 -0.006,1.036 0.172,1.859c-0.332,-0.394 -0.668,-0.725 -0.595,-1.259l0.423,-0.6Z" style="fill:#333;"/>
                            <path d="M15.364,7.907c-0.27,-0.248 -0.072,-0.933 0.341,-1.413c0.238,-0.275 0.611,0.192 0.425,0.415c-0.339,0.405 -0.357,0.773 -0.766,0.998Z" style="fill:#333;"/>
                            <g id="lighter" opacity="0.5">
                                <path d="M14.893,2.522c-2.021,0.048 -3.09,-0.063 -3.586,-0.308c-0.35,-0.172 0.405,-0.305 -0,-1.666l0.989,1.32l2.597,0.654Z" style="fill:#333;"/>
                                <path d="M12.363,17.228c-0.345,0.558 0.446,0.006 1.097,-1.52c0.337,-0.793 0.353,-1.603 -0,-1.615c-0.669,-0.023 -0.51,2.344 -1.097,3.135Z" style="fill:#333;"/>
                            </g>
                        </g>
                        <path d="M15.512,11.57c0,0 -0.063,0.426 -0.184,0.687c-1.203,0.601 -3.525,0.418 -4.45,-1.542c0.95,1.363 2.115,1.28 3.211,1.322c0.583,0.023 1.423,-0.467 1.423,-0.467Z" style="fill:#333;fill-opacity:0.55;"/>
                    </g>
                    <g id="lines">
                        <path d="M13.579,13.663c-0.164,0.377 -0.27,0.784 -0.351,1.157" style="fill:none;stroke:#333;stroke-width:0.16px;"/>
                        <path d="M15.135,14.152c0.259,1.947 -0.125,2.496 0.385,3.564" style="fill:none;stroke:#333;stroke-width:0.4px;"/>
                        <path d="M15.389,11.804c-0.067,2.091 -0.394,3.098 -0.473,4.053c-0.092,1.107 0.935,2.217 1.106,3.341" style="fill:none;stroke:#333;stroke-width:0.6px;"/>
                        <path d="M11.487,0.469c0.375,0.929 0.494,1.442 1.734,1.586c1.347,0.156 2.891,0.659 3.372,1.363c1.122,1.643 0.852,4.372 0.824,5.474c0.394,2.856 0.167,4.532 0.478,5.496c0.423,1.308 0.38,3.443 0.295,4.464" style="fill:none;stroke:#333;stroke-width:0.6px;"/>
                        <path d="M15.808,6.927c0.004,0.259 -0.234,0.689 -0.267,0.786" style="fill:none;stroke:#333;stroke-width:0.4px;"/>
                    </g>
                    <g id="breast">
                        <path d="M10.359,9.073c0.058,2.214 1.852,3.734 4.207,3.057c1.169,-0.336 1.6,-1.461 1.426,-2.516c-0.126,-0.769 -0.458,-1.523 -0.406,-1.943" style="fill:none;stroke:#333;stroke-width:0.6px;"/>
                        <g>
                            <path d="M13.677,9.312c-0.058,0.098 -0.091,0.213 -0.091,0.335c-0,0.363 0.295,0.658 0.658,0.658c0.363,-0 0.658,-0.295 0.658,-0.658c-0,-0.122 -0.034,-0.237 -0.092,-0.335" style="fill:none;stroke:#333;stroke-width:0.23px;"/>
                            <path d="M14.088,9.606c0,0.106 0.086,0.191 0.191,0.191c0.106,0 0.192,-0.085 0.192,-0.191" style="fill:none;stroke:#333;stroke-width:0.23px;"/>
                        </g>
                    </g>
                </g>
                <g id="side1" serif:id="side">
                    <g id="shade1" serif:id="shade">
                        <g opacity="0.2">
                            <path d="M3.753,11.938c-0.006,3.248 -0.667,2.451 -0.245,4.206c0.14,0.581 0.089,1.625 -0.151,2.78c0.476,-0.588 0.59,-1.355 0.852,-2.346c0.099,-1.291 0.025,-3.814 -0.456,-4.64Z" style="fill:#333;"/>
                            <path d="M3.363,7.24c-0.255,0.672 0.157,1.169 0.098,2.253c0.311,-0.437 0.461,-1.093 0.359,-1.65l-0.457,-0.603Z" style="fill:#333;"/>
                            <path d="M3.958,7.907c0.27,-0.248 0.072,-0.933 -0.342,-1.413c-0.237,-0.275 -0.611,0.192 -0.425,0.415c0.339,0.405 0.357,0.773 0.767,0.998Z" style="fill:#333;"/>
                            <g id="lighter1" serif:id="lighter" opacity="0.5">
                                <path d="M4.428,2.522c2.021,0.048 3.09,-0.063 3.587,-0.308c0.349,-0.172 -0.406,-0.305 -0,-1.666l-0.99,1.32l-2.597,0.654Z" style="fill:#333;"/>
                                <path d="M6.958,17.228c0.345,0.558 -0.446,0.006 -1.096,-1.52c-0.338,-0.793 -0.354,-1.603 -0,-1.615c0.668,-0.023 0.509,2.344 1.096,3.135Z" style="fill:#333;"/>
                            </g>
                        </g>
                        <path d="M3.924,12.662c-0,-0 0.072,0.755 0.192,1.016c1.39,0.754 3.685,0.116 4.506,-2.768c-0.912,1.492 -1.86,2.299 -3.269,2.32c-0.584,0.009 -1.429,-0.568 -1.429,-0.568Z" style="fill:#333;fill-opacity:0.55;"/>
                    </g>
                    <g id="lines1" serif:id="lines">
                        <path d="M5.742,13.663c0.164,0.377 0.271,0.784 0.351,1.157" style="fill:none;stroke:#333;stroke-width:0.16px;"/>
                        <path d="M4.186,14.092c-0.242,1.477 0.067,2.526 -0.384,3.564" style="fill:none;stroke:#333;stroke-width:0.4px;"/>
                        <path d="M3.992,12.871c0.115,1.464 0.347,2.186 0.414,2.986c0.091,1.107 -0.936,2.217 -1.107,3.341" style="fill:none;stroke:#333;stroke-width:0.6px;"/>
                        <path d="M7.835,0.469c-0.376,0.929 -0.494,1.442 -1.734,1.586c-1.348,0.156 -2.892,0.659 -3.372,1.363c-1.123,1.643 -0.853,4.372 -0.825,5.474c-0.394,2.856 -0.166,4.532 -0.478,5.496c-0.423,1.308 -0.38,3.443 -0.294,4.464" style="fill:none;stroke:#333;stroke-width:0.6px;"/>
                        <path d="M3.513,6.927c-0.004,0.259 0.234,0.689 0.268,0.786" style="fill:none;stroke:#333;stroke-width:0.4px;"/>
                    </g>
                    <g id="breast1" serif:id="breast">
                        <path d="M8.962,9.073c0.09,3.02 -2.461,5.007 -4.425,4.016c-2.119,-1.069 -0.785,-3.06 -0.666,-5.257" style="fill:none;stroke:#333;stroke-width:0.6px;"/>
                        <g>
                            <path d="M6.074,10.177c0.066,0.111 0.103,0.24 0.103,0.377c0,0.41 -0.332,0.742 -0.741,0.742c-0.409,-0 -0.742,-0.332 -0.742,-0.742c0,-0.137 0.038,-0.266 0.103,-0.377" style="fill:none;stroke:#333;stroke-width:0.23px;"/>
                            <path d="M5.591,10.535c0,0.105 -0.085,0.191 -0.191,0.191c-0.105,-0 -0.191,-0.086 -0.191,-0.191" style="fill:none;stroke:#333;stroke-width:0.23px;"/>
                        </g>
                    </g>
                </g>
                <path d="M9.02,2.287c0.442,0.561 0.871,0.537 1.288,0" style="fill:none;stroke:#333;stroke-width:0.2px;"/>
            </g>
            <g id="larger">
                <g id="side2" serif:id="side">
                    <g id="LINES">
                        <path d="M34.472,0.603c0.291,0.62 0.498,1.369 1.396,1.532c1.977,0.36 3.555,0.666 4.348,1.785c1.24,1.748 1.173,3.773 1.196,5.596c0.336,2.125 0.092,4.482 0.244,5.499c0.522,1.56 0.484,3.477 0.427,4.107" style="fill:none;stroke:#333;stroke-width:0.6px;"/>
                        <path d="M39.406,6.646c-0.014,0.439 -0.226,0.805 -0.346,0.955" style="fill:none;stroke:#333;stroke-width:0.4px;"/>
                        <path d="M39.281,15.56c-0.1,0.55 -0.231,1.061 -0.247,1.327c-0.04,0.653 0.165,1.168 0.562,2.31" style="fill:none;stroke:#333;stroke-width:0.6px;"/>
                        <path d="M36.627,17.896c0.014,-0.348 0.157,-0.653 0.322,-1.035" style="fill:none;stroke:#333;stroke-width:0.16px;"/>
                        <path d="M39.268,16.27c0.202,0.535 -0.157,1.191 0.292,2.496" style="fill:none;stroke:#333;stroke-width:0.4px;"/>
                    </g>
                    <g id="BREAST">
                        <path d="M32.999,10.973c0.571,3.378 3.045,5.741 5.757,4.827c3.088,-1.04 0.17,-5.46 0.346,-8.165" style="fill:none;stroke:#333;stroke-width:0.6px;"/>
                        <g>
                            <path d="M37.778,13.236c-0.08,0.135 -0.126,0.293 -0.126,0.461c-0,0.5 0.406,0.906 0.906,0.906c0.5,0 0.907,-0.406 0.907,-0.906c-0,-0.168 -0.046,-0.326 -0.127,-0.461" style="fill:none;stroke:#333;stroke-width:0.23px;"/>
                            <path d="M38.403,13.718c-0,0.105 0.086,0.191 0.191,0.191c0.105,-0 0.191,-0.086 0.191,-0.191" style="fill:none;stroke:#333;stroke-width:0.23px;"/>
                        </g>
                    </g>
                    <g id="SHADE">
                        <g id="_20" serif:id="20" opacity="0.2">
                            <g id="lighter2" serif:id="lighter" opacity="0.5">
                                <path d="M35.949,18.2c0.284,-0.555 0.17,-1.654 0.704,-1.418c0.895,0.395 0.313,1.265 -0.188,1.732c-0.132,0.123 -0.706,0.058 -0.516,-0.314Z" style="fill:#333;"/>
                                <path d="M34.829,1.118c0.169,0.62 -0.418,0.748 -0.353,1.07c0.1,0.496 1.019,0.289 1.741,0.363c0.701,0.071 1.4,0.015 2.452,0.297c-0.607,-0.376 -1.829,-0.643 -2.866,-0.66c-0.546,0.01 -0.891,-0.61 -0.974,-1.07Z" style="fill:#333;"/>
                            </g>
                            <path d="M38.878,7.674c0.224,-0.809 -0.266,-1.223 0.357,-1.534c0.725,-0.363 0.441,0.733 0.441,0.733c-0.094,0.437 -0.384,0.681 -0.798,0.801Z" style="fill:#333;"/>
                            <path d="M40.297,13.112c0.611,2.254 -0.255,2.334 -0.254,2.852c0.004,1.277 -0.574,1.36 -0.474,2.984c-0.455,-1.437 -0.308,-3.191 -0.308,-3.191c0.757,-0.851 1.196,-1.521 1.036,-2.645Z" style="fill:#333;"/>
                        </g>
                        <path d="M39.178,16.791c-0.532,0.334 -4.961,0.566 -5.725,-4.248c0.371,1.476 1.731,2.963 3.442,3.391c1.361,0.34 2.042,-0.037 2.44,-0.592c-0.061,0.635 -0.091,1.408 -0.157,1.449Z" style="fill:#333;fill-opacity:0.55;"/>
                    </g>
                </g>
                <g id="side3" serif:id="side">
                    <g id="LINES1" serif:id="LINES">
                        <path d="M30.333,0.603c-0.291,0.62 -0.499,1.369 -1.396,1.532c-1.977,0.36 -3.555,0.666 -4.349,1.785c-1.239,1.748 -1.172,3.773 -1.196,5.596c-0.335,2.125 -0.091,4.482 -0.243,5.499c-0.522,1.56 -0.485,3.477 -0.428,4.107" style="fill:none;stroke:#333;stroke-width:0.6px;"/>
                        <path d="M25.432,6.646c0.014,0.439 0.226,0.805 0.346,0.955" style="fill:none;stroke:#333;stroke-width:0.4px;"/>
                        <path d="M25.501,14.06c0.145,1.289 0.402,2.317 0.431,2.793c0.04,0.654 -0.326,1.202 -0.723,2.344" style="fill:none;stroke:#333;stroke-width:0.6px;"/>
                        <path d="M28.177,17.896c-0.016,-0.405 -0.207,-0.753 -0.404,-1.23" style="fill:none;stroke:#333;stroke-width:0.16px;"/>
                        <path d="M25.73,15.594c-0.175,0.63 0.205,1.73 -0.366,3.233" style="fill:none;stroke:#333;stroke-width:0.49px;"/>
                    </g>
                    <g id="BREAST1" serif:id="BREAST">
                        <path d="M31.806,10.973c-0.769,3.386 -3.512,4.5 -5.415,3.608c-2.95,-1.384 -0.61,-4.448 -0.655,-6.946" style="fill:none;stroke:#333;stroke-width:0.6px;"/>
                        <g>
                            <path d="M27.591,11.912c0.072,0.123 0.114,0.266 0.114,0.419c0,0.455 -0.369,0.824 -0.824,0.824c-0.455,0 -0.824,-0.369 -0.824,-0.824c0,-0.153 0.042,-0.296 0.115,-0.419" style="fill:none;stroke:#333;stroke-width:0.23px;"/>
                            <path d="M27.036,12.332c0,0.105 -0.085,0.191 -0.191,0.191c-0.105,-0 -0.191,-0.086 -0.191,-0.191" style="fill:none;stroke:#333;stroke-width:0.23px;"/>
                        </g>
                    </g>
                    <g id="SHADE1" serif:id="SHADE">
                        <g id="_201" serif:id="20" opacity="0.2">
                            <g id="lighter3" serif:id="lighter" opacity="0.5">
                                <path d="M28.846,18.174c-0.306,-0.614 -0.227,-1.808 -0.76,-1.569c-0.894,0.401 -0.275,1.369 0.248,1.894c0.137,0.138 0.717,0.086 0.512,-0.325Z" style="fill:#333;"/>
                                <path d="M29.976,1.118c-0.169,0.62 0.417,0.748 0.352,1.07c-0.099,0.496 -1.019,0.289 -1.741,0.363c-0.701,0.071 -1.399,0.015 -2.451,0.297c0.606,-0.376 1.828,-0.643 2.865,-0.66c0.547,0.01 0.892,-0.61 0.975,-1.07Z" style="fill:#333;"/>
                            </g>
                            <path d="M25.975,7.673c-0.234,-0.756 0.288,-1.146 -0.371,-1.435c-0.768,-0.336 -0.471,0.688 -0.471,0.688c0.098,0.409 0.404,0.636 0.842,0.747Z" style="fill:#333;"/>
                            <path d="M24.738,11.796c-0.475,2.035 0.379,2.865 0.293,3.376c-0.179,1.073 0.493,1.599 0.532,2.805c0.455,-1.437 0.177,-3.6 0.177,-3.6c-0.757,-0.851 -1.163,-1.457 -1.002,-2.581Z" style="fill:#333;"/>
                        </g>
                        <path d="M25.694,15.097c0.723,0.371 4.613,1.61 6.029,-3.504c-0.497,1.416 -1.634,3.102 -3.686,3.235c-1.687,0.109 -2.242,-0.474 -2.682,-1.021c0.163,0.835 0.27,1.255 0.339,1.29Z" style="fill:#333;fill-opacity:0.55;"/>
                    </g>
                </g>
                <path d="M31.73,2.475c0.442,0.561 0.871,0.537 1.288,0" style="fill:none;stroke:#333;stroke-width:0.2px;"/>
            </g>
        </g>
    </g>
</svg>
